G04 EAGLE Gerber RS-274X export*
G75*
%MOMM*%
%FSLAX34Y34*%
%LPD*%
%INCopper Layer 15*%
%IPPOS*%
%AMOC8*
5,1,8,0,0,1.08239X$1,22.5*%
G01*
%ADD10C,1.244600*%
%ADD11C,1.400000*%
%ADD12C,1.960000*%
%ADD13C,3.500000*%
%ADD14C,1.422400*%
%ADD15C,4.191000*%
%ADD16C,0.609600*%

G36*
X3810Y2541D02*
X3810Y2541D01*
X1596190Y2541D01*
X1596308Y2556D01*
X1596427Y2563D01*
X1596465Y2576D01*
X1596506Y2581D01*
X1596616Y2624D01*
X1596729Y2661D01*
X1596764Y2683D01*
X1596801Y2698D01*
X1596897Y2767D01*
X1596998Y2831D01*
X1597026Y2861D01*
X1597059Y2884D01*
X1597135Y2976D01*
X1597216Y3063D01*
X1597236Y3098D01*
X1597261Y3129D01*
X1597312Y3237D01*
X1597370Y3341D01*
X1597380Y3381D01*
X1597397Y3417D01*
X1597419Y3534D01*
X1597449Y3649D01*
X1597453Y3709D01*
X1597457Y3729D01*
X1597455Y3750D01*
X1597459Y3810D01*
X1597459Y996190D01*
X1597444Y996308D01*
X1597437Y996427D01*
X1597424Y996465D01*
X1597419Y996506D01*
X1597376Y996616D01*
X1597339Y996729D01*
X1597317Y996764D01*
X1597302Y996801D01*
X1597233Y996897D01*
X1597169Y996998D01*
X1597139Y997026D01*
X1597116Y997059D01*
X1597024Y997135D01*
X1596937Y997216D01*
X1596902Y997236D01*
X1596871Y997261D01*
X1596763Y997312D01*
X1596659Y997370D01*
X1596619Y997380D01*
X1596583Y997397D01*
X1596466Y997419D01*
X1596351Y997449D01*
X1596291Y997453D01*
X1596271Y997457D01*
X1596250Y997455D01*
X1596190Y997459D01*
X3810Y997459D01*
X3692Y997444D01*
X3573Y997437D01*
X3535Y997424D01*
X3494Y997419D01*
X3384Y997376D01*
X3271Y997339D01*
X3236Y997317D01*
X3199Y997302D01*
X3103Y997233D01*
X3002Y997169D01*
X2974Y997139D01*
X2941Y997116D01*
X2865Y997024D01*
X2784Y996937D01*
X2764Y996902D01*
X2739Y996871D01*
X2688Y996763D01*
X2630Y996659D01*
X2620Y996619D01*
X2603Y996583D01*
X2581Y996466D01*
X2551Y996351D01*
X2547Y996291D01*
X2543Y996271D01*
X2545Y996250D01*
X2541Y996190D01*
X2541Y3810D01*
X2556Y3692D01*
X2563Y3573D01*
X2576Y3535D01*
X2581Y3494D01*
X2624Y3384D01*
X2661Y3271D01*
X2683Y3236D01*
X2698Y3199D01*
X2767Y3103D01*
X2831Y3002D01*
X2861Y2974D01*
X2884Y2941D01*
X2976Y2865D01*
X3063Y2784D01*
X3098Y2764D01*
X3129Y2739D01*
X3237Y2688D01*
X3341Y2630D01*
X3381Y2620D01*
X3417Y2603D01*
X3534Y2581D01*
X3649Y2551D01*
X3709Y2547D01*
X3729Y2543D01*
X3750Y2545D01*
X3810Y2541D01*
G37*
%LPC*%
G36*
X33426Y27304D02*
X33426Y27304D01*
X24791Y30881D01*
X18181Y37491D01*
X14604Y46126D01*
X14604Y55474D01*
X18181Y64109D01*
X24791Y70719D01*
X33426Y74296D01*
X42774Y74296D01*
X51409Y70719D01*
X58019Y64109D01*
X61596Y55474D01*
X61596Y46126D01*
X58019Y37491D01*
X51409Y30881D01*
X42774Y27304D01*
X33426Y27304D01*
G37*
%LPD*%
%LPC*%
G36*
X1557426Y27304D02*
X1557426Y27304D01*
X1548791Y30881D01*
X1542181Y37491D01*
X1538604Y46126D01*
X1538604Y55474D01*
X1542181Y64109D01*
X1548791Y70719D01*
X1557426Y74296D01*
X1566774Y74296D01*
X1575409Y70719D01*
X1582019Y64109D01*
X1585596Y55474D01*
X1585596Y46126D01*
X1582019Y37491D01*
X1575409Y30881D01*
X1566774Y27304D01*
X1557426Y27304D01*
G37*
%LPD*%
%LPC*%
G36*
X1557426Y929004D02*
X1557426Y929004D01*
X1548791Y932581D01*
X1542181Y939191D01*
X1538604Y947826D01*
X1538604Y957174D01*
X1542181Y965809D01*
X1548791Y972419D01*
X1557426Y975996D01*
X1566774Y975996D01*
X1575409Y972419D01*
X1582019Y965809D01*
X1585596Y957174D01*
X1585596Y947826D01*
X1582019Y939191D01*
X1575409Y932581D01*
X1566774Y929004D01*
X1557426Y929004D01*
G37*
%LPD*%
%LPC*%
G36*
X33426Y929004D02*
X33426Y929004D01*
X24791Y932581D01*
X18181Y939191D01*
X14604Y947826D01*
X14604Y957174D01*
X18181Y965809D01*
X24791Y972419D01*
X33426Y975996D01*
X42774Y975996D01*
X51409Y972419D01*
X58019Y965809D01*
X61596Y957174D01*
X61596Y947826D01*
X58019Y939191D01*
X51409Y932581D01*
X42774Y929004D01*
X33426Y929004D01*
G37*
%LPD*%
%LPC*%
G36*
X853114Y272059D02*
X853114Y272059D01*
X845748Y275110D01*
X840110Y280748D01*
X837059Y288114D01*
X837059Y296086D01*
X840110Y303452D01*
X845748Y309090D01*
X853114Y312141D01*
X861086Y312141D01*
X868452Y309090D01*
X874090Y303452D01*
X877141Y296086D01*
X877141Y288114D01*
X874090Y280748D01*
X868452Y275110D01*
X861086Y272059D01*
X853114Y272059D01*
G37*
%LPD*%
%LPC*%
G36*
X739114Y272059D02*
X739114Y272059D01*
X731748Y275110D01*
X726110Y280748D01*
X723059Y288114D01*
X723059Y296086D01*
X726110Y303452D01*
X731748Y309090D01*
X739114Y312141D01*
X747086Y312141D01*
X754452Y309090D01*
X760090Y303452D01*
X763141Y296086D01*
X763141Y288114D01*
X760090Y280748D01*
X754452Y275110D01*
X747086Y272059D01*
X739114Y272059D01*
G37*
%LPD*%
%LPC*%
G36*
X440708Y308959D02*
X440708Y308959D01*
X435180Y311249D01*
X430949Y315480D01*
X428659Y321008D01*
X428659Y326992D01*
X430949Y332520D01*
X435180Y336751D01*
X440708Y339041D01*
X446692Y339041D01*
X452220Y336751D01*
X456451Y332520D01*
X458741Y326992D01*
X458741Y321008D01*
X456451Y315480D01*
X452220Y311249D01*
X446692Y308959D01*
X440708Y308959D01*
G37*
%LPD*%
%LPC*%
G36*
X340708Y308959D02*
X340708Y308959D01*
X335180Y311249D01*
X330949Y315480D01*
X328659Y321008D01*
X328659Y326992D01*
X330949Y332520D01*
X335180Y336751D01*
X340708Y339041D01*
X346692Y339041D01*
X352220Y336751D01*
X356451Y332520D01*
X358741Y326992D01*
X358741Y321008D01*
X356451Y315480D01*
X352220Y311249D01*
X346692Y308959D01*
X340708Y308959D01*
G37*
%LPD*%
%LPC*%
G36*
X112108Y308959D02*
X112108Y308959D01*
X106580Y311249D01*
X102349Y315480D01*
X100059Y321008D01*
X100059Y326992D01*
X102349Y332520D01*
X106580Y336751D01*
X112108Y339041D01*
X118092Y339041D01*
X123620Y336751D01*
X127851Y332520D01*
X130141Y326992D01*
X130141Y321008D01*
X127851Y315480D01*
X123620Y311249D01*
X118092Y308959D01*
X112108Y308959D01*
G37*
%LPD*%
%LPC*%
G36*
X212108Y308959D02*
X212108Y308959D01*
X206580Y311249D01*
X202349Y315480D01*
X200059Y321008D01*
X200059Y326992D01*
X202349Y332520D01*
X206580Y336751D01*
X212108Y339041D01*
X218092Y339041D01*
X223620Y336751D01*
X227851Y332520D01*
X230141Y326992D01*
X230141Y321008D01*
X227851Y315480D01*
X223620Y311249D01*
X218092Y308959D01*
X212108Y308959D01*
G37*
%LPD*%
%LPC*%
G36*
X453745Y152359D02*
X453745Y152359D01*
X449210Y154238D01*
X445738Y157710D01*
X443859Y162245D01*
X443859Y167155D01*
X445738Y171690D01*
X449210Y175162D01*
X453745Y177041D01*
X458655Y177041D01*
X463190Y175162D01*
X466662Y171690D01*
X468541Y167155D01*
X468541Y162245D01*
X466662Y157710D01*
X463190Y154238D01*
X458655Y152359D01*
X453745Y152359D01*
G37*
%LPD*%
%LPC*%
G36*
X328745Y152359D02*
X328745Y152359D01*
X324210Y154238D01*
X320738Y157710D01*
X318859Y162245D01*
X318859Y167155D01*
X320738Y171690D01*
X324210Y175162D01*
X328745Y177041D01*
X333655Y177041D01*
X338190Y175162D01*
X341662Y171690D01*
X343541Y167155D01*
X343541Y162245D01*
X341662Y157710D01*
X338190Y154238D01*
X333655Y152359D01*
X328745Y152359D01*
G37*
%LPD*%
%LPC*%
G36*
X100145Y102359D02*
X100145Y102359D01*
X95610Y104238D01*
X92138Y107710D01*
X90259Y112245D01*
X90259Y117155D01*
X92138Y121690D01*
X95610Y125162D01*
X100145Y127041D01*
X105055Y127041D01*
X109590Y125162D01*
X113062Y121690D01*
X114941Y117155D01*
X114941Y112245D01*
X113062Y107710D01*
X109590Y104238D01*
X105055Y102359D01*
X100145Y102359D01*
G37*
%LPD*%
%LPC*%
G36*
X225145Y102359D02*
X225145Y102359D01*
X220610Y104238D01*
X217138Y107710D01*
X215259Y112245D01*
X215259Y117155D01*
X217138Y121690D01*
X220610Y125162D01*
X225145Y127041D01*
X230055Y127041D01*
X234590Y125162D01*
X238062Y121690D01*
X239941Y117155D01*
X239941Y112245D01*
X238062Y107710D01*
X234590Y104238D01*
X230055Y102359D01*
X225145Y102359D01*
G37*
%LPD*%
%LPC*%
G36*
X328745Y102359D02*
X328745Y102359D01*
X324210Y104238D01*
X320738Y107710D01*
X318859Y112245D01*
X318859Y117155D01*
X320738Y121690D01*
X324210Y125162D01*
X328745Y127041D01*
X333655Y127041D01*
X338190Y125162D01*
X341662Y121690D01*
X343541Y117155D01*
X343541Y112245D01*
X341662Y107710D01*
X338190Y104238D01*
X333655Y102359D01*
X328745Y102359D01*
G37*
%LPD*%
%LPC*%
G36*
X453745Y102359D02*
X453745Y102359D01*
X449210Y104238D01*
X445738Y107710D01*
X443859Y112245D01*
X443859Y117155D01*
X445738Y121690D01*
X449210Y125162D01*
X453745Y127041D01*
X458655Y127041D01*
X463190Y125162D01*
X466662Y121690D01*
X468541Y117155D01*
X468541Y112245D01*
X466662Y107710D01*
X463190Y104238D01*
X458655Y102359D01*
X453745Y102359D01*
G37*
%LPD*%
%LPC*%
G36*
X100145Y152359D02*
X100145Y152359D01*
X95610Y154238D01*
X92138Y157710D01*
X90259Y162245D01*
X90259Y167155D01*
X92138Y171690D01*
X95610Y175162D01*
X100145Y177041D01*
X105055Y177041D01*
X109590Y175162D01*
X113062Y171690D01*
X114941Y167155D01*
X114941Y162245D01*
X113062Y157710D01*
X109590Y154238D01*
X105055Y152359D01*
X100145Y152359D01*
G37*
%LPD*%
%LPC*%
G36*
X225145Y152359D02*
X225145Y152359D01*
X220610Y154238D01*
X217138Y157710D01*
X215259Y162245D01*
X215259Y167155D01*
X217138Y171690D01*
X220610Y175162D01*
X225145Y177041D01*
X230055Y177041D01*
X234590Y175162D01*
X238062Y171690D01*
X239941Y167155D01*
X239941Y162245D01*
X238062Y157710D01*
X234590Y154238D01*
X230055Y152359D01*
X225145Y152359D01*
G37*
%LPD*%
%LPC*%
G36*
X810880Y879347D02*
X810880Y879347D01*
X807332Y880817D01*
X804617Y883532D01*
X803147Y887080D01*
X803147Y890920D01*
X804617Y894468D01*
X807332Y897183D01*
X810880Y898653D01*
X814720Y898653D01*
X818268Y897183D01*
X820983Y894468D01*
X822453Y890920D01*
X822453Y887080D01*
X820983Y883532D01*
X818268Y880817D01*
X814720Y879347D01*
X810880Y879347D01*
G37*
%LPD*%
%LPC*%
G36*
X912480Y879347D02*
X912480Y879347D01*
X908932Y880817D01*
X906217Y883532D01*
X904747Y887080D01*
X904747Y890920D01*
X906217Y894468D01*
X908932Y897183D01*
X912480Y898653D01*
X916320Y898653D01*
X919868Y897183D01*
X922583Y894468D01*
X924053Y890920D01*
X924053Y887080D01*
X922583Y883532D01*
X919868Y880817D01*
X916320Y879347D01*
X912480Y879347D01*
G37*
%LPD*%
%LPC*%
G36*
X861680Y879347D02*
X861680Y879347D01*
X858132Y880817D01*
X855417Y883532D01*
X853947Y887080D01*
X853947Y890920D01*
X855417Y894468D01*
X858132Y897183D01*
X861680Y898653D01*
X865520Y898653D01*
X869068Y897183D01*
X871783Y894468D01*
X873253Y890920D01*
X873253Y887080D01*
X871783Y883532D01*
X869068Y880817D01*
X865520Y879347D01*
X861680Y879347D01*
G37*
%LPD*%
%LPC*%
G36*
X836280Y879347D02*
X836280Y879347D01*
X832732Y880817D01*
X830017Y883532D01*
X828547Y887080D01*
X828547Y890920D01*
X830017Y894468D01*
X832732Y897183D01*
X836280Y898653D01*
X840120Y898653D01*
X843668Y897183D01*
X846383Y894468D01*
X847853Y890920D01*
X847853Y887080D01*
X846383Y883532D01*
X843668Y880817D01*
X840120Y879347D01*
X836280Y879347D01*
G37*
%LPD*%
%LPC*%
G36*
X760080Y879347D02*
X760080Y879347D01*
X756532Y880817D01*
X753817Y883532D01*
X752347Y887080D01*
X752347Y890920D01*
X753817Y894468D01*
X756532Y897183D01*
X760080Y898653D01*
X763920Y898653D01*
X767468Y897183D01*
X770183Y894468D01*
X771653Y890920D01*
X771653Y887080D01*
X770183Y883532D01*
X767468Y880817D01*
X763920Y879347D01*
X760080Y879347D01*
G37*
%LPD*%
%LPC*%
G36*
X734680Y879347D02*
X734680Y879347D01*
X731132Y880817D01*
X728417Y883532D01*
X726947Y887080D01*
X726947Y890920D01*
X728417Y894468D01*
X731132Y897183D01*
X734680Y898653D01*
X738520Y898653D01*
X742068Y897183D01*
X744783Y894468D01*
X746253Y890920D01*
X746253Y887080D01*
X744783Y883532D01*
X742068Y880817D01*
X738520Y879347D01*
X734680Y879347D01*
G37*
%LPD*%
%LPC*%
G36*
X709280Y879347D02*
X709280Y879347D01*
X705732Y880817D01*
X703017Y883532D01*
X701547Y887080D01*
X701547Y890920D01*
X703017Y894468D01*
X705732Y897183D01*
X709280Y898653D01*
X713120Y898653D01*
X716668Y897183D01*
X719383Y894468D01*
X720853Y890920D01*
X720853Y887080D01*
X719383Y883532D01*
X716668Y880817D01*
X713120Y879347D01*
X709280Y879347D01*
G37*
%LPD*%
%LPC*%
G36*
X683880Y879347D02*
X683880Y879347D01*
X680332Y880817D01*
X677617Y883532D01*
X676147Y887080D01*
X676147Y890920D01*
X677617Y894468D01*
X680332Y897183D01*
X683880Y898653D01*
X687720Y898653D01*
X691268Y897183D01*
X693983Y894468D01*
X695453Y890920D01*
X695453Y887080D01*
X693983Y883532D01*
X691268Y880817D01*
X687720Y879347D01*
X683880Y879347D01*
G37*
%LPD*%
%LPC*%
G36*
X785480Y879347D02*
X785480Y879347D01*
X781932Y880817D01*
X779217Y883532D01*
X777747Y887080D01*
X777747Y890920D01*
X779217Y894468D01*
X781932Y897183D01*
X785480Y898653D01*
X789320Y898653D01*
X792868Y897183D01*
X795583Y894468D01*
X797053Y890920D01*
X797053Y887080D01*
X795583Y883532D01*
X792868Y880817D01*
X789320Y879347D01*
X785480Y879347D01*
G37*
%LPD*%
%LPC*%
G36*
X138202Y244459D02*
X138202Y244459D01*
X134696Y245912D01*
X132012Y248596D01*
X130559Y252102D01*
X130559Y255898D01*
X132012Y259404D01*
X134696Y262088D01*
X138202Y263541D01*
X141998Y263541D01*
X145504Y262088D01*
X148188Y259404D01*
X149641Y255898D01*
X149641Y252102D01*
X148188Y248596D01*
X145504Y245912D01*
X141998Y244459D01*
X138202Y244459D01*
G37*
%LPD*%
%LPC*%
G36*
X366802Y244459D02*
X366802Y244459D01*
X363296Y245912D01*
X360612Y248596D01*
X359159Y252102D01*
X359159Y255898D01*
X360612Y259404D01*
X363296Y262088D01*
X366802Y263541D01*
X370598Y263541D01*
X374104Y262088D01*
X376788Y259404D01*
X378241Y255898D01*
X378241Y252102D01*
X376788Y248596D01*
X374104Y245912D01*
X370598Y244459D01*
X366802Y244459D01*
G37*
%LPD*%
%LPC*%
G36*
X391802Y244459D02*
X391802Y244459D01*
X388296Y245912D01*
X385612Y248596D01*
X384159Y252102D01*
X384159Y255898D01*
X385612Y259404D01*
X388296Y262088D01*
X391802Y263541D01*
X395598Y263541D01*
X399104Y262088D01*
X401788Y259404D01*
X403241Y255898D01*
X403241Y252102D01*
X401788Y248596D01*
X399104Y245912D01*
X395598Y244459D01*
X391802Y244459D01*
G37*
%LPD*%
%LPC*%
G36*
X416802Y244459D02*
X416802Y244459D01*
X413296Y245912D01*
X410612Y248596D01*
X409159Y252102D01*
X409159Y255898D01*
X410612Y259404D01*
X413296Y262088D01*
X416802Y263541D01*
X420598Y263541D01*
X424104Y262088D01*
X426788Y259404D01*
X428241Y255898D01*
X428241Y252102D01*
X426788Y248596D01*
X424104Y245912D01*
X420598Y244459D01*
X416802Y244459D01*
G37*
%LPD*%
%LPC*%
G36*
X188202Y244459D02*
X188202Y244459D01*
X184696Y245912D01*
X182012Y248596D01*
X180559Y252102D01*
X180559Y255898D01*
X182012Y259404D01*
X184696Y262088D01*
X188202Y263541D01*
X191998Y263541D01*
X195504Y262088D01*
X198188Y259404D01*
X199641Y255898D01*
X199641Y252102D01*
X198188Y248596D01*
X195504Y245912D01*
X191998Y244459D01*
X188202Y244459D01*
G37*
%LPD*%
%LPC*%
G36*
X163202Y244459D02*
X163202Y244459D01*
X159696Y245912D01*
X157012Y248596D01*
X155559Y252102D01*
X155559Y255898D01*
X157012Y259404D01*
X159696Y262088D01*
X163202Y263541D01*
X166998Y263541D01*
X170504Y262088D01*
X173188Y259404D01*
X174641Y255898D01*
X174641Y252102D01*
X173188Y248596D01*
X170504Y245912D01*
X166998Y244459D01*
X163202Y244459D01*
G37*
%LPD*%
%LPC*%
G36*
X1272657Y394836D02*
X1272657Y394836D01*
X1269436Y396170D01*
X1266970Y398636D01*
X1265636Y401857D01*
X1265636Y405343D01*
X1266970Y408564D01*
X1269436Y411030D01*
X1272657Y412364D01*
X1276143Y412364D01*
X1279364Y411030D01*
X1281830Y408564D01*
X1283164Y405343D01*
X1283164Y401857D01*
X1281830Y398636D01*
X1279364Y396170D01*
X1276143Y394836D01*
X1272657Y394836D01*
G37*
%LPD*%
%LPC*%
G36*
X1247257Y394836D02*
X1247257Y394836D01*
X1244036Y396170D01*
X1241570Y398636D01*
X1240236Y401857D01*
X1240236Y405343D01*
X1241570Y408564D01*
X1244036Y411030D01*
X1247257Y412364D01*
X1250743Y412364D01*
X1253964Y411030D01*
X1256430Y408564D01*
X1257764Y405343D01*
X1257764Y401857D01*
X1256430Y398636D01*
X1253964Y396170D01*
X1250743Y394836D01*
X1247257Y394836D01*
G37*
%LPD*%
%LPC*%
G36*
X1221857Y394836D02*
X1221857Y394836D01*
X1218636Y396170D01*
X1216170Y398636D01*
X1214836Y401857D01*
X1214836Y405343D01*
X1216170Y408564D01*
X1218636Y411030D01*
X1221857Y412364D01*
X1225343Y412364D01*
X1228564Y411030D01*
X1231030Y408564D01*
X1232364Y405343D01*
X1232364Y401857D01*
X1231030Y398636D01*
X1228564Y396170D01*
X1225343Y394836D01*
X1221857Y394836D01*
G37*
%LPD*%
%LPC*%
G36*
X1196457Y394836D02*
X1196457Y394836D01*
X1193236Y396170D01*
X1190770Y398636D01*
X1189436Y401857D01*
X1189436Y405343D01*
X1190770Y408564D01*
X1193236Y411030D01*
X1196457Y412364D01*
X1199943Y412364D01*
X1203164Y411030D01*
X1205630Y408564D01*
X1206964Y405343D01*
X1206964Y401857D01*
X1205630Y398636D01*
X1203164Y396170D01*
X1199943Y394836D01*
X1196457Y394836D01*
G37*
%LPD*%
%LPC*%
G36*
X1171057Y394836D02*
X1171057Y394836D01*
X1167836Y396170D01*
X1165370Y398636D01*
X1164036Y401857D01*
X1164036Y405343D01*
X1165370Y408564D01*
X1167836Y411030D01*
X1171057Y412364D01*
X1174543Y412364D01*
X1177764Y411030D01*
X1180230Y408564D01*
X1181564Y405343D01*
X1181564Y401857D01*
X1180230Y398636D01*
X1177764Y396170D01*
X1174543Y394836D01*
X1171057Y394836D01*
G37*
%LPD*%
%LPC*%
G36*
X1145657Y394836D02*
X1145657Y394836D01*
X1142436Y396170D01*
X1139970Y398636D01*
X1138636Y401857D01*
X1138636Y405343D01*
X1139970Y408564D01*
X1142436Y411030D01*
X1145657Y412364D01*
X1149143Y412364D01*
X1152364Y411030D01*
X1154830Y408564D01*
X1156164Y405343D01*
X1156164Y401857D01*
X1154830Y398636D01*
X1152364Y396170D01*
X1149143Y394836D01*
X1145657Y394836D01*
G37*
%LPD*%
%LPC*%
G36*
X1120257Y394836D02*
X1120257Y394836D01*
X1117036Y396170D01*
X1114570Y398636D01*
X1113236Y401857D01*
X1113236Y405343D01*
X1114570Y408564D01*
X1117036Y411030D01*
X1120257Y412364D01*
X1123743Y412364D01*
X1126964Y411030D01*
X1129430Y408564D01*
X1130764Y405343D01*
X1130764Y401857D01*
X1129430Y398636D01*
X1126964Y396170D01*
X1123743Y394836D01*
X1120257Y394836D01*
G37*
%LPD*%
%LPC*%
G36*
X1094857Y394836D02*
X1094857Y394836D01*
X1091636Y396170D01*
X1089170Y398636D01*
X1087836Y401857D01*
X1087836Y405343D01*
X1089170Y408564D01*
X1091636Y411030D01*
X1094857Y412364D01*
X1098343Y412364D01*
X1101564Y411030D01*
X1104030Y408564D01*
X1105364Y405343D01*
X1105364Y401857D01*
X1104030Y398636D01*
X1101564Y396170D01*
X1098343Y394836D01*
X1094857Y394836D01*
G37*
%LPD*%
%LPC*%
G36*
X1044057Y394836D02*
X1044057Y394836D01*
X1040836Y396170D01*
X1038370Y398636D01*
X1037036Y401857D01*
X1037036Y405343D01*
X1038370Y408564D01*
X1040836Y411030D01*
X1044057Y412364D01*
X1047543Y412364D01*
X1050764Y411030D01*
X1053230Y408564D01*
X1054564Y405343D01*
X1054564Y401857D01*
X1053230Y398636D01*
X1050764Y396170D01*
X1047543Y394836D01*
X1044057Y394836D01*
G37*
%LPD*%
%LPC*%
G36*
X1018657Y394836D02*
X1018657Y394836D01*
X1015436Y396170D01*
X1012970Y398636D01*
X1011636Y401857D01*
X1011636Y405343D01*
X1012970Y408564D01*
X1015436Y411030D01*
X1018657Y412364D01*
X1022143Y412364D01*
X1025364Y411030D01*
X1027830Y408564D01*
X1029164Y405343D01*
X1029164Y401857D01*
X1027830Y398636D01*
X1025364Y396170D01*
X1022143Y394836D01*
X1018657Y394836D01*
G37*
%LPD*%
%LPC*%
G36*
X1044057Y420236D02*
X1044057Y420236D01*
X1040836Y421570D01*
X1038370Y424036D01*
X1037036Y427257D01*
X1037036Y430743D01*
X1038370Y433964D01*
X1040836Y436430D01*
X1044057Y437764D01*
X1047543Y437764D01*
X1050764Y436430D01*
X1053230Y433964D01*
X1054564Y430743D01*
X1054564Y427257D01*
X1053230Y424036D01*
X1050764Y421570D01*
X1047543Y420236D01*
X1044057Y420236D01*
G37*
%LPD*%
%LPC*%
G36*
X1399657Y394836D02*
X1399657Y394836D01*
X1396436Y396170D01*
X1393970Y398636D01*
X1392636Y401857D01*
X1392636Y405343D01*
X1393970Y408564D01*
X1396436Y411030D01*
X1399657Y412364D01*
X1403143Y412364D01*
X1406364Y411030D01*
X1408830Y408564D01*
X1410164Y405343D01*
X1410164Y401857D01*
X1408830Y398636D01*
X1406364Y396170D01*
X1403143Y394836D01*
X1399657Y394836D01*
G37*
%LPD*%
%LPC*%
G36*
X1272657Y674236D02*
X1272657Y674236D01*
X1269436Y675570D01*
X1266970Y678036D01*
X1265636Y681257D01*
X1265636Y684743D01*
X1266970Y687964D01*
X1269436Y690430D01*
X1272657Y691764D01*
X1276143Y691764D01*
X1279364Y690430D01*
X1281830Y687964D01*
X1283164Y684743D01*
X1283164Y681257D01*
X1281830Y678036D01*
X1279364Y675570D01*
X1276143Y674236D01*
X1272657Y674236D01*
G37*
%LPD*%
%LPC*%
G36*
X1221857Y674236D02*
X1221857Y674236D01*
X1218636Y675570D01*
X1216170Y678036D01*
X1214836Y681257D01*
X1214836Y684743D01*
X1216170Y687964D01*
X1218636Y690430D01*
X1221857Y691764D01*
X1225343Y691764D01*
X1228564Y690430D01*
X1231030Y687964D01*
X1232364Y684743D01*
X1232364Y681257D01*
X1231030Y678036D01*
X1228564Y675570D01*
X1225343Y674236D01*
X1221857Y674236D01*
G37*
%LPD*%
%LPC*%
G36*
X1196457Y674236D02*
X1196457Y674236D01*
X1193236Y675570D01*
X1190770Y678036D01*
X1189436Y681257D01*
X1189436Y684743D01*
X1190770Y687964D01*
X1193236Y690430D01*
X1196457Y691764D01*
X1199943Y691764D01*
X1203164Y690430D01*
X1205630Y687964D01*
X1206964Y684743D01*
X1206964Y681257D01*
X1205630Y678036D01*
X1203164Y675570D01*
X1199943Y674236D01*
X1196457Y674236D01*
G37*
%LPD*%
%LPC*%
G36*
X1171057Y674236D02*
X1171057Y674236D01*
X1167836Y675570D01*
X1165370Y678036D01*
X1164036Y681257D01*
X1164036Y684743D01*
X1165370Y687964D01*
X1167836Y690430D01*
X1171057Y691764D01*
X1174543Y691764D01*
X1177764Y690430D01*
X1180230Y687964D01*
X1181564Y684743D01*
X1181564Y681257D01*
X1180230Y678036D01*
X1177764Y675570D01*
X1174543Y674236D01*
X1171057Y674236D01*
G37*
%LPD*%
%LPC*%
G36*
X1145657Y674236D02*
X1145657Y674236D01*
X1142436Y675570D01*
X1139970Y678036D01*
X1138636Y681257D01*
X1138636Y684743D01*
X1139970Y687964D01*
X1142436Y690430D01*
X1145657Y691764D01*
X1149143Y691764D01*
X1152364Y690430D01*
X1154830Y687964D01*
X1156164Y684743D01*
X1156164Y681257D01*
X1154830Y678036D01*
X1152364Y675570D01*
X1149143Y674236D01*
X1145657Y674236D01*
G37*
%LPD*%
%LPC*%
G36*
X1120257Y674236D02*
X1120257Y674236D01*
X1117036Y675570D01*
X1114570Y678036D01*
X1113236Y681257D01*
X1113236Y684743D01*
X1114570Y687964D01*
X1117036Y690430D01*
X1120257Y691764D01*
X1123743Y691764D01*
X1126964Y690430D01*
X1129430Y687964D01*
X1130764Y684743D01*
X1130764Y681257D01*
X1129430Y678036D01*
X1126964Y675570D01*
X1123743Y674236D01*
X1120257Y674236D01*
G37*
%LPD*%
%LPC*%
G36*
X1094857Y674236D02*
X1094857Y674236D01*
X1091636Y675570D01*
X1089170Y678036D01*
X1087836Y681257D01*
X1087836Y684743D01*
X1089170Y687964D01*
X1091636Y690430D01*
X1094857Y691764D01*
X1098343Y691764D01*
X1101564Y690430D01*
X1104030Y687964D01*
X1105364Y684743D01*
X1105364Y681257D01*
X1104030Y678036D01*
X1101564Y675570D01*
X1098343Y674236D01*
X1094857Y674236D01*
G37*
%LPD*%
%LPC*%
G36*
X1069457Y674236D02*
X1069457Y674236D01*
X1066236Y675570D01*
X1063770Y678036D01*
X1062436Y681257D01*
X1062436Y684743D01*
X1063770Y687964D01*
X1066236Y690430D01*
X1069457Y691764D01*
X1072943Y691764D01*
X1076164Y690430D01*
X1078630Y687964D01*
X1079964Y684743D01*
X1079964Y681257D01*
X1078630Y678036D01*
X1076164Y675570D01*
X1072943Y674236D01*
X1069457Y674236D01*
G37*
%LPD*%
%LPC*%
G36*
X1044057Y674236D02*
X1044057Y674236D01*
X1040836Y675570D01*
X1038370Y678036D01*
X1037036Y681257D01*
X1037036Y684743D01*
X1038370Y687964D01*
X1040836Y690430D01*
X1044057Y691764D01*
X1047543Y691764D01*
X1050764Y690430D01*
X1053230Y687964D01*
X1054564Y684743D01*
X1054564Y681257D01*
X1053230Y678036D01*
X1050764Y675570D01*
X1047543Y674236D01*
X1044057Y674236D01*
G37*
%LPD*%
%LPC*%
G36*
X1018657Y674236D02*
X1018657Y674236D01*
X1015436Y675570D01*
X1012970Y678036D01*
X1011636Y681257D01*
X1011636Y684743D01*
X1012970Y687964D01*
X1015436Y690430D01*
X1018657Y691764D01*
X1022143Y691764D01*
X1025364Y690430D01*
X1027830Y687964D01*
X1029164Y684743D01*
X1029164Y681257D01*
X1027830Y678036D01*
X1025364Y675570D01*
X1022143Y674236D01*
X1018657Y674236D01*
G37*
%LPD*%
%LPC*%
G36*
X993257Y674236D02*
X993257Y674236D01*
X990036Y675570D01*
X987570Y678036D01*
X986236Y681257D01*
X986236Y684743D01*
X987570Y687964D01*
X990036Y690430D01*
X993257Y691764D01*
X996743Y691764D01*
X999964Y690430D01*
X1002430Y687964D01*
X1003764Y684743D01*
X1003764Y681257D01*
X1002430Y678036D01*
X999964Y675570D01*
X996743Y674236D01*
X993257Y674236D01*
G37*
%LPD*%
%LPC*%
G36*
X1425057Y674236D02*
X1425057Y674236D01*
X1421836Y675570D01*
X1419370Y678036D01*
X1418036Y681257D01*
X1418036Y684743D01*
X1419370Y687964D01*
X1421836Y690430D01*
X1425057Y691764D01*
X1428543Y691764D01*
X1431764Y690430D01*
X1434230Y687964D01*
X1435564Y684743D01*
X1435564Y681257D01*
X1434230Y678036D01*
X1431764Y675570D01*
X1428543Y674236D01*
X1425057Y674236D01*
G37*
%LPD*%
%LPC*%
G36*
X1399657Y674236D02*
X1399657Y674236D01*
X1396436Y675570D01*
X1393970Y678036D01*
X1392636Y681257D01*
X1392636Y684743D01*
X1393970Y687964D01*
X1396436Y690430D01*
X1399657Y691764D01*
X1403143Y691764D01*
X1406364Y690430D01*
X1408830Y687964D01*
X1410164Y684743D01*
X1410164Y681257D01*
X1408830Y678036D01*
X1406364Y675570D01*
X1403143Y674236D01*
X1399657Y674236D01*
G37*
%LPD*%
%LPC*%
G36*
X1374257Y674236D02*
X1374257Y674236D01*
X1371036Y675570D01*
X1368570Y678036D01*
X1367236Y681257D01*
X1367236Y684743D01*
X1368570Y687964D01*
X1371036Y690430D01*
X1374257Y691764D01*
X1377743Y691764D01*
X1380964Y690430D01*
X1383430Y687964D01*
X1384764Y684743D01*
X1384764Y681257D01*
X1383430Y678036D01*
X1380964Y675570D01*
X1377743Y674236D01*
X1374257Y674236D01*
G37*
%LPD*%
%LPC*%
G36*
X1348857Y674236D02*
X1348857Y674236D01*
X1345636Y675570D01*
X1343170Y678036D01*
X1341836Y681257D01*
X1341836Y684743D01*
X1343170Y687964D01*
X1345636Y690430D01*
X1348857Y691764D01*
X1352343Y691764D01*
X1355564Y690430D01*
X1358030Y687964D01*
X1359364Y684743D01*
X1359364Y681257D01*
X1358030Y678036D01*
X1355564Y675570D01*
X1352343Y674236D01*
X1348857Y674236D01*
G37*
%LPD*%
%LPC*%
G36*
X1323457Y674236D02*
X1323457Y674236D01*
X1320236Y675570D01*
X1317770Y678036D01*
X1316436Y681257D01*
X1316436Y684743D01*
X1317770Y687964D01*
X1320236Y690430D01*
X1323457Y691764D01*
X1326943Y691764D01*
X1330164Y690430D01*
X1332630Y687964D01*
X1333964Y684743D01*
X1333964Y681257D01*
X1332630Y678036D01*
X1330164Y675570D01*
X1326943Y674236D01*
X1323457Y674236D01*
G37*
%LPD*%
%LPC*%
G36*
X1298057Y674236D02*
X1298057Y674236D01*
X1294836Y675570D01*
X1292370Y678036D01*
X1291036Y681257D01*
X1291036Y684743D01*
X1292370Y687964D01*
X1294836Y690430D01*
X1298057Y691764D01*
X1301543Y691764D01*
X1304764Y690430D01*
X1307230Y687964D01*
X1308564Y684743D01*
X1308564Y681257D01*
X1307230Y678036D01*
X1304764Y675570D01*
X1301543Y674236D01*
X1298057Y674236D01*
G37*
%LPD*%
%LPC*%
G36*
X1069457Y648836D02*
X1069457Y648836D01*
X1066236Y650170D01*
X1063770Y652636D01*
X1062436Y655857D01*
X1062436Y659343D01*
X1063770Y662564D01*
X1066236Y665030D01*
X1069457Y666364D01*
X1072943Y666364D01*
X1076164Y665030D01*
X1078630Y662564D01*
X1079964Y659343D01*
X1079964Y655857D01*
X1078630Y652636D01*
X1076164Y650170D01*
X1072943Y648836D01*
X1069457Y648836D01*
G37*
%LPD*%
%LPC*%
G36*
X1196457Y648836D02*
X1196457Y648836D01*
X1193236Y650170D01*
X1190770Y652636D01*
X1189436Y655857D01*
X1189436Y659343D01*
X1190770Y662564D01*
X1193236Y665030D01*
X1196457Y666364D01*
X1199943Y666364D01*
X1203164Y665030D01*
X1205630Y662564D01*
X1206964Y659343D01*
X1206964Y655857D01*
X1205630Y652636D01*
X1203164Y650170D01*
X1199943Y648836D01*
X1196457Y648836D01*
G37*
%LPD*%
%LPC*%
G36*
X1298057Y648836D02*
X1298057Y648836D01*
X1294836Y650170D01*
X1292370Y652636D01*
X1291036Y655857D01*
X1291036Y659343D01*
X1292370Y662564D01*
X1294836Y665030D01*
X1298057Y666364D01*
X1301543Y666364D01*
X1304764Y665030D01*
X1307230Y662564D01*
X1308564Y659343D01*
X1308564Y655857D01*
X1307230Y652636D01*
X1304764Y650170D01*
X1301543Y648836D01*
X1298057Y648836D01*
G37*
%LPD*%
%LPC*%
G36*
X1044057Y648836D02*
X1044057Y648836D01*
X1040836Y650170D01*
X1038370Y652636D01*
X1037036Y655857D01*
X1037036Y659343D01*
X1038370Y662564D01*
X1040836Y665030D01*
X1044057Y666364D01*
X1047543Y666364D01*
X1050764Y665030D01*
X1053230Y662564D01*
X1054564Y659343D01*
X1054564Y655857D01*
X1053230Y652636D01*
X1050764Y650170D01*
X1047543Y648836D01*
X1044057Y648836D01*
G37*
%LPD*%
%LPC*%
G36*
X1425057Y648836D02*
X1425057Y648836D01*
X1421836Y650170D01*
X1419370Y652636D01*
X1418036Y655857D01*
X1418036Y659343D01*
X1419370Y662564D01*
X1421836Y665030D01*
X1425057Y666364D01*
X1428543Y666364D01*
X1431764Y665030D01*
X1434230Y662564D01*
X1435564Y659343D01*
X1435564Y655857D01*
X1434230Y652636D01*
X1431764Y650170D01*
X1428543Y648836D01*
X1425057Y648836D01*
G37*
%LPD*%
%LPC*%
G36*
X1272657Y648836D02*
X1272657Y648836D01*
X1269436Y650170D01*
X1266970Y652636D01*
X1265636Y655857D01*
X1265636Y659343D01*
X1266970Y662564D01*
X1269436Y665030D01*
X1272657Y666364D01*
X1276143Y666364D01*
X1279364Y665030D01*
X1281830Y662564D01*
X1283164Y659343D01*
X1283164Y655857D01*
X1281830Y652636D01*
X1279364Y650170D01*
X1276143Y648836D01*
X1272657Y648836D01*
G37*
%LPD*%
%LPC*%
G36*
X1247257Y648836D02*
X1247257Y648836D01*
X1244036Y650170D01*
X1241570Y652636D01*
X1240236Y655857D01*
X1240236Y659343D01*
X1241570Y662564D01*
X1244036Y665030D01*
X1247257Y666364D01*
X1250743Y666364D01*
X1253964Y665030D01*
X1256430Y662564D01*
X1257764Y659343D01*
X1257764Y655857D01*
X1256430Y652636D01*
X1253964Y650170D01*
X1250743Y648836D01*
X1247257Y648836D01*
G37*
%LPD*%
%LPC*%
G36*
X1221857Y648836D02*
X1221857Y648836D01*
X1218636Y650170D01*
X1216170Y652636D01*
X1214836Y655857D01*
X1214836Y659343D01*
X1216170Y662564D01*
X1218636Y665030D01*
X1221857Y666364D01*
X1225343Y666364D01*
X1228564Y665030D01*
X1231030Y662564D01*
X1232364Y659343D01*
X1232364Y655857D01*
X1231030Y652636D01*
X1228564Y650170D01*
X1225343Y648836D01*
X1221857Y648836D01*
G37*
%LPD*%
%LPC*%
G36*
X1171057Y648836D02*
X1171057Y648836D01*
X1167836Y650170D01*
X1165370Y652636D01*
X1164036Y655857D01*
X1164036Y659343D01*
X1165370Y662564D01*
X1167836Y665030D01*
X1171057Y666364D01*
X1174543Y666364D01*
X1177764Y665030D01*
X1180230Y662564D01*
X1181564Y659343D01*
X1181564Y655857D01*
X1180230Y652636D01*
X1177764Y650170D01*
X1174543Y648836D01*
X1171057Y648836D01*
G37*
%LPD*%
%LPC*%
G36*
X1120257Y648836D02*
X1120257Y648836D01*
X1117036Y650170D01*
X1114570Y652636D01*
X1113236Y655857D01*
X1113236Y659343D01*
X1114570Y662564D01*
X1117036Y665030D01*
X1120257Y666364D01*
X1123743Y666364D01*
X1126964Y665030D01*
X1129430Y662564D01*
X1130764Y659343D01*
X1130764Y655857D01*
X1129430Y652636D01*
X1126964Y650170D01*
X1123743Y648836D01*
X1120257Y648836D01*
G37*
%LPD*%
%LPC*%
G36*
X1094857Y648836D02*
X1094857Y648836D01*
X1091636Y650170D01*
X1089170Y652636D01*
X1087836Y655857D01*
X1087836Y659343D01*
X1089170Y662564D01*
X1091636Y665030D01*
X1094857Y666364D01*
X1098343Y666364D01*
X1101564Y665030D01*
X1104030Y662564D01*
X1105364Y659343D01*
X1105364Y655857D01*
X1104030Y652636D01*
X1101564Y650170D01*
X1098343Y648836D01*
X1094857Y648836D01*
G37*
%LPD*%
%LPC*%
G36*
X1323457Y648836D02*
X1323457Y648836D01*
X1320236Y650170D01*
X1317770Y652636D01*
X1316436Y655857D01*
X1316436Y659343D01*
X1317770Y662564D01*
X1320236Y665030D01*
X1323457Y666364D01*
X1326943Y666364D01*
X1330164Y665030D01*
X1332630Y662564D01*
X1333964Y659343D01*
X1333964Y655857D01*
X1332630Y652636D01*
X1330164Y650170D01*
X1326943Y648836D01*
X1323457Y648836D01*
G37*
%LPD*%
%LPC*%
G36*
X993257Y648836D02*
X993257Y648836D01*
X990036Y650170D01*
X987570Y652636D01*
X986236Y655857D01*
X986236Y659343D01*
X987570Y662564D01*
X990036Y665030D01*
X993257Y666364D01*
X996743Y666364D01*
X999964Y665030D01*
X1002430Y662564D01*
X1003764Y659343D01*
X1003764Y655857D01*
X1002430Y652636D01*
X999964Y650170D01*
X996743Y648836D01*
X993257Y648836D01*
G37*
%LPD*%
%LPC*%
G36*
X1018657Y648836D02*
X1018657Y648836D01*
X1015436Y650170D01*
X1012970Y652636D01*
X1011636Y655857D01*
X1011636Y659343D01*
X1012970Y662564D01*
X1015436Y665030D01*
X1018657Y666364D01*
X1022143Y666364D01*
X1025364Y665030D01*
X1027830Y662564D01*
X1029164Y659343D01*
X1029164Y655857D01*
X1027830Y652636D01*
X1025364Y650170D01*
X1022143Y648836D01*
X1018657Y648836D01*
G37*
%LPD*%
%LPC*%
G36*
X1348857Y648836D02*
X1348857Y648836D01*
X1345636Y650170D01*
X1343170Y652636D01*
X1341836Y655857D01*
X1341836Y659343D01*
X1343170Y662564D01*
X1345636Y665030D01*
X1348857Y666364D01*
X1352343Y666364D01*
X1355564Y665030D01*
X1358030Y662564D01*
X1359364Y659343D01*
X1359364Y655857D01*
X1358030Y652636D01*
X1355564Y650170D01*
X1352343Y648836D01*
X1348857Y648836D01*
G37*
%LPD*%
%LPC*%
G36*
X1374257Y648836D02*
X1374257Y648836D01*
X1371036Y650170D01*
X1368570Y652636D01*
X1367236Y655857D01*
X1367236Y659343D01*
X1368570Y662564D01*
X1371036Y665030D01*
X1374257Y666364D01*
X1377743Y666364D01*
X1380964Y665030D01*
X1383430Y662564D01*
X1384764Y659343D01*
X1384764Y655857D01*
X1383430Y652636D01*
X1380964Y650170D01*
X1377743Y648836D01*
X1374257Y648836D01*
G37*
%LPD*%
%LPC*%
G36*
X1399657Y648836D02*
X1399657Y648836D01*
X1396436Y650170D01*
X1393970Y652636D01*
X1392636Y655857D01*
X1392636Y659343D01*
X1393970Y662564D01*
X1396436Y665030D01*
X1399657Y666364D01*
X1403143Y666364D01*
X1406364Y665030D01*
X1408830Y662564D01*
X1410164Y659343D01*
X1410164Y655857D01*
X1408830Y652636D01*
X1406364Y650170D01*
X1403143Y648836D01*
X1399657Y648836D01*
G37*
%LPD*%
%LPC*%
G36*
X1247257Y674236D02*
X1247257Y674236D01*
X1244036Y675570D01*
X1241570Y678036D01*
X1240236Y681257D01*
X1240236Y684743D01*
X1241570Y687964D01*
X1244036Y690430D01*
X1247257Y691764D01*
X1250743Y691764D01*
X1253964Y690430D01*
X1256430Y687964D01*
X1257764Y684743D01*
X1257764Y681257D01*
X1256430Y678036D01*
X1253964Y675570D01*
X1250743Y674236D01*
X1247257Y674236D01*
G37*
%LPD*%
%LPC*%
G36*
X1374257Y420236D02*
X1374257Y420236D01*
X1371036Y421570D01*
X1368570Y424036D01*
X1367236Y427257D01*
X1367236Y430743D01*
X1368570Y433964D01*
X1371036Y436430D01*
X1374257Y437764D01*
X1377743Y437764D01*
X1380964Y436430D01*
X1383430Y433964D01*
X1384764Y430743D01*
X1384764Y427257D01*
X1383430Y424036D01*
X1380964Y421570D01*
X1377743Y420236D01*
X1374257Y420236D01*
G37*
%LPD*%
%LPC*%
G36*
X1425057Y420236D02*
X1425057Y420236D01*
X1421836Y421570D01*
X1419370Y424036D01*
X1418036Y427257D01*
X1418036Y430743D01*
X1419370Y433964D01*
X1421836Y436430D01*
X1425057Y437764D01*
X1428543Y437764D01*
X1431764Y436430D01*
X1434230Y433964D01*
X1435564Y430743D01*
X1435564Y427257D01*
X1434230Y424036D01*
X1431764Y421570D01*
X1428543Y420236D01*
X1425057Y420236D01*
G37*
%LPD*%
%LPC*%
G36*
X1399657Y420236D02*
X1399657Y420236D01*
X1396436Y421570D01*
X1393970Y424036D01*
X1392636Y427257D01*
X1392636Y430743D01*
X1393970Y433964D01*
X1396436Y436430D01*
X1399657Y437764D01*
X1403143Y437764D01*
X1406364Y436430D01*
X1408830Y433964D01*
X1410164Y430743D01*
X1410164Y427257D01*
X1408830Y424036D01*
X1406364Y421570D01*
X1403143Y420236D01*
X1399657Y420236D01*
G37*
%LPD*%
%LPC*%
G36*
X1069457Y420236D02*
X1069457Y420236D01*
X1066236Y421570D01*
X1063770Y424036D01*
X1062436Y427257D01*
X1062436Y430743D01*
X1063770Y433964D01*
X1066236Y436430D01*
X1069457Y437764D01*
X1072943Y437764D01*
X1076164Y436430D01*
X1078630Y433964D01*
X1079964Y430743D01*
X1079964Y427257D01*
X1078630Y424036D01*
X1076164Y421570D01*
X1072943Y420236D01*
X1069457Y420236D01*
G37*
%LPD*%
%LPC*%
G36*
X1348857Y420236D02*
X1348857Y420236D01*
X1345636Y421570D01*
X1343170Y424036D01*
X1341836Y427257D01*
X1341836Y430743D01*
X1343170Y433964D01*
X1345636Y436430D01*
X1348857Y437764D01*
X1352343Y437764D01*
X1355564Y436430D01*
X1358030Y433964D01*
X1359364Y430743D01*
X1359364Y427257D01*
X1358030Y424036D01*
X1355564Y421570D01*
X1352343Y420236D01*
X1348857Y420236D01*
G37*
%LPD*%
%LPC*%
G36*
X1323457Y420236D02*
X1323457Y420236D01*
X1320236Y421570D01*
X1317770Y424036D01*
X1316436Y427257D01*
X1316436Y430743D01*
X1317770Y433964D01*
X1320236Y436430D01*
X1323457Y437764D01*
X1326943Y437764D01*
X1330164Y436430D01*
X1332630Y433964D01*
X1333964Y430743D01*
X1333964Y427257D01*
X1332630Y424036D01*
X1330164Y421570D01*
X1326943Y420236D01*
X1323457Y420236D01*
G37*
%LPD*%
%LPC*%
G36*
X1298057Y420236D02*
X1298057Y420236D01*
X1294836Y421570D01*
X1292370Y424036D01*
X1291036Y427257D01*
X1291036Y430743D01*
X1292370Y433964D01*
X1294836Y436430D01*
X1298057Y437764D01*
X1301543Y437764D01*
X1304764Y436430D01*
X1307230Y433964D01*
X1308564Y430743D01*
X1308564Y427257D01*
X1307230Y424036D01*
X1304764Y421570D01*
X1301543Y420236D01*
X1298057Y420236D01*
G37*
%LPD*%
%LPC*%
G36*
X1247257Y420236D02*
X1247257Y420236D01*
X1244036Y421570D01*
X1241570Y424036D01*
X1240236Y427257D01*
X1240236Y430743D01*
X1241570Y433964D01*
X1244036Y436430D01*
X1247257Y437764D01*
X1250743Y437764D01*
X1253964Y436430D01*
X1256430Y433964D01*
X1257764Y430743D01*
X1257764Y427257D01*
X1256430Y424036D01*
X1253964Y421570D01*
X1250743Y420236D01*
X1247257Y420236D01*
G37*
%LPD*%
%LPC*%
G36*
X1196457Y420236D02*
X1196457Y420236D01*
X1193236Y421570D01*
X1190770Y424036D01*
X1189436Y427257D01*
X1189436Y430743D01*
X1190770Y433964D01*
X1193236Y436430D01*
X1196457Y437764D01*
X1199943Y437764D01*
X1203164Y436430D01*
X1205630Y433964D01*
X1206964Y430743D01*
X1206964Y427257D01*
X1205630Y424036D01*
X1203164Y421570D01*
X1199943Y420236D01*
X1196457Y420236D01*
G37*
%LPD*%
%LPC*%
G36*
X1171057Y420236D02*
X1171057Y420236D01*
X1167836Y421570D01*
X1165370Y424036D01*
X1164036Y427257D01*
X1164036Y430743D01*
X1165370Y433964D01*
X1167836Y436430D01*
X1171057Y437764D01*
X1174543Y437764D01*
X1177764Y436430D01*
X1180230Y433964D01*
X1181564Y430743D01*
X1181564Y427257D01*
X1180230Y424036D01*
X1177764Y421570D01*
X1174543Y420236D01*
X1171057Y420236D01*
G37*
%LPD*%
%LPC*%
G36*
X1145657Y420236D02*
X1145657Y420236D01*
X1142436Y421570D01*
X1139970Y424036D01*
X1138636Y427257D01*
X1138636Y430743D01*
X1139970Y433964D01*
X1142436Y436430D01*
X1145657Y437764D01*
X1149143Y437764D01*
X1152364Y436430D01*
X1154830Y433964D01*
X1156164Y430743D01*
X1156164Y427257D01*
X1154830Y424036D01*
X1152364Y421570D01*
X1149143Y420236D01*
X1145657Y420236D01*
G37*
%LPD*%
%LPC*%
G36*
X1120257Y420236D02*
X1120257Y420236D01*
X1117036Y421570D01*
X1114570Y424036D01*
X1113236Y427257D01*
X1113236Y430743D01*
X1114570Y433964D01*
X1117036Y436430D01*
X1120257Y437764D01*
X1123743Y437764D01*
X1126964Y436430D01*
X1129430Y433964D01*
X1130764Y430743D01*
X1130764Y427257D01*
X1129430Y424036D01*
X1126964Y421570D01*
X1123743Y420236D01*
X1120257Y420236D01*
G37*
%LPD*%
%LPC*%
G36*
X1094857Y420236D02*
X1094857Y420236D01*
X1091636Y421570D01*
X1089170Y424036D01*
X1087836Y427257D01*
X1087836Y430743D01*
X1089170Y433964D01*
X1091636Y436430D01*
X1094857Y437764D01*
X1098343Y437764D01*
X1101564Y436430D01*
X1104030Y433964D01*
X1105364Y430743D01*
X1105364Y427257D01*
X1104030Y424036D01*
X1101564Y421570D01*
X1098343Y420236D01*
X1094857Y420236D01*
G37*
%LPD*%
%LPC*%
G36*
X1018657Y420236D02*
X1018657Y420236D01*
X1015436Y421570D01*
X1012970Y424036D01*
X1011636Y427257D01*
X1011636Y430743D01*
X1012970Y433964D01*
X1015436Y436430D01*
X1018657Y437764D01*
X1022143Y437764D01*
X1025364Y436430D01*
X1027830Y433964D01*
X1029164Y430743D01*
X1029164Y427257D01*
X1027830Y424036D01*
X1025364Y421570D01*
X1022143Y420236D01*
X1018657Y420236D01*
G37*
%LPD*%
%LPC*%
G36*
X993257Y420236D02*
X993257Y420236D01*
X990036Y421570D01*
X987570Y424036D01*
X986236Y427257D01*
X986236Y430743D01*
X987570Y433964D01*
X990036Y436430D01*
X993257Y437764D01*
X996743Y437764D01*
X999964Y436430D01*
X1002430Y433964D01*
X1003764Y430743D01*
X1003764Y427257D01*
X1002430Y424036D01*
X999964Y421570D01*
X996743Y420236D01*
X993257Y420236D01*
G37*
%LPD*%
%LPC*%
G36*
X1069457Y394836D02*
X1069457Y394836D01*
X1066236Y396170D01*
X1063770Y398636D01*
X1062436Y401857D01*
X1062436Y405343D01*
X1063770Y408564D01*
X1066236Y411030D01*
X1069457Y412364D01*
X1072943Y412364D01*
X1076164Y411030D01*
X1078630Y408564D01*
X1079964Y405343D01*
X1079964Y401857D01*
X1078630Y398636D01*
X1076164Y396170D01*
X1072943Y394836D01*
X1069457Y394836D01*
G37*
%LPD*%
%LPC*%
G36*
X993257Y394836D02*
X993257Y394836D01*
X990036Y396170D01*
X987570Y398636D01*
X986236Y401857D01*
X986236Y405343D01*
X987570Y408564D01*
X990036Y411030D01*
X993257Y412364D01*
X996743Y412364D01*
X999964Y411030D01*
X1002430Y408564D01*
X1003764Y405343D01*
X1003764Y401857D01*
X1002430Y398636D01*
X999964Y396170D01*
X996743Y394836D01*
X993257Y394836D01*
G37*
%LPD*%
%LPC*%
G36*
X1425057Y394836D02*
X1425057Y394836D01*
X1421836Y396170D01*
X1419370Y398636D01*
X1418036Y401857D01*
X1418036Y405343D01*
X1419370Y408564D01*
X1421836Y411030D01*
X1425057Y412364D01*
X1428543Y412364D01*
X1431764Y411030D01*
X1434230Y408564D01*
X1435564Y405343D01*
X1435564Y401857D01*
X1434230Y398636D01*
X1431764Y396170D01*
X1428543Y394836D01*
X1425057Y394836D01*
G37*
%LPD*%
%LPC*%
G36*
X1374257Y394836D02*
X1374257Y394836D01*
X1371036Y396170D01*
X1368570Y398636D01*
X1367236Y401857D01*
X1367236Y405343D01*
X1368570Y408564D01*
X1371036Y411030D01*
X1374257Y412364D01*
X1377743Y412364D01*
X1380964Y411030D01*
X1383430Y408564D01*
X1384764Y405343D01*
X1384764Y401857D01*
X1383430Y398636D01*
X1380964Y396170D01*
X1377743Y394836D01*
X1374257Y394836D01*
G37*
%LPD*%
%LPC*%
G36*
X1348857Y394836D02*
X1348857Y394836D01*
X1345636Y396170D01*
X1343170Y398636D01*
X1341836Y401857D01*
X1341836Y405343D01*
X1343170Y408564D01*
X1345636Y411030D01*
X1348857Y412364D01*
X1352343Y412364D01*
X1355564Y411030D01*
X1358030Y408564D01*
X1359364Y405343D01*
X1359364Y401857D01*
X1358030Y398636D01*
X1355564Y396170D01*
X1352343Y394836D01*
X1348857Y394836D01*
G37*
%LPD*%
%LPC*%
G36*
X1323457Y394836D02*
X1323457Y394836D01*
X1320236Y396170D01*
X1317770Y398636D01*
X1316436Y401857D01*
X1316436Y405343D01*
X1317770Y408564D01*
X1320236Y411030D01*
X1323457Y412364D01*
X1326943Y412364D01*
X1330164Y411030D01*
X1332630Y408564D01*
X1333964Y405343D01*
X1333964Y401857D01*
X1332630Y398636D01*
X1330164Y396170D01*
X1326943Y394836D01*
X1323457Y394836D01*
G37*
%LPD*%
%LPC*%
G36*
X1298057Y394836D02*
X1298057Y394836D01*
X1294836Y396170D01*
X1292370Y398636D01*
X1291036Y401857D01*
X1291036Y405343D01*
X1292370Y408564D01*
X1294836Y411030D01*
X1298057Y412364D01*
X1301543Y412364D01*
X1304764Y411030D01*
X1307230Y408564D01*
X1308564Y405343D01*
X1308564Y401857D01*
X1307230Y398636D01*
X1304764Y396170D01*
X1301543Y394836D01*
X1298057Y394836D01*
G37*
%LPD*%
%LPC*%
G36*
X776001Y284059D02*
X776001Y284059D01*
X773045Y285283D01*
X770783Y287545D01*
X769559Y290501D01*
X769559Y293699D01*
X770783Y296655D01*
X773045Y298917D01*
X776001Y300141D01*
X779199Y300141D01*
X782155Y298917D01*
X784417Y296655D01*
X785641Y293699D01*
X785641Y290501D01*
X784417Y287545D01*
X782155Y285283D01*
X779199Y284059D01*
X776001Y284059D01*
G37*
%LPD*%
%LPC*%
G36*
X821001Y284059D02*
X821001Y284059D01*
X818045Y285283D01*
X815783Y287545D01*
X814559Y290501D01*
X814559Y293699D01*
X815783Y296655D01*
X818045Y298917D01*
X821001Y300141D01*
X824199Y300141D01*
X827155Y298917D01*
X829417Y296655D01*
X830641Y293699D01*
X830641Y290501D01*
X829417Y287545D01*
X827155Y285283D01*
X824199Y284059D01*
X821001Y284059D01*
G37*
%LPD*%
%LPC*%
G36*
X490378Y897381D02*
X490378Y897381D01*
X488324Y898232D01*
X486752Y899804D01*
X485901Y901858D01*
X485901Y904082D01*
X486752Y906136D01*
X488324Y907708D01*
X490378Y908559D01*
X492602Y908559D01*
X494656Y907708D01*
X496228Y906136D01*
X497079Y904082D01*
X497079Y901858D01*
X496228Y899804D01*
X494656Y898232D01*
X492602Y897381D01*
X490378Y897381D01*
G37*
%LPD*%
%LPC*%
G36*
X849788Y642111D02*
X849788Y642111D01*
X847734Y642962D01*
X846162Y644534D01*
X845311Y646588D01*
X845311Y648812D01*
X846162Y650866D01*
X847734Y652438D01*
X849788Y653289D01*
X852012Y653289D01*
X854066Y652438D01*
X855638Y650866D01*
X856489Y648812D01*
X856489Y646588D01*
X855638Y644534D01*
X854066Y642962D01*
X852012Y642111D01*
X849788Y642111D01*
G37*
%LPD*%
%LPC*%
G36*
X290988Y697991D02*
X290988Y697991D01*
X288934Y698842D01*
X287362Y700414D01*
X286511Y702468D01*
X286511Y704692D01*
X287362Y706746D01*
X288934Y708318D01*
X290988Y709169D01*
X293212Y709169D01*
X295266Y708318D01*
X296838Y706746D01*
X297689Y704692D01*
X297689Y702468D01*
X296838Y700414D01*
X295266Y698842D01*
X293212Y697991D01*
X290988Y697991D01*
G37*
%LPD*%
%LPC*%
G36*
X1370488Y883411D02*
X1370488Y883411D01*
X1368434Y884262D01*
X1366862Y885834D01*
X1366011Y887888D01*
X1366011Y890112D01*
X1366862Y892166D01*
X1368434Y893738D01*
X1370488Y894589D01*
X1372712Y894589D01*
X1374766Y893738D01*
X1376338Y892166D01*
X1377189Y890112D01*
X1377189Y887888D01*
X1376338Y885834D01*
X1374766Y884262D01*
X1372712Y883411D01*
X1370488Y883411D01*
G37*
%LPD*%
%LPC*%
G36*
X527208Y649731D02*
X527208Y649731D01*
X525154Y650582D01*
X523582Y652154D01*
X522731Y654208D01*
X522731Y656432D01*
X523582Y658486D01*
X525154Y660058D01*
X527208Y660909D01*
X529432Y660909D01*
X531486Y660058D01*
X533058Y658486D01*
X533909Y656432D01*
X533909Y654208D01*
X533058Y652154D01*
X531486Y650582D01*
X529432Y649731D01*
X527208Y649731D01*
G37*
%LPD*%
%LPC*%
G36*
X537368Y659891D02*
X537368Y659891D01*
X535314Y660742D01*
X533742Y662314D01*
X532891Y664368D01*
X532891Y666592D01*
X533742Y668646D01*
X535314Y670218D01*
X537368Y671069D01*
X539592Y671069D01*
X541646Y670218D01*
X543218Y668646D01*
X544069Y666592D01*
X544069Y664368D01*
X543218Y662314D01*
X541646Y660742D01*
X539592Y659891D01*
X537368Y659891D01*
G37*
%LPD*%
%LPC*%
G36*
X514508Y836421D02*
X514508Y836421D01*
X512454Y837272D01*
X510882Y838844D01*
X510031Y840898D01*
X510031Y843122D01*
X510882Y845176D01*
X512454Y846748D01*
X514508Y847599D01*
X516732Y847599D01*
X518786Y846748D01*
X520358Y845176D01*
X521209Y843122D01*
X521209Y840898D01*
X520358Y838844D01*
X518786Y837272D01*
X516732Y836421D01*
X514508Y836421D01*
G37*
%LPD*%
%LPC*%
G36*
X532288Y868171D02*
X532288Y868171D01*
X530234Y869022D01*
X528662Y870594D01*
X527811Y872648D01*
X527811Y874872D01*
X528662Y876926D01*
X530234Y878498D01*
X532288Y879349D01*
X534512Y879349D01*
X536566Y878498D01*
X538138Y876926D01*
X538989Y874872D01*
X538989Y872648D01*
X538138Y870594D01*
X536566Y869022D01*
X534512Y868171D01*
X532288Y868171D01*
G37*
%LPD*%
%LPC*%
G36*
X1370488Y832611D02*
X1370488Y832611D01*
X1368434Y833462D01*
X1366862Y835034D01*
X1366011Y837088D01*
X1366011Y839312D01*
X1366862Y841366D01*
X1368434Y842938D01*
X1370488Y843789D01*
X1372712Y843789D01*
X1374766Y842938D01*
X1376338Y841366D01*
X1377189Y839312D01*
X1377189Y837088D01*
X1376338Y835034D01*
X1374766Y833462D01*
X1372712Y832611D01*
X1370488Y832611D01*
G37*
%LPD*%
%LPC*%
G36*
X558958Y824991D02*
X558958Y824991D01*
X556904Y825842D01*
X555332Y827414D01*
X554481Y829468D01*
X554481Y831692D01*
X555332Y833746D01*
X556904Y835318D01*
X558958Y836169D01*
X561182Y836169D01*
X563236Y835318D01*
X564808Y833746D01*
X565659Y831692D01*
X565659Y829468D01*
X564808Y827414D01*
X563236Y825842D01*
X561182Y824991D01*
X558958Y824991D01*
G37*
%LPD*%
%LPC*%
G36*
X1352708Y793241D02*
X1352708Y793241D01*
X1350654Y794092D01*
X1349082Y795664D01*
X1348231Y797718D01*
X1348231Y799942D01*
X1349082Y801996D01*
X1350654Y803568D01*
X1352708Y804419D01*
X1354932Y804419D01*
X1356986Y803568D01*
X1358558Y801996D01*
X1359409Y799942D01*
X1359409Y797718D01*
X1358558Y795664D01*
X1356986Y794092D01*
X1354932Y793241D01*
X1352708Y793241D01*
G37*
%LPD*%
%LPC*%
G36*
X525938Y767841D02*
X525938Y767841D01*
X523884Y768692D01*
X522312Y770264D01*
X521461Y772318D01*
X521461Y774542D01*
X522312Y776596D01*
X523884Y778168D01*
X525938Y779019D01*
X528162Y779019D01*
X530216Y778168D01*
X531788Y776596D01*
X532639Y774542D01*
X532639Y772318D01*
X531788Y770264D01*
X530216Y768692D01*
X528162Y767841D01*
X525938Y767841D01*
G37*
%LPD*%
%LPC*%
G36*
X151288Y413511D02*
X151288Y413511D01*
X149234Y414362D01*
X147662Y415934D01*
X146811Y417988D01*
X146811Y420212D01*
X147662Y422266D01*
X149234Y423838D01*
X151288Y424689D01*
X153512Y424689D01*
X155566Y423838D01*
X157138Y422266D01*
X157989Y420212D01*
X157989Y417988D01*
X157138Y415934D01*
X155566Y414362D01*
X153512Y413511D01*
X151288Y413511D01*
G37*
%LPD*%
%LPC*%
G36*
X514508Y715771D02*
X514508Y715771D01*
X512454Y716622D01*
X510882Y718194D01*
X510031Y720248D01*
X510031Y722472D01*
X510882Y724526D01*
X512454Y726098D01*
X514508Y726949D01*
X516732Y726949D01*
X518786Y726098D01*
X520358Y724526D01*
X521209Y722472D01*
X521209Y720248D01*
X520358Y718194D01*
X518786Y716622D01*
X516732Y715771D01*
X514508Y715771D01*
G37*
%LPD*%
%LPC*%
G36*
X289718Y501141D02*
X289718Y501141D01*
X287664Y501992D01*
X286092Y503564D01*
X285241Y505618D01*
X285241Y507842D01*
X286092Y509896D01*
X287664Y511468D01*
X289718Y512319D01*
X291942Y512319D01*
X293996Y511468D01*
X295568Y509896D01*
X296419Y507842D01*
X296419Y505618D01*
X295568Y503564D01*
X293996Y501992D01*
X291942Y501141D01*
X289718Y501141D01*
G37*
%LPD*%
%LPC*%
G36*
X306228Y466851D02*
X306228Y466851D01*
X304174Y467702D01*
X302602Y469274D01*
X301751Y471328D01*
X301751Y473552D01*
X302602Y475606D01*
X304174Y477178D01*
X306228Y478029D01*
X308452Y478029D01*
X310506Y477178D01*
X312078Y475606D01*
X312929Y473552D01*
X312929Y471328D01*
X312078Y469274D01*
X310506Y467702D01*
X308452Y466851D01*
X306228Y466851D01*
G37*
%LPD*%
%LPC*%
G36*
X242728Y578611D02*
X242728Y578611D01*
X240674Y579462D01*
X239102Y581034D01*
X238251Y583088D01*
X238251Y585312D01*
X239102Y587366D01*
X240674Y588938D01*
X242728Y589789D01*
X244952Y589789D01*
X247006Y588938D01*
X248578Y587366D01*
X249429Y585312D01*
X249429Y583088D01*
X248578Y581034D01*
X247006Y579462D01*
X244952Y578611D01*
X242728Y578611D01*
G37*
%LPD*%
%LPC*%
G36*
X1159668Y562101D02*
X1159668Y562101D01*
X1157614Y562952D01*
X1156042Y564524D01*
X1155191Y566578D01*
X1155191Y568802D01*
X1156042Y570856D01*
X1157614Y572428D01*
X1159668Y573279D01*
X1161892Y573279D01*
X1163946Y572428D01*
X1165518Y570856D01*
X1166369Y568802D01*
X1166369Y566578D01*
X1165518Y564524D01*
X1163946Y562952D01*
X1161892Y562101D01*
X1159668Y562101D01*
G37*
%LPD*%
%LPC*%
G36*
X1197768Y565911D02*
X1197768Y565911D01*
X1195714Y566762D01*
X1194142Y568334D01*
X1193291Y570388D01*
X1193291Y572612D01*
X1194142Y574666D01*
X1195714Y576238D01*
X1197768Y577089D01*
X1199992Y577089D01*
X1202046Y576238D01*
X1203618Y574666D01*
X1204469Y572612D01*
X1204469Y570388D01*
X1203618Y568334D01*
X1202046Y566762D01*
X1199992Y565911D01*
X1197768Y565911D01*
G37*
%LPD*%
%LPC*%
G36*
X379888Y540511D02*
X379888Y540511D01*
X377834Y541362D01*
X376262Y542934D01*
X375411Y544988D01*
X375411Y547212D01*
X376262Y549266D01*
X377834Y550838D01*
X379888Y551689D01*
X382112Y551689D01*
X384166Y550838D01*
X385738Y549266D01*
X386589Y547212D01*
X386589Y544988D01*
X385738Y542934D01*
X384166Y541362D01*
X382112Y540511D01*
X379888Y540511D01*
G37*
%LPD*%
%LPC*%
G36*
X532288Y743711D02*
X532288Y743711D01*
X530234Y744562D01*
X528662Y746134D01*
X527811Y748188D01*
X527811Y750412D01*
X528662Y752466D01*
X530234Y754038D01*
X532288Y754889D01*
X534512Y754889D01*
X536566Y754038D01*
X538138Y752466D01*
X538989Y750412D01*
X538989Y748188D01*
X538138Y746134D01*
X536566Y744562D01*
X534512Y743711D01*
X532288Y743711D01*
G37*
%LPD*%
%LPC*%
G36*
X760888Y642111D02*
X760888Y642111D01*
X758834Y642962D01*
X757262Y644534D01*
X756411Y646588D01*
X756411Y648812D01*
X757262Y650866D01*
X758834Y652438D01*
X760888Y653289D01*
X763112Y653289D01*
X765166Y652438D01*
X766738Y650866D01*
X767589Y648812D01*
X767589Y646588D01*
X766738Y644534D01*
X765166Y642962D01*
X763112Y642111D01*
X760888Y642111D01*
G37*
%LPD*%
%LPC*%
G36*
X671988Y756411D02*
X671988Y756411D01*
X669934Y757262D01*
X668362Y758834D01*
X667511Y760888D01*
X667511Y763112D01*
X668362Y765166D01*
X669934Y766738D01*
X671988Y767589D01*
X674212Y767589D01*
X676266Y766738D01*
X677838Y765166D01*
X678689Y763112D01*
X678689Y760888D01*
X677838Y758834D01*
X676266Y757262D01*
X674212Y756411D01*
X671988Y756411D01*
G37*
%LPD*%
%LPC*%
G36*
X316388Y83311D02*
X316388Y83311D01*
X314334Y84162D01*
X312762Y85734D01*
X311911Y87788D01*
X311911Y90012D01*
X312762Y92066D01*
X314334Y93638D01*
X316388Y94489D01*
X318612Y94489D01*
X320666Y93638D01*
X322238Y92066D01*
X323089Y90012D01*
X323089Y87788D01*
X322238Y85734D01*
X320666Y84162D01*
X318612Y83311D01*
X316388Y83311D01*
G37*
%LPD*%
%LPC*%
G36*
X49688Y83311D02*
X49688Y83311D01*
X47634Y84162D01*
X46062Y85734D01*
X45211Y87788D01*
X45211Y90012D01*
X46062Y92066D01*
X47634Y93638D01*
X49688Y94489D01*
X51912Y94489D01*
X53966Y93638D01*
X55538Y92066D01*
X56389Y90012D01*
X56389Y87788D01*
X55538Y85734D01*
X53966Y84162D01*
X51912Y83311D01*
X49688Y83311D01*
G37*
%LPD*%
%LPC*%
G36*
X541178Y767841D02*
X541178Y767841D01*
X539124Y768692D01*
X537552Y770264D01*
X536701Y772318D01*
X536701Y774542D01*
X537552Y776596D01*
X539124Y778168D01*
X541178Y779019D01*
X543402Y779019D01*
X545456Y778168D01*
X547028Y776596D01*
X547879Y774542D01*
X547879Y772318D01*
X547028Y770264D01*
X545456Y768692D01*
X543402Y767841D01*
X541178Y767841D01*
G37*
%LPD*%
%LPC*%
G36*
X202088Y413511D02*
X202088Y413511D01*
X200034Y414362D01*
X198462Y415934D01*
X197611Y417988D01*
X197611Y420212D01*
X198462Y422266D01*
X200034Y423838D01*
X202088Y424689D01*
X204312Y424689D01*
X206366Y423838D01*
X207938Y422266D01*
X208789Y420212D01*
X208789Y417988D01*
X207938Y415934D01*
X206366Y414362D01*
X204312Y413511D01*
X202088Y413511D01*
G37*
%LPD*%
%LPC*%
G36*
X49688Y413511D02*
X49688Y413511D01*
X47634Y414362D01*
X46062Y415934D01*
X45211Y417988D01*
X45211Y420212D01*
X46062Y422266D01*
X47634Y423838D01*
X49688Y424689D01*
X51912Y424689D01*
X53966Y423838D01*
X55538Y422266D01*
X56389Y420212D01*
X56389Y417988D01*
X55538Y415934D01*
X53966Y414362D01*
X51912Y413511D01*
X49688Y413511D01*
G37*
%LPD*%
%LPC*%
G36*
X316388Y413511D02*
X316388Y413511D01*
X314334Y414362D01*
X312762Y415934D01*
X311911Y417988D01*
X311911Y420212D01*
X312762Y422266D01*
X314334Y423838D01*
X316388Y424689D01*
X318612Y424689D01*
X320666Y423838D01*
X322238Y422266D01*
X323089Y420212D01*
X323089Y417988D01*
X322238Y415934D01*
X320666Y414362D01*
X318612Y413511D01*
X316388Y413511D01*
G37*
%LPD*%
%LPC*%
G36*
X275748Y582421D02*
X275748Y582421D01*
X273694Y583272D01*
X272122Y584844D01*
X271271Y586898D01*
X271271Y589122D01*
X272122Y591176D01*
X273694Y592748D01*
X275748Y593599D01*
X277972Y593599D01*
X280026Y592748D01*
X281598Y591176D01*
X282449Y589122D01*
X282449Y586898D01*
X281598Y584844D01*
X280026Y583272D01*
X277972Y582421D01*
X275748Y582421D01*
G37*
%LPD*%
%LPC*%
G36*
X537368Y587501D02*
X537368Y587501D01*
X535314Y588352D01*
X533742Y589924D01*
X532891Y591978D01*
X532891Y594202D01*
X533742Y596256D01*
X535314Y597828D01*
X537368Y598679D01*
X539592Y598679D01*
X541646Y597828D01*
X543218Y596256D01*
X544069Y594202D01*
X544069Y591978D01*
X543218Y589924D01*
X541646Y588352D01*
X539592Y587501D01*
X537368Y587501D01*
G37*
%LPD*%
%LPC*%
G36*
X684688Y642111D02*
X684688Y642111D01*
X682634Y642962D01*
X681062Y644534D01*
X680211Y646588D01*
X680211Y648812D01*
X681062Y650866D01*
X682634Y652438D01*
X684688Y653289D01*
X686912Y653289D01*
X688966Y652438D01*
X690538Y650866D01*
X691389Y648812D01*
X691389Y646588D01*
X690538Y644534D01*
X688966Y642962D01*
X686912Y642111D01*
X684688Y642111D01*
G37*
%LPD*%
%LPC*%
G36*
X798988Y642111D02*
X798988Y642111D01*
X796934Y642962D01*
X795362Y644534D01*
X794511Y646588D01*
X794511Y648812D01*
X795362Y650866D01*
X796934Y652438D01*
X798988Y653289D01*
X801212Y653289D01*
X803266Y652438D01*
X804838Y650866D01*
X805689Y648812D01*
X805689Y646588D01*
X804838Y644534D01*
X803266Y642962D01*
X801212Y642111D01*
X798988Y642111D01*
G37*
%LPD*%
%LPC*%
G36*
X252888Y413511D02*
X252888Y413511D01*
X250834Y414362D01*
X249262Y415934D01*
X248411Y417988D01*
X248411Y420212D01*
X249262Y422266D01*
X250834Y423838D01*
X252888Y424689D01*
X255112Y424689D01*
X257166Y423838D01*
X258738Y422266D01*
X259589Y420212D01*
X259589Y417988D01*
X258738Y415934D01*
X257166Y414362D01*
X255112Y413511D01*
X252888Y413511D01*
G37*
%LPD*%
%LPC*%
G36*
X824388Y642111D02*
X824388Y642111D01*
X822334Y642962D01*
X820762Y644534D01*
X819911Y646588D01*
X819911Y648812D01*
X820762Y650866D01*
X822334Y652438D01*
X824388Y653289D01*
X826612Y653289D01*
X828666Y652438D01*
X830238Y650866D01*
X831089Y648812D01*
X831089Y646588D01*
X830238Y644534D01*
X828666Y642962D01*
X826612Y642111D01*
X824388Y642111D01*
G37*
%LPD*%
%LPC*%
G36*
X875188Y642111D02*
X875188Y642111D01*
X873134Y642962D01*
X871562Y644534D01*
X870711Y646588D01*
X870711Y648812D01*
X871562Y650866D01*
X873134Y652438D01*
X875188Y653289D01*
X877412Y653289D01*
X879466Y652438D01*
X881038Y650866D01*
X881889Y648812D01*
X881889Y646588D01*
X881038Y644534D01*
X879466Y642962D01*
X877412Y642111D01*
X875188Y642111D01*
G37*
%LPD*%
%LPC*%
G36*
X150298Y523959D02*
X150298Y523959D01*
X148261Y524803D01*
X146703Y526361D01*
X145859Y528398D01*
X145859Y530602D01*
X146703Y532639D01*
X148261Y534197D01*
X150298Y535041D01*
X152502Y535041D01*
X154539Y534197D01*
X156097Y532639D01*
X156941Y530602D01*
X156941Y528398D01*
X156097Y526361D01*
X154539Y524803D01*
X152502Y523959D01*
X150298Y523959D01*
G37*
%LPD*%
%LPC*%
G36*
X354798Y523959D02*
X354798Y523959D01*
X352761Y524803D01*
X351203Y526361D01*
X350359Y528398D01*
X350359Y530602D01*
X351203Y532639D01*
X352761Y534197D01*
X354798Y535041D01*
X357002Y535041D01*
X359039Y534197D01*
X360597Y532639D01*
X361441Y530602D01*
X361441Y528398D01*
X360597Y526361D01*
X359039Y524803D01*
X357002Y523959D01*
X354798Y523959D01*
G37*
%LPD*%
%LPC*%
G36*
X891539Y891539D02*
X891539Y891539D01*
X891539Y898324D01*
X892705Y897946D01*
X894059Y897256D01*
X895288Y896363D01*
X896363Y895288D01*
X897256Y894059D01*
X897946Y892705D01*
X898324Y891539D01*
X891539Y891539D01*
G37*
%LPD*%
%LPC*%
G36*
X879676Y891539D02*
X879676Y891539D01*
X880054Y892705D01*
X880744Y894059D01*
X881637Y895288D01*
X882712Y896363D01*
X883941Y897256D01*
X885295Y897946D01*
X886461Y898324D01*
X886461Y891539D01*
X879676Y891539D01*
G37*
%LPD*%
%LPC*%
G36*
X891539Y886461D02*
X891539Y886461D01*
X898324Y886461D01*
X897946Y885295D01*
X897256Y883941D01*
X896363Y882712D01*
X895288Y881637D01*
X894059Y880744D01*
X892705Y880054D01*
X891539Y879676D01*
X891539Y886461D01*
G37*
%LPD*%
%LPC*%
G36*
X885295Y880054D02*
X885295Y880054D01*
X883941Y880744D01*
X882712Y881637D01*
X881637Y882712D01*
X880744Y883941D01*
X880054Y885295D01*
X879676Y886461D01*
X886461Y886461D01*
X886461Y879676D01*
X885295Y880054D01*
G37*
%LPD*%
%LPC*%
G36*
X1225822Y431222D02*
X1225822Y431222D01*
X1225822Y437493D01*
X1226156Y437427D01*
X1227751Y436766D01*
X1229187Y435807D01*
X1230407Y434587D01*
X1231366Y433151D01*
X1232027Y431556D01*
X1232093Y431222D01*
X1225822Y431222D01*
G37*
%LPD*%
%LPC*%
G36*
X1276622Y431222D02*
X1276622Y431222D01*
X1276622Y437493D01*
X1276956Y437427D01*
X1278551Y436766D01*
X1279987Y435807D01*
X1281207Y434587D01*
X1282166Y433151D01*
X1282827Y431556D01*
X1282893Y431222D01*
X1276622Y431222D01*
G37*
%LPD*%
%LPC*%
G36*
X1149622Y659822D02*
X1149622Y659822D01*
X1149622Y666093D01*
X1149956Y666027D01*
X1151551Y665366D01*
X1152987Y664407D01*
X1154207Y663187D01*
X1155166Y661751D01*
X1155827Y660156D01*
X1155893Y659822D01*
X1149622Y659822D01*
G37*
%LPD*%
%LPC*%
G36*
X1265907Y431222D02*
X1265907Y431222D01*
X1265973Y431556D01*
X1266634Y433151D01*
X1267593Y434587D01*
X1268813Y435807D01*
X1270249Y436766D01*
X1271844Y437427D01*
X1272178Y437493D01*
X1272178Y431222D01*
X1265907Y431222D01*
G37*
%LPD*%
%LPC*%
G36*
X1276622Y426778D02*
X1276622Y426778D01*
X1282893Y426778D01*
X1282827Y426444D01*
X1282166Y424849D01*
X1281207Y423413D01*
X1279987Y422193D01*
X1278551Y421234D01*
X1276956Y420573D01*
X1276622Y420507D01*
X1276622Y426778D01*
G37*
%LPD*%
%LPC*%
G36*
X1215107Y431222D02*
X1215107Y431222D01*
X1215173Y431556D01*
X1215834Y433151D01*
X1216793Y434587D01*
X1218013Y435807D01*
X1219449Y436766D01*
X1221044Y437427D01*
X1221378Y437493D01*
X1221378Y431222D01*
X1215107Y431222D01*
G37*
%LPD*%
%LPC*%
G36*
X1225822Y426778D02*
X1225822Y426778D01*
X1232093Y426778D01*
X1232027Y426444D01*
X1231366Y424849D01*
X1230407Y423413D01*
X1229187Y422193D01*
X1227751Y421234D01*
X1226156Y420573D01*
X1225822Y420507D01*
X1225822Y426778D01*
G37*
%LPD*%
%LPC*%
G36*
X1138907Y659822D02*
X1138907Y659822D01*
X1138973Y660156D01*
X1139634Y661751D01*
X1140593Y663187D01*
X1141813Y664407D01*
X1143249Y665366D01*
X1144844Y666027D01*
X1145178Y666093D01*
X1145178Y659822D01*
X1138907Y659822D01*
G37*
%LPD*%
%LPC*%
G36*
X1149622Y655378D02*
X1149622Y655378D01*
X1155893Y655378D01*
X1155827Y655044D01*
X1155166Y653449D01*
X1154207Y652013D01*
X1152987Y650793D01*
X1151551Y649834D01*
X1149956Y649173D01*
X1149622Y649107D01*
X1149622Y655378D01*
G37*
%LPD*%
%LPC*%
G36*
X1144844Y649173D02*
X1144844Y649173D01*
X1143249Y649834D01*
X1141813Y650793D01*
X1140593Y652013D01*
X1139634Y653449D01*
X1138973Y655044D01*
X1138907Y655378D01*
X1145178Y655378D01*
X1145178Y649107D01*
X1144844Y649173D01*
G37*
%LPD*%
%LPC*%
G36*
X1271844Y420573D02*
X1271844Y420573D01*
X1270249Y421234D01*
X1268813Y422193D01*
X1267593Y423413D01*
X1266634Y424849D01*
X1265973Y426444D01*
X1265907Y426778D01*
X1272178Y426778D01*
X1272178Y420507D01*
X1271844Y420573D01*
G37*
%LPD*%
%LPC*%
G36*
X1221044Y420573D02*
X1221044Y420573D01*
X1219449Y421234D01*
X1218013Y422193D01*
X1216793Y423413D01*
X1215834Y424849D01*
X1215173Y426444D01*
X1215107Y426778D01*
X1221378Y426778D01*
X1221378Y420507D01*
X1221044Y420573D01*
G37*
%LPD*%
%LPC*%
G36*
X888999Y888999D02*
X888999Y888999D01*
X888999Y889001D01*
X889001Y889001D01*
X889001Y888999D01*
X888999Y888999D01*
G37*
%LPD*%
D10*
X1426800Y403600D03*
X1426800Y429000D03*
X1401400Y403600D03*
X1401400Y429000D03*
X1376000Y403600D03*
X1376000Y429000D03*
X1350600Y403600D03*
X1350600Y429000D03*
X1325200Y403600D03*
X1325200Y429000D03*
X1299800Y403600D03*
X1299800Y429000D03*
X1274400Y403600D03*
X1274400Y429000D03*
X1249000Y403600D03*
X1249000Y429000D03*
X1223600Y403600D03*
X1223600Y429000D03*
X1198200Y403600D03*
X1198200Y429000D03*
X1172800Y403600D03*
X1172800Y429000D03*
X1147400Y403600D03*
X1147400Y429000D03*
X1122000Y403600D03*
X1122000Y429000D03*
X1096600Y403600D03*
X1096600Y429000D03*
X1071200Y403600D03*
X1071200Y429000D03*
X1045800Y403600D03*
X1045800Y429000D03*
X1020400Y403600D03*
X1020400Y429000D03*
X995000Y403600D03*
X995000Y429000D03*
X1426800Y657600D03*
X1426800Y683000D03*
X1401400Y657600D03*
X1401400Y683000D03*
X1376000Y657600D03*
X1376000Y683000D03*
X1350600Y657600D03*
X1350600Y683000D03*
X1325200Y657600D03*
X1325200Y683000D03*
X1299800Y657600D03*
X1299800Y683000D03*
X1274400Y657600D03*
X1274400Y683000D03*
X1249000Y657600D03*
X1249000Y683000D03*
X1223600Y657600D03*
X1223600Y683000D03*
X1198200Y657600D03*
X1198200Y683000D03*
X1172800Y657600D03*
X1172800Y683000D03*
X1147400Y657600D03*
X1147400Y683000D03*
X1122000Y657600D03*
X1122000Y683000D03*
X1096600Y657600D03*
X1096600Y683000D03*
X1071200Y657600D03*
X1071200Y683000D03*
X1045800Y657600D03*
X1045800Y683000D03*
X1020400Y657600D03*
X1020400Y683000D03*
X995000Y657600D03*
X995000Y683000D03*
D11*
X368700Y254000D03*
X393700Y254000D03*
X418700Y254000D03*
X140100Y254000D03*
X165100Y254000D03*
X190100Y254000D03*
D12*
X456200Y164700D03*
X456200Y114700D03*
X331200Y114700D03*
X331200Y164700D03*
X227600Y164700D03*
X227600Y114700D03*
X102600Y114700D03*
X102600Y164700D03*
D13*
X857100Y292100D03*
X743100Y292100D03*
D14*
X685800Y889000D03*
X711200Y889000D03*
X736600Y889000D03*
X762000Y889000D03*
X787400Y889000D03*
X812800Y889000D03*
X838200Y889000D03*
X863600Y889000D03*
X889000Y889000D03*
X914400Y889000D03*
D15*
X38100Y50800D03*
X1562100Y50800D03*
X1562100Y952500D03*
X38100Y952500D03*
D16*
X203200Y419100D03*
X317500Y419100D03*
X876300Y647700D03*
X825500Y647700D03*
X673100Y762000D03*
X533400Y749300D03*
X1371600Y889000D03*
X1371600Y838200D03*
X50800Y419100D03*
X1353820Y798830D03*
X266700Y88900D03*
X101600Y88900D03*
X254000Y419100D03*
X800100Y647700D03*
X850900Y647700D03*
X307340Y472440D03*
X528320Y655320D03*
X381000Y546100D03*
X685800Y647700D03*
X292100Y703580D03*
X491490Y902970D03*
X152400Y419100D03*
X527050Y773430D03*
X542290Y773430D03*
X762000Y647700D03*
X515620Y721360D03*
X515620Y842010D03*
X276860Y588010D03*
X243840Y584200D03*
X533400Y873760D03*
X538480Y665480D03*
X290830Y506730D03*
X538480Y593090D03*
X560070Y830580D03*
X1160780Y567690D03*
X1198880Y571500D03*
X50800Y88900D03*
X317500Y88900D03*
M02*
