G04 EAGLE Gerber RS-274X export*
G75*
%MOMM*%
%FSLAX34Y34*%
%LPD*%
%INSilkscreen Top*%
%IPPOS*%
%AMOC8*
5,1,8,0,0,1.08239X$1,22.5*%
G01*
%ADD10C,0.152400*%
%ADD11C,0.127000*%
%ADD12C,0.254000*%
%ADD13C,0.050800*%
%ADD14R,0.650000X1.400000*%

G36*
X1344205Y886376D02*
X1344205Y886376D01*
X1344305Y886375D01*
X1344319Y886379D01*
X1344331Y886379D01*
X1344374Y886397D01*
X1344484Y886433D01*
X1348484Y888433D01*
X1348519Y888459D01*
X1348560Y888478D01*
X1348609Y888526D01*
X1348663Y888567D01*
X1348688Y888604D01*
X1348719Y888636D01*
X1348748Y888698D01*
X1348785Y888755D01*
X1348795Y888799D01*
X1348814Y888839D01*
X1348819Y888908D01*
X1348834Y888974D01*
X1348828Y889019D01*
X1348831Y889063D01*
X1348812Y889129D01*
X1348803Y889197D01*
X1348782Y889236D01*
X1348770Y889279D01*
X1348729Y889334D01*
X1348697Y889394D01*
X1348663Y889424D01*
X1348637Y889460D01*
X1348566Y889509D01*
X1348528Y889543D01*
X1348507Y889551D01*
X1348484Y889567D01*
X1344484Y891567D01*
X1344388Y891595D01*
X1344294Y891627D01*
X1344281Y891627D01*
X1344268Y891631D01*
X1344169Y891624D01*
X1344069Y891621D01*
X1344058Y891616D01*
X1344045Y891615D01*
X1343954Y891574D01*
X1343862Y891536D01*
X1343852Y891528D01*
X1343840Y891522D01*
X1343769Y891452D01*
X1343696Y891385D01*
X1343690Y891374D01*
X1343681Y891364D01*
X1343639Y891274D01*
X1343593Y891185D01*
X1343591Y891171D01*
X1343586Y891161D01*
X1343583Y891114D01*
X1343566Y891000D01*
X1343566Y887000D01*
X1343583Y886902D01*
X1343597Y886803D01*
X1343603Y886792D01*
X1343605Y886779D01*
X1343656Y886693D01*
X1343703Y886606D01*
X1343713Y886597D01*
X1343720Y886586D01*
X1343797Y886523D01*
X1343872Y886457D01*
X1343884Y886453D01*
X1343894Y886445D01*
X1343988Y886413D01*
X1344081Y886377D01*
X1344094Y886377D01*
X1344106Y886373D01*
X1344205Y886376D01*
G37*
G36*
X1344205Y835576D02*
X1344205Y835576D01*
X1344305Y835575D01*
X1344319Y835579D01*
X1344331Y835579D01*
X1344374Y835597D01*
X1344484Y835633D01*
X1348484Y837633D01*
X1348519Y837659D01*
X1348560Y837678D01*
X1348609Y837726D01*
X1348663Y837767D01*
X1348688Y837804D01*
X1348719Y837836D01*
X1348748Y837898D01*
X1348785Y837955D01*
X1348795Y837999D01*
X1348814Y838039D01*
X1348819Y838108D01*
X1348834Y838174D01*
X1348828Y838219D01*
X1348831Y838263D01*
X1348812Y838329D01*
X1348803Y838397D01*
X1348782Y838436D01*
X1348770Y838479D01*
X1348729Y838534D01*
X1348697Y838594D01*
X1348663Y838624D01*
X1348637Y838660D01*
X1348566Y838709D01*
X1348528Y838743D01*
X1348507Y838751D01*
X1348484Y838767D01*
X1344484Y840767D01*
X1344388Y840795D01*
X1344294Y840827D01*
X1344281Y840827D01*
X1344268Y840831D01*
X1344169Y840824D01*
X1344069Y840821D01*
X1344058Y840816D01*
X1344045Y840815D01*
X1343954Y840774D01*
X1343862Y840736D01*
X1343852Y840728D01*
X1343840Y840722D01*
X1343769Y840652D01*
X1343696Y840585D01*
X1343690Y840574D01*
X1343681Y840564D01*
X1343639Y840474D01*
X1343593Y840385D01*
X1343591Y840371D01*
X1343586Y840361D01*
X1343583Y840314D01*
X1343566Y840200D01*
X1343566Y836200D01*
X1343583Y836102D01*
X1343597Y836003D01*
X1343603Y835992D01*
X1343605Y835979D01*
X1343656Y835893D01*
X1343703Y835806D01*
X1343713Y835797D01*
X1343720Y835786D01*
X1343797Y835723D01*
X1343872Y835657D01*
X1343884Y835653D01*
X1343894Y835645D01*
X1343988Y835613D01*
X1344081Y835577D01*
X1344094Y835577D01*
X1344106Y835573D01*
X1344205Y835576D01*
G37*
G36*
X1344205Y784776D02*
X1344205Y784776D01*
X1344305Y784775D01*
X1344319Y784779D01*
X1344331Y784779D01*
X1344374Y784797D01*
X1344484Y784833D01*
X1348484Y786833D01*
X1348519Y786859D01*
X1348560Y786878D01*
X1348609Y786926D01*
X1348663Y786967D01*
X1348688Y787004D01*
X1348719Y787036D01*
X1348748Y787098D01*
X1348785Y787155D01*
X1348795Y787199D01*
X1348814Y787239D01*
X1348819Y787308D01*
X1348834Y787374D01*
X1348828Y787419D01*
X1348831Y787463D01*
X1348812Y787529D01*
X1348803Y787597D01*
X1348782Y787636D01*
X1348770Y787679D01*
X1348729Y787734D01*
X1348697Y787794D01*
X1348663Y787824D01*
X1348637Y787860D01*
X1348566Y787909D01*
X1348528Y787943D01*
X1348507Y787951D01*
X1348484Y787967D01*
X1344484Y789967D01*
X1344388Y789995D01*
X1344294Y790027D01*
X1344281Y790027D01*
X1344268Y790031D01*
X1344169Y790024D01*
X1344069Y790021D01*
X1344058Y790016D01*
X1344045Y790015D01*
X1343954Y789974D01*
X1343862Y789936D01*
X1343852Y789928D01*
X1343840Y789922D01*
X1343769Y789852D01*
X1343696Y789785D01*
X1343690Y789774D01*
X1343681Y789764D01*
X1343639Y789674D01*
X1343593Y789585D01*
X1343591Y789571D01*
X1343586Y789561D01*
X1343583Y789514D01*
X1343566Y789400D01*
X1343566Y785400D01*
X1343583Y785302D01*
X1343597Y785203D01*
X1343603Y785192D01*
X1343605Y785179D01*
X1343656Y785093D01*
X1343703Y785006D01*
X1343713Y784997D01*
X1343720Y784986D01*
X1343797Y784923D01*
X1343872Y784857D01*
X1343884Y784853D01*
X1343894Y784845D01*
X1343988Y784813D01*
X1344081Y784777D01*
X1344094Y784777D01*
X1344106Y784773D01*
X1344205Y784776D01*
G37*
D10*
X1017637Y271272D02*
X1010412Y271272D01*
X1010412Y287528D01*
X1017637Y287528D01*
X1015831Y280303D02*
X1010412Y280303D01*
X1021972Y282109D02*
X1027391Y282109D01*
X1023778Y287528D02*
X1023778Y273981D01*
X1023779Y273981D02*
X1023781Y273880D01*
X1023787Y273779D01*
X1023796Y273678D01*
X1023809Y273577D01*
X1023826Y273477D01*
X1023847Y273378D01*
X1023871Y273280D01*
X1023899Y273183D01*
X1023931Y273086D01*
X1023966Y272991D01*
X1024005Y272898D01*
X1024047Y272806D01*
X1024093Y272715D01*
X1024142Y272627D01*
X1024194Y272540D01*
X1024250Y272455D01*
X1024308Y272372D01*
X1024370Y272292D01*
X1024435Y272214D01*
X1024502Y272138D01*
X1024572Y272065D01*
X1024645Y271995D01*
X1024721Y271928D01*
X1024799Y271863D01*
X1024879Y271801D01*
X1024962Y271743D01*
X1025047Y271687D01*
X1025134Y271635D01*
X1025222Y271586D01*
X1025313Y271540D01*
X1025405Y271498D01*
X1025498Y271459D01*
X1025593Y271424D01*
X1025690Y271392D01*
X1025787Y271364D01*
X1025885Y271340D01*
X1025984Y271319D01*
X1026084Y271302D01*
X1026185Y271289D01*
X1026286Y271280D01*
X1026387Y271274D01*
X1026488Y271272D01*
X1027391Y271272D01*
X1035896Y271272D02*
X1039508Y271272D01*
X1035896Y271272D02*
X1035795Y271274D01*
X1035694Y271280D01*
X1035593Y271289D01*
X1035492Y271302D01*
X1035392Y271319D01*
X1035293Y271340D01*
X1035195Y271364D01*
X1035098Y271392D01*
X1035001Y271424D01*
X1034906Y271459D01*
X1034813Y271498D01*
X1034721Y271540D01*
X1034630Y271586D01*
X1034542Y271635D01*
X1034455Y271687D01*
X1034370Y271743D01*
X1034287Y271801D01*
X1034207Y271863D01*
X1034129Y271928D01*
X1034053Y271995D01*
X1033980Y272065D01*
X1033910Y272138D01*
X1033843Y272214D01*
X1033778Y272292D01*
X1033716Y272372D01*
X1033658Y272455D01*
X1033602Y272540D01*
X1033550Y272627D01*
X1033501Y272715D01*
X1033455Y272806D01*
X1033413Y272898D01*
X1033374Y272991D01*
X1033339Y273086D01*
X1033307Y273183D01*
X1033279Y273280D01*
X1033255Y273378D01*
X1033234Y273477D01*
X1033217Y273577D01*
X1033204Y273678D01*
X1033195Y273779D01*
X1033189Y273880D01*
X1033187Y273981D01*
X1033187Y279400D01*
X1033189Y279501D01*
X1033195Y279602D01*
X1033204Y279703D01*
X1033217Y279804D01*
X1033234Y279904D01*
X1033255Y280003D01*
X1033279Y280101D01*
X1033307Y280198D01*
X1033339Y280295D01*
X1033374Y280390D01*
X1033413Y280483D01*
X1033455Y280575D01*
X1033501Y280666D01*
X1033550Y280755D01*
X1033602Y280841D01*
X1033658Y280926D01*
X1033716Y281009D01*
X1033778Y281089D01*
X1033843Y281167D01*
X1033910Y281243D01*
X1033980Y281316D01*
X1034053Y281386D01*
X1034129Y281453D01*
X1034207Y281518D01*
X1034287Y281580D01*
X1034370Y281638D01*
X1034455Y281694D01*
X1034542Y281746D01*
X1034630Y281795D01*
X1034721Y281841D01*
X1034813Y281883D01*
X1034906Y281922D01*
X1035001Y281957D01*
X1035098Y281989D01*
X1035195Y282017D01*
X1035293Y282041D01*
X1035392Y282062D01*
X1035492Y282079D01*
X1035593Y282092D01*
X1035694Y282101D01*
X1035795Y282107D01*
X1035896Y282109D01*
X1039508Y282109D01*
X1045674Y287528D02*
X1045674Y271272D01*
X1045674Y282109D02*
X1050190Y282109D01*
X1050294Y282107D01*
X1050397Y282101D01*
X1050501Y282091D01*
X1050604Y282077D01*
X1050706Y282059D01*
X1050807Y282038D01*
X1050908Y282012D01*
X1051007Y281983D01*
X1051106Y281950D01*
X1051203Y281913D01*
X1051298Y281872D01*
X1051392Y281828D01*
X1051484Y281780D01*
X1051574Y281729D01*
X1051663Y281674D01*
X1051749Y281616D01*
X1051832Y281554D01*
X1051914Y281490D01*
X1051992Y281422D01*
X1052068Y281352D01*
X1052142Y281279D01*
X1052212Y281202D01*
X1052280Y281124D01*
X1052344Y281042D01*
X1052406Y280959D01*
X1052464Y280873D01*
X1052519Y280784D01*
X1052570Y280694D01*
X1052618Y280602D01*
X1052662Y280508D01*
X1052703Y280413D01*
X1052740Y280316D01*
X1052773Y280217D01*
X1052802Y280118D01*
X1052828Y280017D01*
X1052849Y279916D01*
X1052867Y279814D01*
X1052881Y279711D01*
X1052891Y279607D01*
X1052897Y279504D01*
X1052899Y279400D01*
X1052899Y271272D01*
X1060020Y277594D02*
X1070857Y277594D01*
X1080545Y277594D02*
X1084609Y277594D01*
X1080545Y277594D02*
X1080433Y277592D01*
X1080322Y277586D01*
X1080211Y277576D01*
X1080100Y277563D01*
X1079990Y277545D01*
X1079881Y277523D01*
X1079772Y277498D01*
X1079664Y277469D01*
X1079558Y277436D01*
X1079452Y277399D01*
X1079348Y277359D01*
X1079246Y277315D01*
X1079145Y277267D01*
X1079046Y277216D01*
X1078948Y277161D01*
X1078853Y277103D01*
X1078760Y277042D01*
X1078669Y276977D01*
X1078580Y276909D01*
X1078494Y276838D01*
X1078411Y276765D01*
X1078330Y276688D01*
X1078251Y276608D01*
X1078176Y276526D01*
X1078104Y276441D01*
X1078034Y276354D01*
X1077968Y276264D01*
X1077905Y276172D01*
X1077845Y276077D01*
X1077789Y275981D01*
X1077736Y275883D01*
X1077687Y275783D01*
X1077641Y275681D01*
X1077599Y275578D01*
X1077560Y275473D01*
X1077525Y275367D01*
X1077494Y275260D01*
X1077467Y275152D01*
X1077443Y275043D01*
X1077424Y274933D01*
X1077408Y274823D01*
X1077396Y274712D01*
X1077388Y274600D01*
X1077384Y274489D01*
X1077384Y274377D01*
X1077388Y274266D01*
X1077396Y274154D01*
X1077408Y274043D01*
X1077424Y273933D01*
X1077443Y273823D01*
X1077467Y273714D01*
X1077494Y273606D01*
X1077525Y273499D01*
X1077560Y273393D01*
X1077599Y273288D01*
X1077641Y273185D01*
X1077687Y273083D01*
X1077736Y272983D01*
X1077789Y272885D01*
X1077845Y272789D01*
X1077905Y272694D01*
X1077968Y272602D01*
X1078034Y272512D01*
X1078104Y272425D01*
X1078176Y272340D01*
X1078251Y272258D01*
X1078330Y272178D01*
X1078411Y272101D01*
X1078494Y272028D01*
X1078580Y271957D01*
X1078669Y271889D01*
X1078760Y271824D01*
X1078853Y271763D01*
X1078948Y271705D01*
X1079046Y271650D01*
X1079145Y271599D01*
X1079246Y271551D01*
X1079348Y271507D01*
X1079452Y271467D01*
X1079558Y271430D01*
X1079664Y271397D01*
X1079772Y271368D01*
X1079881Y271343D01*
X1079990Y271321D01*
X1080100Y271303D01*
X1080211Y271290D01*
X1080322Y271280D01*
X1080433Y271274D01*
X1080545Y271272D01*
X1084609Y271272D01*
X1084609Y279400D01*
X1084607Y279501D01*
X1084601Y279602D01*
X1084592Y279703D01*
X1084579Y279804D01*
X1084562Y279904D01*
X1084541Y280003D01*
X1084517Y280101D01*
X1084489Y280198D01*
X1084457Y280295D01*
X1084422Y280390D01*
X1084383Y280483D01*
X1084341Y280575D01*
X1084295Y280666D01*
X1084246Y280755D01*
X1084194Y280841D01*
X1084138Y280926D01*
X1084080Y281009D01*
X1084018Y281089D01*
X1083953Y281167D01*
X1083886Y281243D01*
X1083816Y281316D01*
X1083743Y281386D01*
X1083667Y281453D01*
X1083589Y281518D01*
X1083509Y281580D01*
X1083426Y281638D01*
X1083341Y281694D01*
X1083255Y281746D01*
X1083166Y281795D01*
X1083075Y281841D01*
X1082983Y281883D01*
X1082890Y281922D01*
X1082795Y281957D01*
X1082698Y281989D01*
X1082601Y282017D01*
X1082503Y282041D01*
X1082404Y282062D01*
X1082304Y282079D01*
X1082203Y282092D01*
X1082102Y282101D01*
X1082001Y282107D01*
X1081900Y282109D01*
X1078287Y282109D01*
X1091804Y277594D02*
X1102641Y277594D01*
X1114278Y271272D02*
X1114396Y271274D01*
X1114514Y271280D01*
X1114632Y271289D01*
X1114749Y271303D01*
X1114866Y271320D01*
X1114983Y271341D01*
X1115098Y271366D01*
X1115213Y271395D01*
X1115327Y271428D01*
X1115439Y271464D01*
X1115550Y271504D01*
X1115660Y271547D01*
X1115769Y271594D01*
X1115876Y271644D01*
X1115981Y271699D01*
X1116084Y271756D01*
X1116185Y271817D01*
X1116285Y271881D01*
X1116382Y271948D01*
X1116477Y272018D01*
X1116569Y272092D01*
X1116660Y272168D01*
X1116747Y272248D01*
X1116832Y272330D01*
X1116914Y272415D01*
X1116994Y272502D01*
X1117070Y272593D01*
X1117144Y272685D01*
X1117214Y272780D01*
X1117281Y272877D01*
X1117345Y272977D01*
X1117406Y273078D01*
X1117463Y273181D01*
X1117518Y273286D01*
X1117568Y273393D01*
X1117615Y273502D01*
X1117658Y273612D01*
X1117698Y273723D01*
X1117734Y273835D01*
X1117767Y273949D01*
X1117796Y274064D01*
X1117821Y274179D01*
X1117842Y274296D01*
X1117859Y274413D01*
X1117873Y274530D01*
X1117882Y274648D01*
X1117888Y274766D01*
X1117890Y274884D01*
X1114278Y271272D02*
X1114095Y271274D01*
X1113913Y271281D01*
X1113731Y271292D01*
X1113549Y271307D01*
X1113367Y271327D01*
X1113186Y271350D01*
X1113006Y271379D01*
X1112826Y271411D01*
X1112647Y271448D01*
X1112470Y271489D01*
X1112293Y271535D01*
X1112117Y271584D01*
X1111943Y271638D01*
X1111769Y271696D01*
X1111598Y271758D01*
X1111428Y271824D01*
X1111259Y271895D01*
X1111092Y271969D01*
X1110927Y272047D01*
X1110764Y272129D01*
X1110603Y272215D01*
X1110444Y272305D01*
X1110287Y272399D01*
X1110133Y272496D01*
X1109981Y272597D01*
X1109831Y272702D01*
X1109684Y272810D01*
X1109540Y272921D01*
X1109398Y273036D01*
X1109259Y273155D01*
X1109123Y273277D01*
X1108990Y273402D01*
X1108860Y273530D01*
X1109311Y283916D02*
X1109313Y284034D01*
X1109319Y284152D01*
X1109328Y284270D01*
X1109342Y284387D01*
X1109359Y284504D01*
X1109380Y284621D01*
X1109405Y284736D01*
X1109434Y284851D01*
X1109467Y284965D01*
X1109503Y285077D01*
X1109543Y285188D01*
X1109586Y285298D01*
X1109633Y285407D01*
X1109683Y285514D01*
X1109738Y285619D01*
X1109795Y285722D01*
X1109856Y285823D01*
X1109920Y285923D01*
X1109987Y286020D01*
X1110057Y286115D01*
X1110131Y286207D01*
X1110207Y286298D01*
X1110287Y286385D01*
X1110369Y286470D01*
X1110454Y286552D01*
X1110541Y286632D01*
X1110632Y286708D01*
X1110724Y286782D01*
X1110819Y286852D01*
X1110916Y286919D01*
X1111016Y286983D01*
X1111117Y287044D01*
X1111220Y287102D01*
X1111325Y287156D01*
X1111432Y287206D01*
X1111541Y287253D01*
X1111651Y287297D01*
X1111762Y287336D01*
X1111875Y287372D01*
X1111988Y287405D01*
X1112103Y287434D01*
X1112218Y287459D01*
X1112335Y287480D01*
X1112452Y287497D01*
X1112569Y287511D01*
X1112687Y287520D01*
X1112805Y287526D01*
X1112923Y287528D01*
X1113084Y287526D01*
X1113246Y287520D01*
X1113407Y287511D01*
X1113568Y287497D01*
X1113728Y287480D01*
X1113888Y287459D01*
X1114048Y287434D01*
X1114207Y287405D01*
X1114365Y287373D01*
X1114522Y287337D01*
X1114678Y287297D01*
X1114834Y287253D01*
X1114988Y287205D01*
X1115141Y287154D01*
X1115293Y287100D01*
X1115444Y287041D01*
X1115593Y286980D01*
X1115740Y286914D01*
X1115886Y286845D01*
X1116031Y286773D01*
X1116173Y286697D01*
X1116314Y286618D01*
X1116453Y286536D01*
X1116589Y286450D01*
X1116724Y286361D01*
X1116857Y286269D01*
X1116987Y286173D01*
X1111116Y280755D02*
X1111015Y280817D01*
X1110915Y280882D01*
X1110818Y280951D01*
X1110723Y281023D01*
X1110630Y281097D01*
X1110540Y281175D01*
X1110452Y281256D01*
X1110367Y281339D01*
X1110285Y281425D01*
X1110206Y281514D01*
X1110129Y281605D01*
X1110056Y281699D01*
X1109985Y281795D01*
X1109918Y281893D01*
X1109854Y281993D01*
X1109793Y282096D01*
X1109736Y282200D01*
X1109682Y282306D01*
X1109632Y282414D01*
X1109585Y282523D01*
X1109541Y282634D01*
X1109501Y282746D01*
X1109465Y282860D01*
X1109433Y282974D01*
X1109404Y283090D01*
X1109379Y283206D01*
X1109358Y283323D01*
X1109341Y283441D01*
X1109327Y283559D01*
X1109318Y283678D01*
X1109312Y283797D01*
X1109310Y283916D01*
X1116084Y278045D02*
X1116185Y277983D01*
X1116285Y277918D01*
X1116382Y277849D01*
X1116477Y277777D01*
X1116570Y277703D01*
X1116660Y277625D01*
X1116748Y277544D01*
X1116833Y277461D01*
X1116915Y277375D01*
X1116994Y277286D01*
X1117071Y277195D01*
X1117144Y277101D01*
X1117215Y277005D01*
X1117282Y276907D01*
X1117346Y276807D01*
X1117407Y276704D01*
X1117464Y276600D01*
X1117518Y276494D01*
X1117568Y276386D01*
X1117615Y276277D01*
X1117659Y276166D01*
X1117699Y276054D01*
X1117735Y275940D01*
X1117767Y275826D01*
X1117796Y275710D01*
X1117821Y275594D01*
X1117842Y275477D01*
X1117859Y275359D01*
X1117873Y275241D01*
X1117882Y275122D01*
X1117888Y275003D01*
X1117890Y274884D01*
X1116084Y278045D02*
X1111117Y280755D01*
X1124520Y287528D02*
X1124520Y271272D01*
X1124520Y276691D02*
X1131745Y282109D01*
X1127681Y278948D02*
X1131745Y271272D01*
X1140086Y271272D02*
X1144602Y271272D01*
X1140086Y271272D02*
X1139985Y271274D01*
X1139884Y271280D01*
X1139783Y271289D01*
X1139682Y271302D01*
X1139582Y271319D01*
X1139483Y271340D01*
X1139385Y271364D01*
X1139288Y271392D01*
X1139191Y271424D01*
X1139096Y271459D01*
X1139003Y271498D01*
X1138911Y271540D01*
X1138820Y271586D01*
X1138732Y271635D01*
X1138645Y271687D01*
X1138560Y271743D01*
X1138477Y271801D01*
X1138397Y271863D01*
X1138319Y271928D01*
X1138243Y271995D01*
X1138170Y272065D01*
X1138100Y272138D01*
X1138033Y272214D01*
X1137968Y272292D01*
X1137906Y272372D01*
X1137848Y272455D01*
X1137792Y272540D01*
X1137740Y272627D01*
X1137691Y272715D01*
X1137645Y272806D01*
X1137603Y272898D01*
X1137564Y272991D01*
X1137529Y273086D01*
X1137497Y273183D01*
X1137469Y273280D01*
X1137445Y273378D01*
X1137424Y273477D01*
X1137407Y273577D01*
X1137394Y273678D01*
X1137385Y273779D01*
X1137379Y273880D01*
X1137377Y273981D01*
X1137377Y278497D01*
X1137378Y278497D02*
X1137380Y278616D01*
X1137386Y278736D01*
X1137396Y278855D01*
X1137410Y278973D01*
X1137427Y279092D01*
X1137449Y279209D01*
X1137474Y279326D01*
X1137504Y279441D01*
X1137537Y279556D01*
X1137574Y279670D01*
X1137614Y279782D01*
X1137659Y279893D01*
X1137707Y280002D01*
X1137758Y280110D01*
X1137813Y280216D01*
X1137872Y280320D01*
X1137934Y280422D01*
X1137999Y280522D01*
X1138068Y280620D01*
X1138140Y280716D01*
X1138215Y280809D01*
X1138292Y280899D01*
X1138373Y280987D01*
X1138457Y281072D01*
X1138544Y281154D01*
X1138633Y281234D01*
X1138725Y281310D01*
X1138819Y281384D01*
X1138916Y281454D01*
X1139014Y281521D01*
X1139115Y281585D01*
X1139219Y281645D01*
X1139324Y281702D01*
X1139431Y281755D01*
X1139539Y281805D01*
X1139649Y281851D01*
X1139761Y281893D01*
X1139874Y281932D01*
X1139988Y281967D01*
X1140103Y281998D01*
X1140220Y282026D01*
X1140337Y282049D01*
X1140454Y282069D01*
X1140573Y282085D01*
X1140692Y282097D01*
X1140811Y282105D01*
X1140930Y282109D01*
X1141050Y282109D01*
X1141169Y282105D01*
X1141288Y282097D01*
X1141407Y282085D01*
X1141526Y282069D01*
X1141643Y282049D01*
X1141760Y282026D01*
X1141877Y281998D01*
X1141992Y281967D01*
X1142106Y281932D01*
X1142219Y281893D01*
X1142331Y281851D01*
X1142441Y281805D01*
X1142549Y281755D01*
X1142656Y281702D01*
X1142761Y281645D01*
X1142865Y281585D01*
X1142966Y281521D01*
X1143064Y281454D01*
X1143161Y281384D01*
X1143255Y281310D01*
X1143347Y281234D01*
X1143436Y281154D01*
X1143523Y281072D01*
X1143607Y280987D01*
X1143688Y280899D01*
X1143765Y280809D01*
X1143840Y280716D01*
X1143912Y280620D01*
X1143981Y280522D01*
X1144046Y280422D01*
X1144108Y280320D01*
X1144167Y280216D01*
X1144222Y280110D01*
X1144273Y280002D01*
X1144321Y279893D01*
X1144366Y279782D01*
X1144406Y279670D01*
X1144443Y279556D01*
X1144476Y279441D01*
X1144506Y279326D01*
X1144531Y279209D01*
X1144553Y279092D01*
X1144570Y278973D01*
X1144584Y278855D01*
X1144594Y278736D01*
X1144600Y278616D01*
X1144602Y278497D01*
X1144602Y276691D01*
X1137377Y276691D01*
X1149627Y282109D02*
X1155046Y282109D01*
X1151433Y287528D02*
X1151433Y273981D01*
X1151435Y273880D01*
X1151441Y273779D01*
X1151450Y273678D01*
X1151463Y273577D01*
X1151480Y273477D01*
X1151501Y273378D01*
X1151525Y273280D01*
X1151553Y273183D01*
X1151585Y273086D01*
X1151620Y272991D01*
X1151659Y272898D01*
X1151701Y272806D01*
X1151747Y272715D01*
X1151796Y272627D01*
X1151848Y272540D01*
X1151904Y272455D01*
X1151962Y272372D01*
X1152024Y272292D01*
X1152089Y272214D01*
X1152156Y272138D01*
X1152226Y272065D01*
X1152299Y271995D01*
X1152375Y271928D01*
X1152453Y271863D01*
X1152533Y271801D01*
X1152616Y271743D01*
X1152701Y271687D01*
X1152788Y271635D01*
X1152876Y271586D01*
X1152967Y271540D01*
X1153059Y271498D01*
X1153152Y271459D01*
X1153247Y271424D01*
X1153344Y271392D01*
X1153441Y271364D01*
X1153539Y271340D01*
X1153638Y271319D01*
X1153738Y271302D01*
X1153839Y271289D01*
X1153940Y271280D01*
X1154041Y271274D01*
X1154142Y271272D01*
X1155046Y271272D01*
X1163551Y271272D02*
X1167163Y271272D01*
X1163551Y271272D02*
X1163450Y271274D01*
X1163349Y271280D01*
X1163248Y271289D01*
X1163147Y271302D01*
X1163047Y271319D01*
X1162948Y271340D01*
X1162850Y271364D01*
X1162753Y271392D01*
X1162656Y271424D01*
X1162561Y271459D01*
X1162468Y271498D01*
X1162376Y271540D01*
X1162285Y271586D01*
X1162197Y271635D01*
X1162110Y271687D01*
X1162025Y271743D01*
X1161942Y271801D01*
X1161862Y271863D01*
X1161784Y271928D01*
X1161708Y271995D01*
X1161635Y272065D01*
X1161565Y272138D01*
X1161498Y272214D01*
X1161433Y272292D01*
X1161371Y272372D01*
X1161313Y272455D01*
X1161257Y272540D01*
X1161205Y272627D01*
X1161156Y272715D01*
X1161110Y272806D01*
X1161068Y272898D01*
X1161029Y272991D01*
X1160994Y273086D01*
X1160962Y273183D01*
X1160934Y273280D01*
X1160910Y273378D01*
X1160889Y273477D01*
X1160872Y273577D01*
X1160859Y273678D01*
X1160850Y273779D01*
X1160844Y273880D01*
X1160842Y273981D01*
X1160842Y279400D01*
X1160844Y279501D01*
X1160850Y279602D01*
X1160859Y279703D01*
X1160872Y279804D01*
X1160889Y279904D01*
X1160910Y280003D01*
X1160934Y280101D01*
X1160962Y280198D01*
X1160994Y280295D01*
X1161029Y280390D01*
X1161068Y280483D01*
X1161110Y280575D01*
X1161156Y280666D01*
X1161205Y280755D01*
X1161257Y280841D01*
X1161313Y280926D01*
X1161371Y281009D01*
X1161433Y281089D01*
X1161498Y281167D01*
X1161565Y281243D01*
X1161635Y281316D01*
X1161708Y281386D01*
X1161784Y281453D01*
X1161862Y281518D01*
X1161942Y281580D01*
X1162025Y281638D01*
X1162110Y281694D01*
X1162197Y281746D01*
X1162285Y281795D01*
X1162376Y281841D01*
X1162468Y281883D01*
X1162561Y281922D01*
X1162656Y281957D01*
X1162753Y281989D01*
X1162850Y282017D01*
X1162948Y282041D01*
X1163047Y282062D01*
X1163147Y282079D01*
X1163248Y282092D01*
X1163349Y282101D01*
X1163450Y282107D01*
X1163551Y282109D01*
X1167163Y282109D01*
X1173329Y287528D02*
X1173329Y271272D01*
X1173329Y282109D02*
X1177845Y282109D01*
X1177949Y282107D01*
X1178052Y282101D01*
X1178156Y282091D01*
X1178259Y282077D01*
X1178361Y282059D01*
X1178462Y282038D01*
X1178563Y282012D01*
X1178662Y281983D01*
X1178761Y281950D01*
X1178858Y281913D01*
X1178953Y281872D01*
X1179047Y281828D01*
X1179139Y281780D01*
X1179229Y281729D01*
X1179318Y281674D01*
X1179404Y281616D01*
X1179487Y281554D01*
X1179569Y281490D01*
X1179647Y281422D01*
X1179723Y281352D01*
X1179797Y281279D01*
X1179867Y281202D01*
X1179935Y281124D01*
X1179999Y281042D01*
X1180061Y280959D01*
X1180119Y280873D01*
X1180174Y280784D01*
X1180225Y280694D01*
X1180273Y280602D01*
X1180317Y280508D01*
X1180358Y280413D01*
X1180395Y280316D01*
X1180428Y280217D01*
X1180457Y280118D01*
X1180483Y280017D01*
X1180504Y279916D01*
X1180522Y279814D01*
X1180536Y279711D01*
X1180546Y279607D01*
X1180552Y279504D01*
X1180554Y279400D01*
X1180554Y271272D01*
X1017637Y244602D02*
X1010412Y244602D01*
X1010412Y260858D01*
X1017637Y260858D01*
X1015831Y253633D02*
X1010412Y253633D01*
X1023929Y260858D02*
X1023929Y244602D01*
X1032960Y244602D02*
X1023929Y260858D01*
X1032960Y260858D02*
X1032960Y244602D01*
X1046924Y253633D02*
X1049634Y253633D01*
X1049634Y244602D01*
X1044215Y244602D01*
X1044097Y244604D01*
X1043979Y244610D01*
X1043861Y244619D01*
X1043744Y244633D01*
X1043627Y244650D01*
X1043510Y244671D01*
X1043395Y244696D01*
X1043280Y244725D01*
X1043166Y244758D01*
X1043054Y244794D01*
X1042943Y244834D01*
X1042833Y244877D01*
X1042724Y244924D01*
X1042617Y244974D01*
X1042512Y245029D01*
X1042409Y245086D01*
X1042308Y245147D01*
X1042208Y245211D01*
X1042111Y245278D01*
X1042016Y245348D01*
X1041924Y245422D01*
X1041833Y245498D01*
X1041746Y245578D01*
X1041661Y245660D01*
X1041579Y245745D01*
X1041499Y245832D01*
X1041423Y245923D01*
X1041349Y246015D01*
X1041279Y246110D01*
X1041212Y246207D01*
X1041148Y246307D01*
X1041087Y246408D01*
X1041030Y246511D01*
X1040975Y246616D01*
X1040925Y246723D01*
X1040878Y246832D01*
X1040835Y246942D01*
X1040795Y247053D01*
X1040759Y247165D01*
X1040726Y247279D01*
X1040697Y247394D01*
X1040672Y247509D01*
X1040651Y247626D01*
X1040634Y247743D01*
X1040620Y247860D01*
X1040611Y247978D01*
X1040605Y248096D01*
X1040603Y248214D01*
X1040603Y257246D01*
X1040605Y257364D01*
X1040611Y257482D01*
X1040620Y257600D01*
X1040634Y257717D01*
X1040651Y257834D01*
X1040672Y257951D01*
X1040697Y258066D01*
X1040726Y258181D01*
X1040759Y258295D01*
X1040795Y258407D01*
X1040835Y258518D01*
X1040878Y258628D01*
X1040925Y258737D01*
X1040975Y258844D01*
X1041029Y258949D01*
X1041087Y259052D01*
X1041148Y259153D01*
X1041212Y259253D01*
X1041279Y259350D01*
X1041349Y259445D01*
X1041423Y259537D01*
X1041499Y259628D01*
X1041579Y259715D01*
X1041661Y259800D01*
X1041746Y259882D01*
X1041833Y259962D01*
X1041924Y260038D01*
X1042016Y260112D01*
X1042111Y260182D01*
X1042208Y260249D01*
X1042308Y260313D01*
X1042409Y260374D01*
X1042512Y260431D01*
X1042617Y260485D01*
X1042724Y260536D01*
X1042833Y260583D01*
X1042943Y260626D01*
X1043054Y260666D01*
X1043166Y260702D01*
X1043280Y260735D01*
X1043395Y260764D01*
X1043510Y260789D01*
X1043627Y260810D01*
X1043744Y260827D01*
X1043861Y260841D01*
X1043979Y260850D01*
X1044097Y260856D01*
X1044215Y260858D01*
X1049634Y260858D01*
X1058144Y260858D02*
X1058144Y244602D01*
X1056338Y244602D02*
X1059950Y244602D01*
X1059950Y260858D02*
X1056338Y260858D01*
X1074470Y244602D02*
X1078986Y244602D01*
X1079119Y244604D01*
X1079251Y244610D01*
X1079383Y244620D01*
X1079515Y244633D01*
X1079647Y244651D01*
X1079777Y244672D01*
X1079908Y244697D01*
X1080037Y244726D01*
X1080165Y244759D01*
X1080293Y244795D01*
X1080419Y244835D01*
X1080544Y244879D01*
X1080668Y244927D01*
X1080790Y244978D01*
X1080911Y245033D01*
X1081030Y245091D01*
X1081148Y245153D01*
X1081263Y245218D01*
X1081377Y245287D01*
X1081488Y245358D01*
X1081597Y245434D01*
X1081704Y245512D01*
X1081809Y245593D01*
X1081911Y245678D01*
X1082011Y245765D01*
X1082108Y245855D01*
X1082203Y245948D01*
X1082294Y246044D01*
X1082383Y246142D01*
X1082469Y246243D01*
X1082552Y246347D01*
X1082632Y246453D01*
X1082708Y246561D01*
X1082782Y246671D01*
X1082852Y246784D01*
X1082919Y246898D01*
X1082982Y247015D01*
X1083042Y247133D01*
X1083099Y247253D01*
X1083152Y247375D01*
X1083201Y247498D01*
X1083247Y247622D01*
X1083289Y247748D01*
X1083327Y247875D01*
X1083362Y248003D01*
X1083393Y248132D01*
X1083420Y248261D01*
X1083443Y248392D01*
X1083463Y248523D01*
X1083478Y248655D01*
X1083490Y248787D01*
X1083498Y248919D01*
X1083502Y249052D01*
X1083502Y249184D01*
X1083498Y249317D01*
X1083490Y249449D01*
X1083478Y249581D01*
X1083463Y249713D01*
X1083443Y249844D01*
X1083420Y249975D01*
X1083393Y250104D01*
X1083362Y250233D01*
X1083327Y250361D01*
X1083289Y250488D01*
X1083247Y250614D01*
X1083201Y250738D01*
X1083152Y250861D01*
X1083099Y250983D01*
X1083042Y251103D01*
X1082982Y251221D01*
X1082919Y251338D01*
X1082852Y251452D01*
X1082782Y251565D01*
X1082708Y251675D01*
X1082632Y251783D01*
X1082552Y251889D01*
X1082469Y251993D01*
X1082383Y252094D01*
X1082294Y252192D01*
X1082203Y252288D01*
X1082108Y252381D01*
X1082011Y252471D01*
X1081911Y252558D01*
X1081809Y252643D01*
X1081704Y252724D01*
X1081597Y252802D01*
X1081488Y252878D01*
X1081377Y252949D01*
X1081263Y253018D01*
X1081148Y253083D01*
X1081030Y253145D01*
X1080911Y253203D01*
X1080790Y253258D01*
X1080668Y253309D01*
X1080544Y253357D01*
X1080419Y253401D01*
X1080293Y253441D01*
X1080165Y253477D01*
X1080037Y253510D01*
X1079908Y253539D01*
X1079777Y253564D01*
X1079647Y253585D01*
X1079515Y253603D01*
X1079383Y253616D01*
X1079251Y253626D01*
X1079119Y253632D01*
X1078986Y253634D01*
X1079889Y260858D02*
X1074470Y260858D01*
X1079889Y260858D02*
X1080008Y260856D01*
X1080128Y260850D01*
X1080247Y260840D01*
X1080365Y260826D01*
X1080484Y260809D01*
X1080601Y260787D01*
X1080718Y260762D01*
X1080833Y260732D01*
X1080948Y260699D01*
X1081062Y260662D01*
X1081174Y260622D01*
X1081285Y260577D01*
X1081394Y260529D01*
X1081502Y260478D01*
X1081608Y260423D01*
X1081712Y260364D01*
X1081814Y260302D01*
X1081914Y260237D01*
X1082012Y260168D01*
X1082108Y260096D01*
X1082201Y260021D01*
X1082291Y259944D01*
X1082379Y259863D01*
X1082464Y259779D01*
X1082546Y259692D01*
X1082626Y259603D01*
X1082702Y259511D01*
X1082776Y259417D01*
X1082846Y259320D01*
X1082913Y259222D01*
X1082977Y259121D01*
X1083037Y259017D01*
X1083094Y258912D01*
X1083147Y258805D01*
X1083197Y258697D01*
X1083243Y258587D01*
X1083285Y258475D01*
X1083324Y258362D01*
X1083359Y258248D01*
X1083390Y258133D01*
X1083418Y258016D01*
X1083441Y257899D01*
X1083461Y257782D01*
X1083477Y257663D01*
X1083489Y257544D01*
X1083497Y257425D01*
X1083501Y257306D01*
X1083501Y257186D01*
X1083497Y257067D01*
X1083489Y256948D01*
X1083477Y256829D01*
X1083461Y256710D01*
X1083441Y256593D01*
X1083418Y256476D01*
X1083390Y256359D01*
X1083359Y256244D01*
X1083324Y256130D01*
X1083285Y256017D01*
X1083243Y255905D01*
X1083197Y255795D01*
X1083147Y255687D01*
X1083094Y255580D01*
X1083037Y255475D01*
X1082977Y255371D01*
X1082913Y255270D01*
X1082846Y255172D01*
X1082776Y255075D01*
X1082702Y254981D01*
X1082626Y254889D01*
X1082546Y254800D01*
X1082464Y254713D01*
X1082379Y254629D01*
X1082291Y254548D01*
X1082201Y254471D01*
X1082108Y254396D01*
X1082012Y254324D01*
X1081914Y254255D01*
X1081814Y254190D01*
X1081712Y254128D01*
X1081608Y254069D01*
X1081502Y254014D01*
X1081394Y253963D01*
X1081285Y253915D01*
X1081174Y253870D01*
X1081062Y253830D01*
X1080948Y253793D01*
X1080833Y253760D01*
X1080718Y253730D01*
X1080601Y253705D01*
X1080484Y253683D01*
X1080365Y253666D01*
X1080247Y253652D01*
X1080128Y253642D01*
X1080008Y253636D01*
X1079889Y253634D01*
X1079889Y253633D02*
X1076276Y253633D01*
X1090102Y252730D02*
X1090106Y253050D01*
X1090117Y253369D01*
X1090136Y253689D01*
X1090163Y254007D01*
X1090197Y254325D01*
X1090239Y254642D01*
X1090289Y254958D01*
X1090346Y255273D01*
X1090410Y255586D01*
X1090482Y255898D01*
X1090561Y256208D01*
X1090648Y256515D01*
X1090742Y256821D01*
X1090843Y257124D01*
X1090952Y257425D01*
X1091067Y257723D01*
X1091190Y258019D01*
X1091320Y258311D01*
X1091457Y258600D01*
X1091456Y258601D02*
X1091495Y258709D01*
X1091538Y258816D01*
X1091584Y258921D01*
X1091635Y259025D01*
X1091688Y259127D01*
X1091745Y259227D01*
X1091806Y259325D01*
X1091870Y259420D01*
X1091937Y259514D01*
X1092008Y259605D01*
X1092081Y259694D01*
X1092158Y259780D01*
X1092237Y259863D01*
X1092319Y259944D01*
X1092404Y260022D01*
X1092492Y260096D01*
X1092582Y260168D01*
X1092674Y260236D01*
X1092769Y260302D01*
X1092866Y260364D01*
X1092965Y260422D01*
X1093067Y260478D01*
X1093169Y260529D01*
X1093274Y260577D01*
X1093380Y260622D01*
X1093488Y260663D01*
X1093597Y260700D01*
X1093707Y260733D01*
X1093819Y260762D01*
X1093931Y260788D01*
X1094044Y260810D01*
X1094158Y260827D01*
X1094272Y260841D01*
X1094387Y260851D01*
X1094502Y260857D01*
X1094617Y260859D01*
X1094617Y260858D02*
X1094732Y260856D01*
X1094847Y260850D01*
X1094962Y260840D01*
X1095076Y260826D01*
X1095190Y260809D01*
X1095303Y260787D01*
X1095415Y260761D01*
X1095527Y260732D01*
X1095637Y260699D01*
X1095746Y260662D01*
X1095854Y260621D01*
X1095960Y260576D01*
X1096065Y260528D01*
X1096167Y260477D01*
X1096268Y260421D01*
X1096368Y260363D01*
X1096465Y260301D01*
X1096559Y260236D01*
X1096652Y260167D01*
X1096742Y260095D01*
X1096830Y260021D01*
X1096915Y259943D01*
X1096997Y259862D01*
X1097076Y259779D01*
X1097153Y259693D01*
X1097226Y259604D01*
X1097297Y259513D01*
X1097364Y259419D01*
X1097428Y259324D01*
X1097489Y259226D01*
X1097546Y259126D01*
X1097599Y259024D01*
X1097650Y258920D01*
X1097696Y258815D01*
X1097739Y258708D01*
X1097778Y258600D01*
X1097777Y258600D02*
X1097914Y258311D01*
X1098044Y258019D01*
X1098167Y257723D01*
X1098282Y257425D01*
X1098391Y257124D01*
X1098492Y256821D01*
X1098586Y256515D01*
X1098673Y256208D01*
X1098752Y255898D01*
X1098824Y255586D01*
X1098888Y255273D01*
X1098945Y254958D01*
X1098995Y254642D01*
X1099037Y254325D01*
X1099071Y254007D01*
X1099098Y253689D01*
X1099117Y253369D01*
X1099128Y253050D01*
X1099132Y252730D01*
X1090102Y252730D02*
X1090106Y252410D01*
X1090117Y252091D01*
X1090136Y251771D01*
X1090163Y251453D01*
X1090197Y251135D01*
X1090239Y250818D01*
X1090289Y250502D01*
X1090346Y250187D01*
X1090410Y249874D01*
X1090482Y249562D01*
X1090561Y249252D01*
X1090648Y248945D01*
X1090742Y248639D01*
X1090843Y248336D01*
X1090952Y248035D01*
X1091067Y247737D01*
X1091190Y247441D01*
X1091320Y247149D01*
X1091457Y246860D01*
X1091456Y246860D02*
X1091495Y246752D01*
X1091538Y246645D01*
X1091584Y246540D01*
X1091635Y246436D01*
X1091688Y246334D01*
X1091745Y246234D01*
X1091806Y246136D01*
X1091870Y246041D01*
X1091937Y245947D01*
X1092008Y245856D01*
X1092081Y245767D01*
X1092158Y245681D01*
X1092237Y245598D01*
X1092319Y245517D01*
X1092404Y245439D01*
X1092492Y245365D01*
X1092582Y245293D01*
X1092675Y245224D01*
X1092769Y245159D01*
X1092866Y245097D01*
X1092966Y245039D01*
X1093067Y244983D01*
X1093169Y244932D01*
X1093274Y244884D01*
X1093380Y244839D01*
X1093488Y244798D01*
X1093597Y244761D01*
X1093707Y244728D01*
X1093819Y244699D01*
X1093931Y244673D01*
X1094044Y244651D01*
X1094158Y244634D01*
X1094272Y244620D01*
X1094387Y244610D01*
X1094502Y244604D01*
X1094617Y244602D01*
X1097777Y246860D02*
X1097914Y247149D01*
X1098044Y247441D01*
X1098167Y247737D01*
X1098282Y248035D01*
X1098391Y248336D01*
X1098492Y248639D01*
X1098586Y248945D01*
X1098673Y249252D01*
X1098752Y249562D01*
X1098824Y249874D01*
X1098888Y250187D01*
X1098945Y250502D01*
X1098995Y250818D01*
X1099037Y251135D01*
X1099071Y251453D01*
X1099098Y251771D01*
X1099117Y252091D01*
X1099128Y252410D01*
X1099132Y252730D01*
X1097778Y246860D02*
X1097739Y246752D01*
X1097696Y246645D01*
X1097650Y246540D01*
X1097599Y246436D01*
X1097546Y246334D01*
X1097489Y246234D01*
X1097428Y246136D01*
X1097364Y246041D01*
X1097297Y245947D01*
X1097226Y245856D01*
X1097153Y245767D01*
X1097076Y245681D01*
X1096997Y245598D01*
X1096915Y245517D01*
X1096830Y245439D01*
X1096742Y245365D01*
X1096652Y245293D01*
X1096559Y245224D01*
X1096465Y245159D01*
X1096368Y245097D01*
X1096268Y245039D01*
X1096167Y244983D01*
X1096064Y244932D01*
X1095960Y244884D01*
X1095854Y244839D01*
X1095746Y244798D01*
X1095637Y244761D01*
X1095527Y244728D01*
X1095415Y244699D01*
X1095303Y244673D01*
X1095190Y244651D01*
X1095076Y244634D01*
X1094962Y244620D01*
X1094847Y244610D01*
X1094732Y244604D01*
X1094617Y244602D01*
X1091005Y248214D02*
X1098229Y257246D01*
X1105733Y257246D02*
X1110248Y260858D01*
X1110248Y244602D01*
X1105733Y244602D02*
X1114764Y244602D01*
X1010412Y234188D02*
X1010412Y217932D01*
X1010412Y234188D02*
X1014928Y234188D01*
X1015061Y234186D01*
X1015193Y234180D01*
X1015325Y234170D01*
X1015457Y234157D01*
X1015589Y234139D01*
X1015719Y234118D01*
X1015850Y234093D01*
X1015979Y234064D01*
X1016107Y234031D01*
X1016235Y233995D01*
X1016361Y233955D01*
X1016486Y233911D01*
X1016610Y233863D01*
X1016732Y233812D01*
X1016853Y233757D01*
X1016972Y233699D01*
X1017090Y233637D01*
X1017205Y233572D01*
X1017319Y233503D01*
X1017430Y233432D01*
X1017539Y233356D01*
X1017646Y233278D01*
X1017751Y233197D01*
X1017853Y233112D01*
X1017953Y233025D01*
X1018050Y232935D01*
X1018145Y232842D01*
X1018236Y232746D01*
X1018325Y232648D01*
X1018411Y232547D01*
X1018494Y232443D01*
X1018574Y232337D01*
X1018650Y232229D01*
X1018724Y232119D01*
X1018794Y232006D01*
X1018861Y231892D01*
X1018924Y231775D01*
X1018984Y231657D01*
X1019041Y231537D01*
X1019094Y231415D01*
X1019143Y231292D01*
X1019189Y231168D01*
X1019231Y231042D01*
X1019269Y230915D01*
X1019304Y230787D01*
X1019335Y230658D01*
X1019362Y230529D01*
X1019385Y230398D01*
X1019405Y230267D01*
X1019420Y230135D01*
X1019432Y230003D01*
X1019440Y229871D01*
X1019444Y229738D01*
X1019444Y229606D01*
X1019440Y229473D01*
X1019432Y229341D01*
X1019420Y229209D01*
X1019405Y229077D01*
X1019385Y228946D01*
X1019362Y228815D01*
X1019335Y228686D01*
X1019304Y228557D01*
X1019269Y228429D01*
X1019231Y228302D01*
X1019189Y228176D01*
X1019143Y228052D01*
X1019094Y227929D01*
X1019041Y227807D01*
X1018984Y227687D01*
X1018924Y227569D01*
X1018861Y227452D01*
X1018794Y227338D01*
X1018724Y227225D01*
X1018650Y227115D01*
X1018574Y227007D01*
X1018494Y226901D01*
X1018411Y226797D01*
X1018325Y226696D01*
X1018236Y226598D01*
X1018145Y226502D01*
X1018050Y226409D01*
X1017953Y226319D01*
X1017853Y226232D01*
X1017751Y226147D01*
X1017646Y226066D01*
X1017539Y225988D01*
X1017430Y225912D01*
X1017319Y225841D01*
X1017205Y225772D01*
X1017090Y225707D01*
X1016972Y225645D01*
X1016853Y225587D01*
X1016732Y225532D01*
X1016610Y225481D01*
X1016486Y225433D01*
X1016361Y225389D01*
X1016235Y225349D01*
X1016107Y225313D01*
X1015979Y225280D01*
X1015850Y225251D01*
X1015719Y225226D01*
X1015589Y225205D01*
X1015457Y225187D01*
X1015325Y225174D01*
X1015193Y225164D01*
X1015061Y225158D01*
X1014928Y225156D01*
X1014928Y225157D02*
X1010412Y225157D01*
X1015831Y225157D02*
X1019443Y217932D01*
X1028522Y217932D02*
X1033038Y217932D01*
X1028522Y217932D02*
X1028421Y217934D01*
X1028320Y217940D01*
X1028219Y217949D01*
X1028118Y217962D01*
X1028018Y217979D01*
X1027919Y218000D01*
X1027821Y218024D01*
X1027724Y218052D01*
X1027627Y218084D01*
X1027532Y218119D01*
X1027439Y218158D01*
X1027347Y218200D01*
X1027256Y218246D01*
X1027168Y218295D01*
X1027081Y218347D01*
X1026996Y218403D01*
X1026913Y218461D01*
X1026833Y218523D01*
X1026755Y218588D01*
X1026679Y218655D01*
X1026606Y218725D01*
X1026536Y218798D01*
X1026469Y218874D01*
X1026404Y218952D01*
X1026342Y219032D01*
X1026284Y219115D01*
X1026228Y219200D01*
X1026176Y219287D01*
X1026127Y219375D01*
X1026081Y219466D01*
X1026039Y219558D01*
X1026000Y219651D01*
X1025965Y219746D01*
X1025933Y219843D01*
X1025905Y219940D01*
X1025881Y220038D01*
X1025860Y220137D01*
X1025843Y220237D01*
X1025830Y220338D01*
X1025821Y220439D01*
X1025815Y220540D01*
X1025813Y220641D01*
X1025813Y225157D01*
X1025815Y225276D01*
X1025821Y225396D01*
X1025831Y225515D01*
X1025845Y225633D01*
X1025862Y225752D01*
X1025884Y225869D01*
X1025909Y225986D01*
X1025939Y226101D01*
X1025972Y226216D01*
X1026009Y226330D01*
X1026049Y226442D01*
X1026094Y226553D01*
X1026142Y226662D01*
X1026193Y226770D01*
X1026248Y226876D01*
X1026307Y226980D01*
X1026369Y227082D01*
X1026434Y227182D01*
X1026503Y227280D01*
X1026575Y227376D01*
X1026650Y227469D01*
X1026727Y227559D01*
X1026808Y227647D01*
X1026892Y227732D01*
X1026979Y227814D01*
X1027068Y227894D01*
X1027160Y227970D01*
X1027254Y228044D01*
X1027351Y228114D01*
X1027449Y228181D01*
X1027550Y228245D01*
X1027654Y228305D01*
X1027759Y228362D01*
X1027866Y228415D01*
X1027974Y228465D01*
X1028084Y228511D01*
X1028196Y228553D01*
X1028309Y228592D01*
X1028423Y228627D01*
X1028538Y228658D01*
X1028655Y228686D01*
X1028772Y228709D01*
X1028889Y228729D01*
X1029008Y228745D01*
X1029127Y228757D01*
X1029246Y228765D01*
X1029365Y228769D01*
X1029485Y228769D01*
X1029604Y228765D01*
X1029723Y228757D01*
X1029842Y228745D01*
X1029961Y228729D01*
X1030078Y228709D01*
X1030195Y228686D01*
X1030312Y228658D01*
X1030427Y228627D01*
X1030541Y228592D01*
X1030654Y228553D01*
X1030766Y228511D01*
X1030876Y228465D01*
X1030984Y228415D01*
X1031091Y228362D01*
X1031196Y228305D01*
X1031300Y228245D01*
X1031401Y228181D01*
X1031499Y228114D01*
X1031596Y228044D01*
X1031690Y227970D01*
X1031782Y227894D01*
X1031871Y227814D01*
X1031958Y227732D01*
X1032042Y227647D01*
X1032123Y227559D01*
X1032200Y227469D01*
X1032275Y227376D01*
X1032347Y227280D01*
X1032416Y227182D01*
X1032481Y227082D01*
X1032543Y226980D01*
X1032602Y226876D01*
X1032657Y226770D01*
X1032708Y226662D01*
X1032756Y226553D01*
X1032801Y226442D01*
X1032841Y226330D01*
X1032878Y226216D01*
X1032911Y226101D01*
X1032941Y225986D01*
X1032966Y225869D01*
X1032988Y225752D01*
X1033005Y225633D01*
X1033019Y225515D01*
X1033029Y225396D01*
X1033035Y225276D01*
X1033037Y225157D01*
X1033038Y225157D02*
X1033038Y223351D01*
X1025813Y223351D01*
X1038839Y228769D02*
X1042451Y217932D01*
X1046064Y228769D01*
X1060340Y230576D02*
X1064856Y234188D01*
X1064856Y217932D01*
X1069371Y217932D02*
X1060340Y217932D01*
X1075346Y217932D02*
X1075346Y218835D01*
X1076249Y218835D01*
X1076249Y217932D01*
X1075346Y217932D01*
X1082224Y226060D02*
X1082228Y226380D01*
X1082239Y226699D01*
X1082258Y227019D01*
X1082285Y227337D01*
X1082319Y227655D01*
X1082361Y227972D01*
X1082411Y228288D01*
X1082468Y228603D01*
X1082532Y228916D01*
X1082604Y229228D01*
X1082683Y229538D01*
X1082770Y229845D01*
X1082864Y230151D01*
X1082965Y230454D01*
X1083074Y230755D01*
X1083189Y231053D01*
X1083312Y231349D01*
X1083442Y231641D01*
X1083579Y231930D01*
X1083579Y231931D02*
X1083618Y232039D01*
X1083661Y232146D01*
X1083707Y232251D01*
X1083758Y232355D01*
X1083811Y232457D01*
X1083868Y232557D01*
X1083929Y232655D01*
X1083993Y232750D01*
X1084060Y232844D01*
X1084131Y232935D01*
X1084204Y233024D01*
X1084281Y233110D01*
X1084360Y233193D01*
X1084442Y233274D01*
X1084527Y233352D01*
X1084615Y233426D01*
X1084705Y233498D01*
X1084797Y233566D01*
X1084892Y233632D01*
X1084989Y233694D01*
X1085088Y233752D01*
X1085190Y233808D01*
X1085292Y233859D01*
X1085397Y233907D01*
X1085503Y233952D01*
X1085611Y233993D01*
X1085720Y234030D01*
X1085830Y234063D01*
X1085942Y234092D01*
X1086054Y234118D01*
X1086167Y234140D01*
X1086281Y234157D01*
X1086395Y234171D01*
X1086510Y234181D01*
X1086625Y234187D01*
X1086740Y234189D01*
X1086740Y234188D02*
X1086855Y234186D01*
X1086970Y234180D01*
X1087085Y234170D01*
X1087199Y234156D01*
X1087313Y234139D01*
X1087426Y234117D01*
X1087538Y234091D01*
X1087650Y234062D01*
X1087760Y234029D01*
X1087869Y233992D01*
X1087977Y233951D01*
X1088083Y233906D01*
X1088188Y233858D01*
X1088290Y233807D01*
X1088391Y233751D01*
X1088491Y233693D01*
X1088588Y233631D01*
X1088682Y233566D01*
X1088775Y233497D01*
X1088865Y233425D01*
X1088953Y233351D01*
X1089038Y233273D01*
X1089120Y233192D01*
X1089199Y233109D01*
X1089276Y233023D01*
X1089349Y232934D01*
X1089420Y232843D01*
X1089487Y232749D01*
X1089551Y232654D01*
X1089612Y232556D01*
X1089669Y232456D01*
X1089722Y232354D01*
X1089773Y232250D01*
X1089819Y232145D01*
X1089862Y232038D01*
X1089901Y231930D01*
X1089900Y231930D02*
X1090037Y231641D01*
X1090167Y231349D01*
X1090290Y231053D01*
X1090405Y230755D01*
X1090514Y230454D01*
X1090615Y230151D01*
X1090709Y229845D01*
X1090796Y229538D01*
X1090875Y229228D01*
X1090947Y228916D01*
X1091011Y228603D01*
X1091068Y228288D01*
X1091118Y227972D01*
X1091160Y227655D01*
X1091194Y227337D01*
X1091221Y227019D01*
X1091240Y226699D01*
X1091251Y226380D01*
X1091255Y226060D01*
X1082224Y226060D02*
X1082228Y225740D01*
X1082239Y225421D01*
X1082258Y225101D01*
X1082285Y224783D01*
X1082319Y224465D01*
X1082361Y224148D01*
X1082411Y223832D01*
X1082468Y223517D01*
X1082532Y223204D01*
X1082604Y222892D01*
X1082683Y222582D01*
X1082770Y222275D01*
X1082864Y221969D01*
X1082965Y221666D01*
X1083074Y221365D01*
X1083189Y221067D01*
X1083312Y220771D01*
X1083442Y220479D01*
X1083579Y220190D01*
X1083618Y220082D01*
X1083661Y219975D01*
X1083707Y219870D01*
X1083758Y219766D01*
X1083811Y219664D01*
X1083868Y219564D01*
X1083929Y219466D01*
X1083993Y219371D01*
X1084060Y219277D01*
X1084131Y219186D01*
X1084204Y219097D01*
X1084281Y219011D01*
X1084360Y218928D01*
X1084442Y218847D01*
X1084527Y218769D01*
X1084615Y218695D01*
X1084705Y218623D01*
X1084798Y218554D01*
X1084892Y218489D01*
X1084989Y218427D01*
X1085089Y218369D01*
X1085190Y218313D01*
X1085292Y218262D01*
X1085397Y218214D01*
X1085503Y218169D01*
X1085611Y218128D01*
X1085720Y218091D01*
X1085830Y218058D01*
X1085942Y218029D01*
X1086054Y218003D01*
X1086167Y217981D01*
X1086281Y217964D01*
X1086395Y217950D01*
X1086510Y217940D01*
X1086625Y217934D01*
X1086740Y217932D01*
X1089900Y220190D02*
X1090037Y220479D01*
X1090167Y220771D01*
X1090290Y221067D01*
X1090405Y221365D01*
X1090514Y221666D01*
X1090615Y221969D01*
X1090709Y222275D01*
X1090796Y222582D01*
X1090875Y222892D01*
X1090947Y223204D01*
X1091011Y223517D01*
X1091068Y223832D01*
X1091118Y224148D01*
X1091160Y224465D01*
X1091194Y224783D01*
X1091221Y225101D01*
X1091240Y225421D01*
X1091251Y225740D01*
X1091255Y226060D01*
X1089901Y220190D02*
X1089862Y220082D01*
X1089819Y219975D01*
X1089773Y219870D01*
X1089722Y219766D01*
X1089669Y219664D01*
X1089612Y219564D01*
X1089551Y219466D01*
X1089487Y219371D01*
X1089420Y219277D01*
X1089349Y219186D01*
X1089276Y219097D01*
X1089199Y219011D01*
X1089120Y218928D01*
X1089038Y218847D01*
X1088953Y218769D01*
X1088865Y218695D01*
X1088775Y218623D01*
X1088682Y218554D01*
X1088588Y218489D01*
X1088491Y218427D01*
X1088391Y218369D01*
X1088290Y218313D01*
X1088187Y218262D01*
X1088083Y218214D01*
X1087977Y218169D01*
X1087869Y218128D01*
X1087760Y218091D01*
X1087650Y218058D01*
X1087538Y218029D01*
X1087426Y218003D01*
X1087313Y217981D01*
X1087199Y217964D01*
X1087085Y217950D01*
X1086970Y217940D01*
X1086855Y217934D01*
X1086740Y217932D01*
X1083127Y221544D02*
X1090352Y230576D01*
X1010412Y207518D02*
X1010412Y191262D01*
X1010412Y207518D02*
X1014928Y207518D01*
X1015061Y207516D01*
X1015193Y207510D01*
X1015325Y207500D01*
X1015457Y207487D01*
X1015589Y207469D01*
X1015719Y207448D01*
X1015850Y207423D01*
X1015979Y207394D01*
X1016107Y207361D01*
X1016235Y207325D01*
X1016361Y207285D01*
X1016486Y207241D01*
X1016610Y207193D01*
X1016732Y207142D01*
X1016853Y207087D01*
X1016972Y207029D01*
X1017090Y206967D01*
X1017205Y206902D01*
X1017319Y206833D01*
X1017430Y206762D01*
X1017539Y206686D01*
X1017646Y206608D01*
X1017751Y206527D01*
X1017853Y206442D01*
X1017953Y206355D01*
X1018050Y206265D01*
X1018145Y206172D01*
X1018236Y206076D01*
X1018325Y205978D01*
X1018411Y205877D01*
X1018494Y205773D01*
X1018574Y205667D01*
X1018650Y205559D01*
X1018724Y205449D01*
X1018794Y205336D01*
X1018861Y205222D01*
X1018924Y205105D01*
X1018984Y204987D01*
X1019041Y204867D01*
X1019094Y204745D01*
X1019143Y204622D01*
X1019189Y204498D01*
X1019231Y204372D01*
X1019269Y204245D01*
X1019304Y204117D01*
X1019335Y203988D01*
X1019362Y203859D01*
X1019385Y203728D01*
X1019405Y203597D01*
X1019420Y203465D01*
X1019432Y203333D01*
X1019440Y203201D01*
X1019444Y203068D01*
X1019444Y202936D01*
X1019440Y202803D01*
X1019432Y202671D01*
X1019420Y202539D01*
X1019405Y202407D01*
X1019385Y202276D01*
X1019362Y202145D01*
X1019335Y202016D01*
X1019304Y201887D01*
X1019269Y201759D01*
X1019231Y201632D01*
X1019189Y201506D01*
X1019143Y201382D01*
X1019094Y201259D01*
X1019041Y201137D01*
X1018984Y201017D01*
X1018924Y200899D01*
X1018861Y200782D01*
X1018794Y200668D01*
X1018724Y200555D01*
X1018650Y200445D01*
X1018574Y200337D01*
X1018494Y200231D01*
X1018411Y200127D01*
X1018325Y200026D01*
X1018236Y199928D01*
X1018145Y199832D01*
X1018050Y199739D01*
X1017953Y199649D01*
X1017853Y199562D01*
X1017751Y199477D01*
X1017646Y199396D01*
X1017539Y199318D01*
X1017430Y199242D01*
X1017319Y199171D01*
X1017205Y199102D01*
X1017090Y199037D01*
X1016972Y198975D01*
X1016853Y198917D01*
X1016732Y198862D01*
X1016610Y198811D01*
X1016486Y198763D01*
X1016361Y198719D01*
X1016235Y198679D01*
X1016107Y198643D01*
X1015979Y198610D01*
X1015850Y198581D01*
X1015719Y198556D01*
X1015589Y198535D01*
X1015457Y198517D01*
X1015325Y198504D01*
X1015193Y198494D01*
X1015061Y198488D01*
X1014928Y198486D01*
X1014928Y198487D02*
X1010412Y198487D01*
X1028785Y191262D02*
X1028785Y207518D01*
X1033300Y207518D02*
X1024269Y207518D01*
X1042332Y207518D02*
X1042332Y191262D01*
X1037816Y207518D02*
X1046847Y207518D01*
D11*
X1338200Y894000D02*
X1354200Y894000D01*
X1354200Y884000D02*
X1338200Y884000D01*
X1348200Y887000D02*
X1348200Y891000D01*
D10*
X1296162Y894588D02*
X1296162Y883412D01*
X1296162Y894588D02*
X1299266Y894588D01*
X1299377Y894586D01*
X1299487Y894580D01*
X1299598Y894570D01*
X1299708Y894556D01*
X1299817Y894539D01*
X1299926Y894517D01*
X1300034Y894492D01*
X1300140Y894462D01*
X1300246Y894429D01*
X1300351Y894392D01*
X1300454Y894352D01*
X1300555Y894307D01*
X1300655Y894260D01*
X1300754Y894208D01*
X1300850Y894153D01*
X1300944Y894095D01*
X1301036Y894034D01*
X1301126Y893969D01*
X1301214Y893901D01*
X1301299Y893830D01*
X1301381Y893756D01*
X1301461Y893679D01*
X1301538Y893599D01*
X1301612Y893517D01*
X1301683Y893432D01*
X1301751Y893344D01*
X1301816Y893254D01*
X1301877Y893162D01*
X1301935Y893068D01*
X1301990Y892972D01*
X1302042Y892873D01*
X1302089Y892773D01*
X1302134Y892672D01*
X1302174Y892569D01*
X1302211Y892464D01*
X1302244Y892358D01*
X1302274Y892252D01*
X1302299Y892144D01*
X1302321Y892035D01*
X1302338Y891926D01*
X1302352Y891816D01*
X1302362Y891705D01*
X1302368Y891595D01*
X1302370Y891484D01*
X1302371Y891484D02*
X1302371Y886516D01*
X1302370Y886516D02*
X1302368Y886405D01*
X1302362Y886295D01*
X1302352Y886184D01*
X1302338Y886074D01*
X1302321Y885965D01*
X1302299Y885856D01*
X1302274Y885748D01*
X1302244Y885642D01*
X1302211Y885536D01*
X1302174Y885431D01*
X1302134Y885328D01*
X1302089Y885227D01*
X1302042Y885127D01*
X1301990Y885028D01*
X1301935Y884932D01*
X1301877Y884838D01*
X1301816Y884746D01*
X1301751Y884656D01*
X1301683Y884568D01*
X1301612Y884483D01*
X1301538Y884401D01*
X1301461Y884321D01*
X1301381Y884244D01*
X1301299Y884170D01*
X1301214Y884099D01*
X1301126Y884031D01*
X1301036Y883966D01*
X1300944Y883905D01*
X1300850Y883847D01*
X1300754Y883792D01*
X1300655Y883740D01*
X1300555Y883693D01*
X1300454Y883648D01*
X1300351Y883608D01*
X1300246Y883571D01*
X1300140Y883538D01*
X1300034Y883508D01*
X1299926Y883483D01*
X1299817Y883461D01*
X1299708Y883444D01*
X1299598Y883430D01*
X1299487Y883420D01*
X1299377Y883414D01*
X1299266Y883412D01*
X1296162Y883412D01*
X1307973Y892104D02*
X1311077Y894588D01*
X1311077Y883412D01*
X1307973Y883412D02*
X1314182Y883412D01*
D11*
X1338200Y843200D02*
X1354200Y843200D01*
X1354200Y833200D02*
X1338200Y833200D01*
X1348200Y836200D02*
X1348200Y840200D01*
D10*
X1296162Y838962D02*
X1296162Y850138D01*
X1299266Y850138D01*
X1299377Y850136D01*
X1299487Y850130D01*
X1299598Y850120D01*
X1299708Y850106D01*
X1299817Y850089D01*
X1299926Y850067D01*
X1300034Y850042D01*
X1300140Y850012D01*
X1300246Y849979D01*
X1300351Y849942D01*
X1300454Y849902D01*
X1300555Y849857D01*
X1300655Y849810D01*
X1300754Y849758D01*
X1300850Y849703D01*
X1300944Y849645D01*
X1301036Y849584D01*
X1301126Y849519D01*
X1301214Y849451D01*
X1301299Y849380D01*
X1301381Y849306D01*
X1301461Y849229D01*
X1301538Y849149D01*
X1301612Y849067D01*
X1301683Y848982D01*
X1301751Y848894D01*
X1301816Y848804D01*
X1301877Y848712D01*
X1301935Y848618D01*
X1301990Y848522D01*
X1302042Y848423D01*
X1302089Y848323D01*
X1302134Y848222D01*
X1302174Y848119D01*
X1302211Y848014D01*
X1302244Y847908D01*
X1302274Y847802D01*
X1302299Y847694D01*
X1302321Y847585D01*
X1302338Y847476D01*
X1302352Y847366D01*
X1302362Y847255D01*
X1302368Y847145D01*
X1302370Y847034D01*
X1302371Y847034D02*
X1302371Y842066D01*
X1302370Y842066D02*
X1302368Y841955D01*
X1302362Y841845D01*
X1302352Y841734D01*
X1302338Y841624D01*
X1302321Y841515D01*
X1302299Y841406D01*
X1302274Y841298D01*
X1302244Y841192D01*
X1302211Y841086D01*
X1302174Y840981D01*
X1302134Y840878D01*
X1302089Y840777D01*
X1302042Y840677D01*
X1301990Y840578D01*
X1301935Y840482D01*
X1301877Y840388D01*
X1301816Y840296D01*
X1301751Y840206D01*
X1301683Y840118D01*
X1301612Y840033D01*
X1301538Y839951D01*
X1301461Y839871D01*
X1301381Y839794D01*
X1301299Y839720D01*
X1301214Y839649D01*
X1301126Y839581D01*
X1301036Y839516D01*
X1300944Y839455D01*
X1300850Y839397D01*
X1300754Y839342D01*
X1300655Y839290D01*
X1300555Y839243D01*
X1300454Y839198D01*
X1300351Y839158D01*
X1300246Y839121D01*
X1300140Y839088D01*
X1300034Y839058D01*
X1299926Y839033D01*
X1299817Y839011D01*
X1299708Y838994D01*
X1299598Y838980D01*
X1299487Y838970D01*
X1299377Y838964D01*
X1299266Y838962D01*
X1296162Y838962D01*
X1311388Y850138D02*
X1311492Y850136D01*
X1311597Y850130D01*
X1311701Y850120D01*
X1311804Y850107D01*
X1311907Y850089D01*
X1312010Y850068D01*
X1312111Y850043D01*
X1312212Y850014D01*
X1312311Y849981D01*
X1312409Y849945D01*
X1312505Y849905D01*
X1312600Y849861D01*
X1312694Y849814D01*
X1312785Y849764D01*
X1312874Y849710D01*
X1312962Y849653D01*
X1313047Y849592D01*
X1313130Y849528D01*
X1313210Y849462D01*
X1313288Y849392D01*
X1313364Y849320D01*
X1313436Y849244D01*
X1313506Y849166D01*
X1313572Y849086D01*
X1313636Y849003D01*
X1313697Y848918D01*
X1313754Y848830D01*
X1313808Y848741D01*
X1313858Y848650D01*
X1313905Y848556D01*
X1313949Y848461D01*
X1313989Y848365D01*
X1314025Y848267D01*
X1314058Y848168D01*
X1314087Y848067D01*
X1314112Y847966D01*
X1314133Y847863D01*
X1314151Y847760D01*
X1314164Y847657D01*
X1314174Y847553D01*
X1314180Y847448D01*
X1314182Y847344D01*
X1311388Y850139D02*
X1311269Y850137D01*
X1311151Y850131D01*
X1311032Y850121D01*
X1310914Y850108D01*
X1310797Y850090D01*
X1310680Y850068D01*
X1310564Y850043D01*
X1310449Y850014D01*
X1310334Y849981D01*
X1310221Y849944D01*
X1310110Y849904D01*
X1309999Y849860D01*
X1309891Y849812D01*
X1309784Y849761D01*
X1309678Y849706D01*
X1309575Y849647D01*
X1309473Y849586D01*
X1309374Y849521D01*
X1309276Y849452D01*
X1309182Y849381D01*
X1309089Y849306D01*
X1308999Y849229D01*
X1308912Y849148D01*
X1308827Y849065D01*
X1308745Y848979D01*
X1308666Y848890D01*
X1308590Y848799D01*
X1308517Y848705D01*
X1308448Y848609D01*
X1308381Y848510D01*
X1308318Y848410D01*
X1308258Y848307D01*
X1308201Y848203D01*
X1308149Y848096D01*
X1308099Y847988D01*
X1308053Y847879D01*
X1308011Y847767D01*
X1307973Y847655D01*
X1313251Y845171D02*
X1313326Y845245D01*
X1313398Y845322D01*
X1313468Y845401D01*
X1313535Y845483D01*
X1313599Y845567D01*
X1313660Y845653D01*
X1313718Y845741D01*
X1313773Y845832D01*
X1313825Y845924D01*
X1313873Y846018D01*
X1313918Y846113D01*
X1313960Y846211D01*
X1313998Y846309D01*
X1314033Y846409D01*
X1314064Y846510D01*
X1314091Y846612D01*
X1314115Y846715D01*
X1314136Y846818D01*
X1314152Y846923D01*
X1314165Y847028D01*
X1314175Y847133D01*
X1314180Y847238D01*
X1314182Y847344D01*
X1313251Y845171D02*
X1307973Y838962D01*
X1314182Y838962D01*
D11*
X1338200Y792400D02*
X1354200Y792400D01*
X1354200Y782400D02*
X1338200Y782400D01*
X1348200Y785400D02*
X1348200Y789400D01*
D10*
X1296162Y788162D02*
X1296162Y799338D01*
X1299266Y799338D01*
X1299377Y799336D01*
X1299487Y799330D01*
X1299598Y799320D01*
X1299708Y799306D01*
X1299817Y799289D01*
X1299926Y799267D01*
X1300034Y799242D01*
X1300140Y799212D01*
X1300246Y799179D01*
X1300351Y799142D01*
X1300454Y799102D01*
X1300555Y799057D01*
X1300655Y799010D01*
X1300754Y798958D01*
X1300850Y798903D01*
X1300944Y798845D01*
X1301036Y798784D01*
X1301126Y798719D01*
X1301214Y798651D01*
X1301299Y798580D01*
X1301381Y798506D01*
X1301461Y798429D01*
X1301538Y798349D01*
X1301612Y798267D01*
X1301683Y798182D01*
X1301751Y798094D01*
X1301816Y798004D01*
X1301877Y797912D01*
X1301935Y797818D01*
X1301990Y797722D01*
X1302042Y797623D01*
X1302089Y797523D01*
X1302134Y797422D01*
X1302174Y797319D01*
X1302211Y797214D01*
X1302244Y797108D01*
X1302274Y797002D01*
X1302299Y796894D01*
X1302321Y796785D01*
X1302338Y796676D01*
X1302352Y796566D01*
X1302362Y796455D01*
X1302368Y796345D01*
X1302370Y796234D01*
X1302371Y796234D02*
X1302371Y791266D01*
X1302370Y791266D02*
X1302368Y791155D01*
X1302362Y791045D01*
X1302352Y790934D01*
X1302338Y790824D01*
X1302321Y790715D01*
X1302299Y790606D01*
X1302274Y790498D01*
X1302244Y790392D01*
X1302211Y790286D01*
X1302174Y790181D01*
X1302134Y790078D01*
X1302089Y789977D01*
X1302042Y789877D01*
X1301990Y789778D01*
X1301935Y789682D01*
X1301877Y789588D01*
X1301816Y789496D01*
X1301751Y789406D01*
X1301683Y789318D01*
X1301612Y789233D01*
X1301538Y789151D01*
X1301461Y789071D01*
X1301381Y788994D01*
X1301299Y788920D01*
X1301214Y788849D01*
X1301126Y788781D01*
X1301036Y788716D01*
X1300944Y788655D01*
X1300850Y788597D01*
X1300754Y788542D01*
X1300655Y788490D01*
X1300555Y788443D01*
X1300454Y788398D01*
X1300351Y788358D01*
X1300246Y788321D01*
X1300140Y788288D01*
X1300034Y788258D01*
X1299926Y788233D01*
X1299817Y788211D01*
X1299708Y788194D01*
X1299598Y788180D01*
X1299487Y788170D01*
X1299377Y788164D01*
X1299266Y788162D01*
X1296162Y788162D01*
X1307973Y788162D02*
X1311077Y788162D01*
X1311188Y788164D01*
X1311298Y788170D01*
X1311409Y788180D01*
X1311519Y788194D01*
X1311628Y788211D01*
X1311737Y788233D01*
X1311845Y788258D01*
X1311951Y788288D01*
X1312057Y788321D01*
X1312162Y788358D01*
X1312265Y788398D01*
X1312366Y788443D01*
X1312466Y788490D01*
X1312565Y788542D01*
X1312661Y788597D01*
X1312755Y788655D01*
X1312847Y788716D01*
X1312937Y788781D01*
X1313025Y788849D01*
X1313110Y788920D01*
X1313192Y788994D01*
X1313272Y789071D01*
X1313349Y789151D01*
X1313423Y789233D01*
X1313494Y789318D01*
X1313562Y789406D01*
X1313627Y789496D01*
X1313688Y789588D01*
X1313746Y789682D01*
X1313801Y789778D01*
X1313853Y789877D01*
X1313900Y789977D01*
X1313945Y790078D01*
X1313985Y790181D01*
X1314022Y790286D01*
X1314055Y790392D01*
X1314085Y790498D01*
X1314110Y790606D01*
X1314132Y790715D01*
X1314149Y790824D01*
X1314163Y790934D01*
X1314173Y791045D01*
X1314179Y791155D01*
X1314181Y791266D01*
X1314179Y791377D01*
X1314173Y791487D01*
X1314163Y791598D01*
X1314149Y791708D01*
X1314132Y791817D01*
X1314110Y791926D01*
X1314085Y792034D01*
X1314055Y792140D01*
X1314022Y792246D01*
X1313985Y792351D01*
X1313945Y792454D01*
X1313900Y792555D01*
X1313853Y792655D01*
X1313801Y792754D01*
X1313746Y792850D01*
X1313688Y792944D01*
X1313627Y793036D01*
X1313562Y793126D01*
X1313494Y793214D01*
X1313423Y793299D01*
X1313349Y793381D01*
X1313272Y793461D01*
X1313192Y793538D01*
X1313110Y793612D01*
X1313025Y793683D01*
X1312937Y793751D01*
X1312847Y793816D01*
X1312755Y793877D01*
X1312661Y793935D01*
X1312565Y793990D01*
X1312466Y794042D01*
X1312366Y794089D01*
X1312265Y794134D01*
X1312162Y794174D01*
X1312057Y794211D01*
X1311951Y794244D01*
X1311845Y794274D01*
X1311737Y794299D01*
X1311628Y794321D01*
X1311519Y794338D01*
X1311409Y794352D01*
X1311298Y794362D01*
X1311188Y794368D01*
X1311077Y794370D01*
X1311698Y799338D02*
X1307973Y799338D01*
X1311698Y799338D02*
X1311797Y799336D01*
X1311895Y799330D01*
X1311994Y799320D01*
X1312091Y799307D01*
X1312189Y799289D01*
X1312285Y799268D01*
X1312381Y799242D01*
X1312475Y799213D01*
X1312568Y799181D01*
X1312660Y799144D01*
X1312750Y799104D01*
X1312839Y799060D01*
X1312926Y799013D01*
X1313011Y798963D01*
X1313093Y798909D01*
X1313174Y798852D01*
X1313252Y798792D01*
X1313328Y798728D01*
X1313401Y798662D01*
X1313472Y798593D01*
X1313540Y798521D01*
X1313604Y798446D01*
X1313666Y798369D01*
X1313725Y798290D01*
X1313780Y798208D01*
X1313833Y798124D01*
X1313881Y798039D01*
X1313927Y797951D01*
X1313969Y797861D01*
X1314007Y797770D01*
X1314041Y797678D01*
X1314072Y797584D01*
X1314099Y797489D01*
X1314123Y797393D01*
X1314142Y797296D01*
X1314158Y797199D01*
X1314170Y797101D01*
X1314178Y797002D01*
X1314182Y796903D01*
X1314182Y796805D01*
X1314178Y796706D01*
X1314170Y796607D01*
X1314158Y796509D01*
X1314142Y796412D01*
X1314123Y796315D01*
X1314099Y796219D01*
X1314072Y796124D01*
X1314041Y796030D01*
X1314007Y795938D01*
X1313969Y795847D01*
X1313927Y795757D01*
X1313881Y795669D01*
X1313833Y795584D01*
X1313780Y795500D01*
X1313725Y795418D01*
X1313666Y795339D01*
X1313604Y795262D01*
X1313540Y795187D01*
X1313472Y795115D01*
X1313401Y795046D01*
X1313328Y794980D01*
X1313252Y794916D01*
X1313174Y794856D01*
X1313093Y794799D01*
X1313011Y794745D01*
X1312926Y794695D01*
X1312839Y794648D01*
X1312750Y794604D01*
X1312660Y794564D01*
X1312568Y794527D01*
X1312475Y794495D01*
X1312381Y794466D01*
X1312285Y794440D01*
X1312189Y794419D01*
X1312091Y794401D01*
X1311994Y794388D01*
X1311895Y794378D01*
X1311797Y794372D01*
X1311698Y794370D01*
X1311698Y794371D02*
X1309215Y794371D01*
D11*
X343700Y304000D02*
X343700Y254000D01*
X343700Y344000D02*
X343700Y379000D01*
X443700Y379000D01*
X443700Y344000D01*
X443700Y304000D02*
X443700Y254000D01*
X433700Y254000D01*
X353700Y254000D02*
X343700Y254000D01*
X363700Y324000D02*
X363709Y324736D01*
X363736Y325472D01*
X363781Y326207D01*
X363844Y326941D01*
X363926Y327672D01*
X364025Y328402D01*
X364142Y329129D01*
X364276Y329853D01*
X364429Y330573D01*
X364599Y331289D01*
X364787Y332001D01*
X364992Y332709D01*
X365214Y333410D01*
X365454Y334107D01*
X365710Y334797D01*
X365984Y335481D01*
X366274Y336157D01*
X366580Y336827D01*
X366903Y337488D01*
X367242Y338142D01*
X367597Y338787D01*
X367968Y339423D01*
X368354Y340050D01*
X368756Y340667D01*
X369172Y341274D01*
X369604Y341871D01*
X370050Y342457D01*
X370510Y343032D01*
X370984Y343595D01*
X371471Y344147D01*
X371973Y344686D01*
X372487Y345213D01*
X373014Y345727D01*
X373553Y346229D01*
X374105Y346716D01*
X374668Y347190D01*
X375243Y347650D01*
X375829Y348096D01*
X376426Y348528D01*
X377033Y348944D01*
X377650Y349346D01*
X378277Y349732D01*
X378913Y350103D01*
X379558Y350458D01*
X380212Y350797D01*
X380873Y351120D01*
X381543Y351426D01*
X382219Y351716D01*
X382903Y351990D01*
X383593Y352246D01*
X384290Y352486D01*
X384991Y352708D01*
X385699Y352913D01*
X386411Y353101D01*
X387127Y353271D01*
X387847Y353424D01*
X388571Y353558D01*
X389298Y353675D01*
X390028Y353774D01*
X390759Y353856D01*
X391493Y353919D01*
X392228Y353964D01*
X392964Y353991D01*
X393700Y354000D01*
X394436Y353991D01*
X395172Y353964D01*
X395907Y353919D01*
X396641Y353856D01*
X397372Y353774D01*
X398102Y353675D01*
X398829Y353558D01*
X399553Y353424D01*
X400273Y353271D01*
X400989Y353101D01*
X401701Y352913D01*
X402409Y352708D01*
X403110Y352486D01*
X403807Y352246D01*
X404497Y351990D01*
X405181Y351716D01*
X405857Y351426D01*
X406527Y351120D01*
X407188Y350797D01*
X407842Y350458D01*
X408487Y350103D01*
X409123Y349732D01*
X409750Y349346D01*
X410367Y348944D01*
X410974Y348528D01*
X411571Y348096D01*
X412157Y347650D01*
X412732Y347190D01*
X413295Y346716D01*
X413847Y346229D01*
X414386Y345727D01*
X414913Y345213D01*
X415427Y344686D01*
X415929Y344147D01*
X416416Y343595D01*
X416890Y343032D01*
X417350Y342457D01*
X417796Y341871D01*
X418228Y341274D01*
X418644Y340667D01*
X419046Y340050D01*
X419432Y339423D01*
X419803Y338787D01*
X420158Y338142D01*
X420497Y337488D01*
X420820Y336827D01*
X421126Y336157D01*
X421416Y335481D01*
X421690Y334797D01*
X421946Y334107D01*
X422186Y333410D01*
X422408Y332709D01*
X422613Y332001D01*
X422801Y331289D01*
X422971Y330573D01*
X423124Y329853D01*
X423258Y329129D01*
X423375Y328402D01*
X423474Y327672D01*
X423556Y326941D01*
X423619Y326207D01*
X423664Y325472D01*
X423691Y324736D01*
X423700Y324000D01*
X423691Y323264D01*
X423664Y322528D01*
X423619Y321793D01*
X423556Y321059D01*
X423474Y320328D01*
X423375Y319598D01*
X423258Y318871D01*
X423124Y318147D01*
X422971Y317427D01*
X422801Y316711D01*
X422613Y315999D01*
X422408Y315291D01*
X422186Y314590D01*
X421946Y313893D01*
X421690Y313203D01*
X421416Y312519D01*
X421126Y311843D01*
X420820Y311173D01*
X420497Y310512D01*
X420158Y309858D01*
X419803Y309213D01*
X419432Y308577D01*
X419046Y307950D01*
X418644Y307333D01*
X418228Y306726D01*
X417796Y306129D01*
X417350Y305543D01*
X416890Y304968D01*
X416416Y304405D01*
X415929Y303853D01*
X415427Y303314D01*
X414913Y302787D01*
X414386Y302273D01*
X413847Y301771D01*
X413295Y301284D01*
X412732Y300810D01*
X412157Y300350D01*
X411571Y299904D01*
X410974Y299472D01*
X410367Y299056D01*
X409750Y298654D01*
X409123Y298268D01*
X408487Y297897D01*
X407842Y297542D01*
X407188Y297203D01*
X406527Y296880D01*
X405857Y296574D01*
X405181Y296284D01*
X404497Y296010D01*
X403807Y295754D01*
X403110Y295514D01*
X402409Y295292D01*
X401701Y295087D01*
X400989Y294899D01*
X400273Y294729D01*
X399553Y294576D01*
X398829Y294442D01*
X398102Y294325D01*
X397372Y294226D01*
X396641Y294144D01*
X395907Y294081D01*
X395172Y294036D01*
X394436Y294009D01*
X393700Y294000D01*
X392964Y294009D01*
X392228Y294036D01*
X391493Y294081D01*
X390759Y294144D01*
X390028Y294226D01*
X389298Y294325D01*
X388571Y294442D01*
X387847Y294576D01*
X387127Y294729D01*
X386411Y294899D01*
X385699Y295087D01*
X384991Y295292D01*
X384290Y295514D01*
X383593Y295754D01*
X382903Y296010D01*
X382219Y296284D01*
X381543Y296574D01*
X380873Y296880D01*
X380212Y297203D01*
X379558Y297542D01*
X378913Y297897D01*
X378277Y298268D01*
X377650Y298654D01*
X377033Y299056D01*
X376426Y299472D01*
X375829Y299904D01*
X375243Y300350D01*
X374668Y300810D01*
X374105Y301284D01*
X373553Y301771D01*
X373014Y302273D01*
X372487Y302787D01*
X371973Y303314D01*
X371471Y303853D01*
X370984Y304405D01*
X370510Y304968D01*
X370050Y305543D01*
X369604Y306129D01*
X369172Y306726D01*
X368756Y307333D01*
X368354Y307950D01*
X367968Y308577D01*
X367597Y309213D01*
X367242Y309858D01*
X366903Y310512D01*
X366580Y311173D01*
X366274Y311843D01*
X365984Y312519D01*
X365710Y313203D01*
X365454Y313893D01*
X365214Y314590D01*
X364992Y315291D01*
X364787Y315999D01*
X364599Y316711D01*
X364429Y317427D01*
X364276Y318147D01*
X364142Y318871D01*
X364025Y319598D01*
X363926Y320328D01*
X363844Y321059D01*
X363781Y321793D01*
X363736Y322528D01*
X363709Y323264D01*
X363700Y324000D01*
D10*
X343662Y381762D02*
X343662Y392938D01*
X346766Y392938D01*
X346877Y392936D01*
X346987Y392930D01*
X347098Y392920D01*
X347208Y392906D01*
X347317Y392889D01*
X347426Y392867D01*
X347534Y392842D01*
X347640Y392812D01*
X347746Y392779D01*
X347851Y392742D01*
X347954Y392702D01*
X348055Y392657D01*
X348155Y392610D01*
X348254Y392558D01*
X348350Y392503D01*
X348444Y392445D01*
X348536Y392384D01*
X348626Y392319D01*
X348714Y392251D01*
X348799Y392180D01*
X348881Y392106D01*
X348961Y392029D01*
X349038Y391949D01*
X349112Y391867D01*
X349183Y391782D01*
X349251Y391694D01*
X349316Y391604D01*
X349377Y391512D01*
X349435Y391418D01*
X349490Y391322D01*
X349542Y391223D01*
X349589Y391123D01*
X349634Y391022D01*
X349674Y390919D01*
X349711Y390814D01*
X349744Y390708D01*
X349774Y390602D01*
X349799Y390494D01*
X349821Y390385D01*
X349838Y390276D01*
X349852Y390166D01*
X349862Y390055D01*
X349868Y389945D01*
X349870Y389834D01*
X349868Y389723D01*
X349862Y389613D01*
X349852Y389502D01*
X349838Y389392D01*
X349821Y389283D01*
X349799Y389174D01*
X349774Y389066D01*
X349744Y388960D01*
X349711Y388854D01*
X349674Y388749D01*
X349634Y388646D01*
X349589Y388545D01*
X349542Y388445D01*
X349490Y388346D01*
X349435Y388250D01*
X349377Y388156D01*
X349316Y388064D01*
X349251Y387974D01*
X349183Y387886D01*
X349112Y387801D01*
X349038Y387719D01*
X348961Y387639D01*
X348881Y387562D01*
X348799Y387488D01*
X348714Y387417D01*
X348626Y387349D01*
X348536Y387284D01*
X348444Y387223D01*
X348350Y387165D01*
X348254Y387110D01*
X348155Y387058D01*
X348055Y387011D01*
X347954Y386966D01*
X347851Y386926D01*
X347746Y386889D01*
X347640Y386856D01*
X347534Y386826D01*
X347426Y386801D01*
X347317Y386779D01*
X347208Y386762D01*
X347098Y386748D01*
X346987Y386738D01*
X346877Y386732D01*
X346766Y386730D01*
X346766Y386729D02*
X343662Y386729D01*
X347387Y386729D02*
X349871Y381762D01*
X355000Y390454D02*
X358104Y392938D01*
X358104Y381762D01*
X355000Y381762D02*
X361209Y381762D01*
D11*
X115100Y304000D02*
X115100Y254000D01*
X115100Y344000D02*
X115100Y379000D01*
X215100Y379000D01*
X215100Y344000D01*
X215100Y304000D02*
X215100Y254000D01*
X205100Y254000D01*
X125100Y254000D02*
X115100Y254000D01*
X135100Y324000D02*
X135109Y324736D01*
X135136Y325472D01*
X135181Y326207D01*
X135244Y326941D01*
X135326Y327672D01*
X135425Y328402D01*
X135542Y329129D01*
X135676Y329853D01*
X135829Y330573D01*
X135999Y331289D01*
X136187Y332001D01*
X136392Y332709D01*
X136614Y333410D01*
X136854Y334107D01*
X137110Y334797D01*
X137384Y335481D01*
X137674Y336157D01*
X137980Y336827D01*
X138303Y337488D01*
X138642Y338142D01*
X138997Y338787D01*
X139368Y339423D01*
X139754Y340050D01*
X140156Y340667D01*
X140572Y341274D01*
X141004Y341871D01*
X141450Y342457D01*
X141910Y343032D01*
X142384Y343595D01*
X142871Y344147D01*
X143373Y344686D01*
X143887Y345213D01*
X144414Y345727D01*
X144953Y346229D01*
X145505Y346716D01*
X146068Y347190D01*
X146643Y347650D01*
X147229Y348096D01*
X147826Y348528D01*
X148433Y348944D01*
X149050Y349346D01*
X149677Y349732D01*
X150313Y350103D01*
X150958Y350458D01*
X151612Y350797D01*
X152273Y351120D01*
X152943Y351426D01*
X153619Y351716D01*
X154303Y351990D01*
X154993Y352246D01*
X155690Y352486D01*
X156391Y352708D01*
X157099Y352913D01*
X157811Y353101D01*
X158527Y353271D01*
X159247Y353424D01*
X159971Y353558D01*
X160698Y353675D01*
X161428Y353774D01*
X162159Y353856D01*
X162893Y353919D01*
X163628Y353964D01*
X164364Y353991D01*
X165100Y354000D01*
X165836Y353991D01*
X166572Y353964D01*
X167307Y353919D01*
X168041Y353856D01*
X168772Y353774D01*
X169502Y353675D01*
X170229Y353558D01*
X170953Y353424D01*
X171673Y353271D01*
X172389Y353101D01*
X173101Y352913D01*
X173809Y352708D01*
X174510Y352486D01*
X175207Y352246D01*
X175897Y351990D01*
X176581Y351716D01*
X177257Y351426D01*
X177927Y351120D01*
X178588Y350797D01*
X179242Y350458D01*
X179887Y350103D01*
X180523Y349732D01*
X181150Y349346D01*
X181767Y348944D01*
X182374Y348528D01*
X182971Y348096D01*
X183557Y347650D01*
X184132Y347190D01*
X184695Y346716D01*
X185247Y346229D01*
X185786Y345727D01*
X186313Y345213D01*
X186827Y344686D01*
X187329Y344147D01*
X187816Y343595D01*
X188290Y343032D01*
X188750Y342457D01*
X189196Y341871D01*
X189628Y341274D01*
X190044Y340667D01*
X190446Y340050D01*
X190832Y339423D01*
X191203Y338787D01*
X191558Y338142D01*
X191897Y337488D01*
X192220Y336827D01*
X192526Y336157D01*
X192816Y335481D01*
X193090Y334797D01*
X193346Y334107D01*
X193586Y333410D01*
X193808Y332709D01*
X194013Y332001D01*
X194201Y331289D01*
X194371Y330573D01*
X194524Y329853D01*
X194658Y329129D01*
X194775Y328402D01*
X194874Y327672D01*
X194956Y326941D01*
X195019Y326207D01*
X195064Y325472D01*
X195091Y324736D01*
X195100Y324000D01*
X195091Y323264D01*
X195064Y322528D01*
X195019Y321793D01*
X194956Y321059D01*
X194874Y320328D01*
X194775Y319598D01*
X194658Y318871D01*
X194524Y318147D01*
X194371Y317427D01*
X194201Y316711D01*
X194013Y315999D01*
X193808Y315291D01*
X193586Y314590D01*
X193346Y313893D01*
X193090Y313203D01*
X192816Y312519D01*
X192526Y311843D01*
X192220Y311173D01*
X191897Y310512D01*
X191558Y309858D01*
X191203Y309213D01*
X190832Y308577D01*
X190446Y307950D01*
X190044Y307333D01*
X189628Y306726D01*
X189196Y306129D01*
X188750Y305543D01*
X188290Y304968D01*
X187816Y304405D01*
X187329Y303853D01*
X186827Y303314D01*
X186313Y302787D01*
X185786Y302273D01*
X185247Y301771D01*
X184695Y301284D01*
X184132Y300810D01*
X183557Y300350D01*
X182971Y299904D01*
X182374Y299472D01*
X181767Y299056D01*
X181150Y298654D01*
X180523Y298268D01*
X179887Y297897D01*
X179242Y297542D01*
X178588Y297203D01*
X177927Y296880D01*
X177257Y296574D01*
X176581Y296284D01*
X175897Y296010D01*
X175207Y295754D01*
X174510Y295514D01*
X173809Y295292D01*
X173101Y295087D01*
X172389Y294899D01*
X171673Y294729D01*
X170953Y294576D01*
X170229Y294442D01*
X169502Y294325D01*
X168772Y294226D01*
X168041Y294144D01*
X167307Y294081D01*
X166572Y294036D01*
X165836Y294009D01*
X165100Y294000D01*
X164364Y294009D01*
X163628Y294036D01*
X162893Y294081D01*
X162159Y294144D01*
X161428Y294226D01*
X160698Y294325D01*
X159971Y294442D01*
X159247Y294576D01*
X158527Y294729D01*
X157811Y294899D01*
X157099Y295087D01*
X156391Y295292D01*
X155690Y295514D01*
X154993Y295754D01*
X154303Y296010D01*
X153619Y296284D01*
X152943Y296574D01*
X152273Y296880D01*
X151612Y297203D01*
X150958Y297542D01*
X150313Y297897D01*
X149677Y298268D01*
X149050Y298654D01*
X148433Y299056D01*
X147826Y299472D01*
X147229Y299904D01*
X146643Y300350D01*
X146068Y300810D01*
X145505Y301284D01*
X144953Y301771D01*
X144414Y302273D01*
X143887Y302787D01*
X143373Y303314D01*
X142871Y303853D01*
X142384Y304405D01*
X141910Y304968D01*
X141450Y305543D01*
X141004Y306129D01*
X140572Y306726D01*
X140156Y307333D01*
X139754Y307950D01*
X139368Y308577D01*
X138997Y309213D01*
X138642Y309858D01*
X138303Y310512D01*
X137980Y311173D01*
X137674Y311843D01*
X137384Y312519D01*
X137110Y313203D01*
X136854Y313893D01*
X136614Y314590D01*
X136392Y315291D01*
X136187Y315999D01*
X135999Y316711D01*
X135829Y317427D01*
X135676Y318147D01*
X135542Y318871D01*
X135425Y319598D01*
X135326Y320328D01*
X135244Y321059D01*
X135181Y321793D01*
X135136Y322528D01*
X135109Y323264D01*
X135100Y324000D01*
D10*
X165862Y234188D02*
X165862Y223012D01*
X165862Y234188D02*
X168966Y234188D01*
X169077Y234186D01*
X169187Y234180D01*
X169298Y234170D01*
X169408Y234156D01*
X169517Y234139D01*
X169626Y234117D01*
X169734Y234092D01*
X169840Y234062D01*
X169946Y234029D01*
X170051Y233992D01*
X170154Y233952D01*
X170255Y233907D01*
X170355Y233860D01*
X170454Y233808D01*
X170550Y233753D01*
X170644Y233695D01*
X170736Y233634D01*
X170826Y233569D01*
X170914Y233501D01*
X170999Y233430D01*
X171081Y233356D01*
X171161Y233279D01*
X171238Y233199D01*
X171312Y233117D01*
X171383Y233032D01*
X171451Y232944D01*
X171516Y232854D01*
X171577Y232762D01*
X171635Y232668D01*
X171690Y232572D01*
X171742Y232473D01*
X171789Y232373D01*
X171834Y232272D01*
X171874Y232169D01*
X171911Y232064D01*
X171944Y231958D01*
X171974Y231852D01*
X171999Y231744D01*
X172021Y231635D01*
X172038Y231526D01*
X172052Y231416D01*
X172062Y231305D01*
X172068Y231195D01*
X172070Y231084D01*
X172068Y230973D01*
X172062Y230863D01*
X172052Y230752D01*
X172038Y230642D01*
X172021Y230533D01*
X171999Y230424D01*
X171974Y230316D01*
X171944Y230210D01*
X171911Y230104D01*
X171874Y229999D01*
X171834Y229896D01*
X171789Y229795D01*
X171742Y229695D01*
X171690Y229596D01*
X171635Y229500D01*
X171577Y229406D01*
X171516Y229314D01*
X171451Y229224D01*
X171383Y229136D01*
X171312Y229051D01*
X171238Y228969D01*
X171161Y228889D01*
X171081Y228812D01*
X170999Y228738D01*
X170914Y228667D01*
X170826Y228599D01*
X170736Y228534D01*
X170644Y228473D01*
X170550Y228415D01*
X170454Y228360D01*
X170355Y228308D01*
X170255Y228261D01*
X170154Y228216D01*
X170051Y228176D01*
X169946Y228139D01*
X169840Y228106D01*
X169734Y228076D01*
X169626Y228051D01*
X169517Y228029D01*
X169408Y228012D01*
X169298Y227998D01*
X169187Y227988D01*
X169077Y227982D01*
X168966Y227980D01*
X168966Y227979D02*
X165862Y227979D01*
X169587Y227979D02*
X172071Y223012D01*
X180615Y234188D02*
X180719Y234186D01*
X180824Y234180D01*
X180928Y234170D01*
X181031Y234157D01*
X181134Y234139D01*
X181237Y234118D01*
X181338Y234093D01*
X181439Y234064D01*
X181538Y234031D01*
X181636Y233995D01*
X181732Y233955D01*
X181827Y233911D01*
X181921Y233864D01*
X182012Y233814D01*
X182101Y233760D01*
X182189Y233703D01*
X182274Y233642D01*
X182357Y233578D01*
X182437Y233512D01*
X182515Y233442D01*
X182591Y233370D01*
X182663Y233294D01*
X182733Y233216D01*
X182799Y233136D01*
X182863Y233053D01*
X182924Y232968D01*
X182981Y232880D01*
X183035Y232791D01*
X183085Y232700D01*
X183132Y232606D01*
X183176Y232511D01*
X183216Y232415D01*
X183252Y232317D01*
X183285Y232218D01*
X183314Y232117D01*
X183339Y232016D01*
X183360Y231913D01*
X183378Y231810D01*
X183391Y231707D01*
X183401Y231603D01*
X183407Y231498D01*
X183409Y231394D01*
X180615Y234189D02*
X180496Y234187D01*
X180378Y234181D01*
X180259Y234171D01*
X180141Y234158D01*
X180024Y234140D01*
X179907Y234118D01*
X179791Y234093D01*
X179676Y234064D01*
X179561Y234031D01*
X179448Y233994D01*
X179337Y233954D01*
X179226Y233910D01*
X179118Y233862D01*
X179011Y233811D01*
X178905Y233756D01*
X178802Y233697D01*
X178700Y233636D01*
X178601Y233571D01*
X178503Y233502D01*
X178409Y233431D01*
X178316Y233356D01*
X178226Y233279D01*
X178139Y233198D01*
X178054Y233115D01*
X177972Y233029D01*
X177893Y232940D01*
X177817Y232849D01*
X177744Y232755D01*
X177675Y232659D01*
X177608Y232560D01*
X177545Y232460D01*
X177485Y232357D01*
X177428Y232253D01*
X177376Y232146D01*
X177326Y232038D01*
X177280Y231929D01*
X177238Y231817D01*
X177200Y231705D01*
X182478Y229221D02*
X182553Y229295D01*
X182625Y229372D01*
X182695Y229451D01*
X182762Y229533D01*
X182826Y229617D01*
X182887Y229703D01*
X182945Y229791D01*
X183000Y229882D01*
X183052Y229974D01*
X183100Y230068D01*
X183145Y230163D01*
X183187Y230261D01*
X183225Y230359D01*
X183260Y230459D01*
X183291Y230560D01*
X183318Y230662D01*
X183342Y230765D01*
X183363Y230868D01*
X183379Y230973D01*
X183392Y231078D01*
X183402Y231183D01*
X183407Y231288D01*
X183409Y231394D01*
X182478Y229221D02*
X177200Y223012D01*
X183409Y223012D01*
D12*
X443700Y79700D02*
X443942Y79703D01*
X444183Y79712D01*
X444424Y79726D01*
X444665Y79747D01*
X444905Y79773D01*
X445145Y79805D01*
X445384Y79843D01*
X445621Y79886D01*
X445858Y79936D01*
X446093Y79991D01*
X446327Y80051D01*
X446559Y80118D01*
X446790Y80189D01*
X447019Y80267D01*
X447246Y80350D01*
X447471Y80438D01*
X447694Y80532D01*
X447914Y80631D01*
X448132Y80736D01*
X448347Y80845D01*
X448560Y80960D01*
X448770Y81080D01*
X448976Y81205D01*
X449180Y81335D01*
X449381Y81470D01*
X449578Y81610D01*
X449772Y81754D01*
X449962Y81903D01*
X450148Y82057D01*
X450331Y82215D01*
X450510Y82377D01*
X450685Y82544D01*
X450856Y82715D01*
X451023Y82890D01*
X451185Y83069D01*
X451343Y83252D01*
X451497Y83438D01*
X451646Y83628D01*
X451790Y83822D01*
X451930Y84019D01*
X452065Y84220D01*
X452195Y84424D01*
X452320Y84630D01*
X452440Y84840D01*
X452555Y85053D01*
X452664Y85268D01*
X452769Y85486D01*
X452868Y85706D01*
X452962Y85929D01*
X453050Y86154D01*
X453133Y86381D01*
X453211Y86610D01*
X453282Y86841D01*
X453349Y87073D01*
X453409Y87307D01*
X453464Y87542D01*
X453514Y87779D01*
X453557Y88016D01*
X453595Y88255D01*
X453627Y88495D01*
X453653Y88735D01*
X453674Y88976D01*
X453688Y89217D01*
X453697Y89458D01*
X453700Y89700D01*
X443700Y79700D02*
X343700Y79700D01*
X343458Y79703D01*
X343217Y79712D01*
X342976Y79726D01*
X342735Y79747D01*
X342495Y79773D01*
X342255Y79805D01*
X342016Y79843D01*
X341779Y79886D01*
X341542Y79936D01*
X341307Y79991D01*
X341073Y80051D01*
X340841Y80118D01*
X340610Y80189D01*
X340381Y80267D01*
X340154Y80350D01*
X339929Y80438D01*
X339706Y80532D01*
X339486Y80631D01*
X339268Y80736D01*
X339053Y80845D01*
X338840Y80960D01*
X338630Y81080D01*
X338424Y81205D01*
X338220Y81335D01*
X338019Y81470D01*
X337822Y81610D01*
X337628Y81754D01*
X337438Y81903D01*
X337252Y82057D01*
X337069Y82215D01*
X336890Y82377D01*
X336715Y82544D01*
X336544Y82715D01*
X336377Y82890D01*
X336215Y83069D01*
X336057Y83252D01*
X335903Y83438D01*
X335754Y83628D01*
X335610Y83822D01*
X335470Y84019D01*
X335335Y84220D01*
X335205Y84424D01*
X335080Y84630D01*
X334960Y84840D01*
X334845Y85053D01*
X334736Y85268D01*
X334631Y85486D01*
X334532Y85706D01*
X334438Y85929D01*
X334350Y86154D01*
X334267Y86381D01*
X334189Y86610D01*
X334118Y86841D01*
X334051Y87073D01*
X333991Y87307D01*
X333936Y87542D01*
X333886Y87779D01*
X333843Y88016D01*
X333805Y88255D01*
X333773Y88495D01*
X333747Y88735D01*
X333726Y88976D01*
X333712Y89217D01*
X333703Y89458D01*
X333700Y89700D01*
X333700Y189700D02*
X333703Y189942D01*
X333712Y190183D01*
X333726Y190424D01*
X333747Y190665D01*
X333773Y190905D01*
X333805Y191145D01*
X333843Y191384D01*
X333886Y191621D01*
X333936Y191858D01*
X333991Y192093D01*
X334051Y192327D01*
X334118Y192559D01*
X334189Y192790D01*
X334267Y193019D01*
X334350Y193246D01*
X334438Y193471D01*
X334532Y193694D01*
X334631Y193914D01*
X334736Y194132D01*
X334845Y194347D01*
X334960Y194560D01*
X335080Y194770D01*
X335205Y194976D01*
X335335Y195180D01*
X335470Y195381D01*
X335610Y195578D01*
X335754Y195772D01*
X335903Y195962D01*
X336057Y196148D01*
X336215Y196331D01*
X336377Y196510D01*
X336544Y196685D01*
X336715Y196856D01*
X336890Y197023D01*
X337069Y197185D01*
X337252Y197343D01*
X337438Y197497D01*
X337628Y197646D01*
X337822Y197790D01*
X338019Y197930D01*
X338220Y198065D01*
X338424Y198195D01*
X338630Y198320D01*
X338840Y198440D01*
X339053Y198555D01*
X339268Y198664D01*
X339486Y198769D01*
X339706Y198868D01*
X339929Y198962D01*
X340154Y199050D01*
X340381Y199133D01*
X340610Y199211D01*
X340841Y199282D01*
X341073Y199349D01*
X341307Y199409D01*
X341542Y199464D01*
X341779Y199514D01*
X342016Y199557D01*
X342255Y199595D01*
X342495Y199627D01*
X342735Y199653D01*
X342976Y199674D01*
X343217Y199688D01*
X343458Y199697D01*
X343700Y199700D01*
X443700Y199700D01*
X443942Y199697D01*
X444183Y199688D01*
X444424Y199674D01*
X444665Y199653D01*
X444905Y199627D01*
X445145Y199595D01*
X445384Y199557D01*
X445621Y199514D01*
X445858Y199464D01*
X446093Y199409D01*
X446327Y199349D01*
X446559Y199282D01*
X446790Y199211D01*
X447019Y199133D01*
X447246Y199050D01*
X447471Y198962D01*
X447694Y198868D01*
X447914Y198769D01*
X448132Y198664D01*
X448347Y198555D01*
X448560Y198440D01*
X448770Y198320D01*
X448976Y198195D01*
X449180Y198065D01*
X449381Y197930D01*
X449578Y197790D01*
X449772Y197646D01*
X449962Y197497D01*
X450148Y197343D01*
X450331Y197185D01*
X450510Y197023D01*
X450685Y196856D01*
X450856Y196685D01*
X451023Y196510D01*
X451185Y196331D01*
X451343Y196148D01*
X451497Y195962D01*
X451646Y195772D01*
X451790Y195578D01*
X451930Y195381D01*
X452065Y195180D01*
X452195Y194976D01*
X452320Y194770D01*
X452440Y194560D01*
X452555Y194347D01*
X452664Y194132D01*
X452769Y193914D01*
X452868Y193694D01*
X452962Y193471D01*
X453050Y193246D01*
X453133Y193019D01*
X453211Y192790D01*
X453282Y192559D01*
X453349Y192327D01*
X453409Y192093D01*
X453464Y191858D01*
X453514Y191621D01*
X453557Y191384D01*
X453595Y191145D01*
X453627Y190905D01*
X453653Y190665D01*
X453674Y190424D01*
X453688Y190183D01*
X453697Y189942D01*
X453700Y189700D01*
X358345Y139700D02*
X358356Y140568D01*
X358388Y141435D01*
X358441Y142301D01*
X358515Y143165D01*
X358611Y144028D01*
X358728Y144888D01*
X358866Y145744D01*
X359024Y146597D01*
X359204Y147446D01*
X359405Y148291D01*
X359626Y149130D01*
X359867Y149963D01*
X360129Y150790D01*
X360412Y151611D01*
X360714Y152424D01*
X361036Y153230D01*
X361378Y154027D01*
X361739Y154816D01*
X362120Y155596D01*
X362520Y156366D01*
X362938Y157126D01*
X363375Y157876D01*
X363830Y158615D01*
X364303Y159342D01*
X364794Y160058D01*
X365303Y160761D01*
X365828Y161452D01*
X366370Y162129D01*
X366929Y162793D01*
X367504Y163443D01*
X368094Y164079D01*
X368700Y164700D01*
X369321Y165306D01*
X369957Y165896D01*
X370607Y166471D01*
X371271Y167030D01*
X371948Y167572D01*
X372639Y168097D01*
X373342Y168606D01*
X374058Y169097D01*
X374785Y169570D01*
X375524Y170025D01*
X376274Y170462D01*
X377034Y170880D01*
X377804Y171280D01*
X378584Y171661D01*
X379373Y172022D01*
X380170Y172364D01*
X380976Y172686D01*
X381789Y172988D01*
X382610Y173271D01*
X383437Y173533D01*
X384270Y173774D01*
X385109Y173995D01*
X385954Y174196D01*
X386803Y174376D01*
X387656Y174534D01*
X388512Y174672D01*
X389372Y174789D01*
X390235Y174885D01*
X391099Y174959D01*
X391965Y175012D01*
X392832Y175044D01*
X393700Y175055D01*
X394568Y175044D01*
X395435Y175012D01*
X396301Y174959D01*
X397165Y174885D01*
X398028Y174789D01*
X398888Y174672D01*
X399744Y174534D01*
X400597Y174376D01*
X401446Y174196D01*
X402291Y173995D01*
X403130Y173774D01*
X403963Y173533D01*
X404790Y173271D01*
X405611Y172988D01*
X406424Y172686D01*
X407230Y172364D01*
X408027Y172022D01*
X408816Y171661D01*
X409596Y171280D01*
X410366Y170880D01*
X411126Y170462D01*
X411876Y170025D01*
X412615Y169570D01*
X413342Y169097D01*
X414058Y168606D01*
X414761Y168097D01*
X415452Y167572D01*
X416129Y167030D01*
X416793Y166471D01*
X417443Y165896D01*
X418079Y165306D01*
X418700Y164700D01*
X419306Y164079D01*
X419896Y163443D01*
X420471Y162793D01*
X421030Y162129D01*
X421572Y161452D01*
X422097Y160761D01*
X422606Y160058D01*
X423097Y159342D01*
X423570Y158615D01*
X424025Y157876D01*
X424462Y157126D01*
X424880Y156366D01*
X425280Y155596D01*
X425661Y154816D01*
X426022Y154027D01*
X426364Y153230D01*
X426686Y152424D01*
X426988Y151611D01*
X427271Y150790D01*
X427533Y149963D01*
X427774Y149130D01*
X427995Y148291D01*
X428196Y147446D01*
X428376Y146597D01*
X428534Y145744D01*
X428672Y144888D01*
X428789Y144028D01*
X428885Y143165D01*
X428959Y142301D01*
X429012Y141435D01*
X429044Y140568D01*
X429055Y139700D01*
X429044Y138832D01*
X429012Y137965D01*
X428959Y137099D01*
X428885Y136235D01*
X428789Y135372D01*
X428672Y134512D01*
X428534Y133656D01*
X428376Y132803D01*
X428196Y131954D01*
X427995Y131109D01*
X427774Y130270D01*
X427533Y129437D01*
X427271Y128610D01*
X426988Y127789D01*
X426686Y126976D01*
X426364Y126170D01*
X426022Y125373D01*
X425661Y124584D01*
X425280Y123804D01*
X424880Y123034D01*
X424462Y122274D01*
X424025Y121524D01*
X423570Y120785D01*
X423097Y120058D01*
X422606Y119342D01*
X422097Y118639D01*
X421572Y117948D01*
X421030Y117271D01*
X420471Y116607D01*
X419896Y115957D01*
X419306Y115321D01*
X418700Y114700D01*
X418079Y114094D01*
X417443Y113504D01*
X416793Y112929D01*
X416129Y112370D01*
X415452Y111828D01*
X414761Y111303D01*
X414058Y110794D01*
X413342Y110303D01*
X412615Y109830D01*
X411876Y109375D01*
X411126Y108938D01*
X410366Y108520D01*
X409596Y108120D01*
X408816Y107739D01*
X408027Y107378D01*
X407230Y107036D01*
X406424Y106714D01*
X405611Y106412D01*
X404790Y106129D01*
X403963Y105867D01*
X403130Y105626D01*
X402291Y105405D01*
X401446Y105204D01*
X400597Y105024D01*
X399744Y104866D01*
X398888Y104728D01*
X398028Y104611D01*
X397165Y104515D01*
X396301Y104441D01*
X395435Y104388D01*
X394568Y104356D01*
X393700Y104345D01*
X392832Y104356D01*
X391965Y104388D01*
X391099Y104441D01*
X390235Y104515D01*
X389372Y104611D01*
X388512Y104728D01*
X387656Y104866D01*
X386803Y105024D01*
X385954Y105204D01*
X385109Y105405D01*
X384270Y105626D01*
X383437Y105867D01*
X382610Y106129D01*
X381789Y106412D01*
X380976Y106714D01*
X380170Y107036D01*
X379373Y107378D01*
X378584Y107739D01*
X377804Y108120D01*
X377034Y108520D01*
X376274Y108938D01*
X375524Y109375D01*
X374785Y109830D01*
X374058Y110303D01*
X373342Y110794D01*
X372639Y111303D01*
X371948Y111828D01*
X371271Y112370D01*
X370607Y112929D01*
X369957Y113504D01*
X369321Y114094D01*
X368700Y114700D01*
X368094Y115321D01*
X367504Y115957D01*
X366929Y116607D01*
X366370Y117271D01*
X365828Y117948D01*
X365303Y118639D01*
X364794Y119342D01*
X364303Y120058D01*
X363830Y120785D01*
X363375Y121524D01*
X362938Y122274D01*
X362520Y123034D01*
X362120Y123804D01*
X361739Y124584D01*
X361378Y125373D01*
X361036Y126170D01*
X360714Y126976D01*
X360412Y127789D01*
X360129Y128610D01*
X359867Y129437D01*
X359626Y130270D01*
X359405Y131109D01*
X359204Y131954D01*
X359024Y132803D01*
X358866Y133656D01*
X358728Y134512D01*
X358611Y135372D01*
X358515Y136235D01*
X358441Y137099D01*
X358388Y137965D01*
X358356Y138832D01*
X358345Y139700D01*
X373700Y159700D02*
X413700Y159700D01*
X413700Y119700D01*
X373700Y119700D01*
X373700Y159700D01*
X333700Y177200D02*
X333700Y189700D01*
X333700Y152200D02*
X333700Y127200D01*
X333700Y102200D02*
X333700Y89700D01*
X453700Y177200D02*
X453700Y189700D01*
X453700Y152200D02*
X453700Y127200D01*
X453700Y102200D02*
X453700Y89700D01*
D10*
X400671Y54046D02*
X400669Y53948D01*
X400663Y53851D01*
X400654Y53754D01*
X400640Y53657D01*
X400623Y53561D01*
X400602Y53466D01*
X400578Y53372D01*
X400549Y53278D01*
X400517Y53186D01*
X400482Y53095D01*
X400443Y53006D01*
X400400Y52918D01*
X400354Y52832D01*
X400305Y52748D01*
X400252Y52666D01*
X400197Y52586D01*
X400138Y52508D01*
X400076Y52433D01*
X400011Y52360D01*
X399943Y52290D01*
X399873Y52222D01*
X399800Y52157D01*
X399725Y52095D01*
X399647Y52036D01*
X399567Y51981D01*
X399485Y51928D01*
X399401Y51879D01*
X399315Y51833D01*
X399227Y51790D01*
X399138Y51751D01*
X399047Y51716D01*
X398955Y51684D01*
X398861Y51655D01*
X398767Y51631D01*
X398672Y51610D01*
X398576Y51593D01*
X398479Y51579D01*
X398382Y51570D01*
X398284Y51564D01*
X398187Y51562D01*
X398044Y51564D01*
X397901Y51570D01*
X397759Y51579D01*
X397617Y51593D01*
X397475Y51611D01*
X397334Y51632D01*
X397193Y51657D01*
X397053Y51686D01*
X396914Y51719D01*
X396776Y51755D01*
X396639Y51796D01*
X396503Y51840D01*
X396368Y51887D01*
X396235Y51939D01*
X396103Y51994D01*
X395973Y52052D01*
X395844Y52114D01*
X395717Y52180D01*
X395592Y52249D01*
X395469Y52321D01*
X395348Y52397D01*
X395229Y52475D01*
X395112Y52558D01*
X394997Y52643D01*
X394885Y52731D01*
X394775Y52823D01*
X394668Y52917D01*
X394563Y53014D01*
X394461Y53114D01*
X394772Y60254D02*
X394774Y60352D01*
X394780Y60449D01*
X394789Y60546D01*
X394803Y60643D01*
X394820Y60739D01*
X394841Y60834D01*
X394865Y60928D01*
X394894Y61022D01*
X394926Y61114D01*
X394961Y61205D01*
X395000Y61294D01*
X395043Y61382D01*
X395089Y61468D01*
X395138Y61552D01*
X395191Y61634D01*
X395246Y61714D01*
X395305Y61792D01*
X395367Y61867D01*
X395432Y61940D01*
X395500Y62010D01*
X395570Y62078D01*
X395643Y62143D01*
X395718Y62205D01*
X395796Y62264D01*
X395876Y62319D01*
X395958Y62372D01*
X396042Y62421D01*
X396128Y62467D01*
X396216Y62510D01*
X396305Y62549D01*
X396396Y62584D01*
X396488Y62616D01*
X396582Y62645D01*
X396676Y62669D01*
X396771Y62690D01*
X396867Y62707D01*
X396964Y62721D01*
X397061Y62730D01*
X397158Y62736D01*
X397256Y62738D01*
X397386Y62736D01*
X397516Y62731D01*
X397646Y62722D01*
X397776Y62709D01*
X397905Y62693D01*
X398034Y62673D01*
X398162Y62649D01*
X398290Y62622D01*
X398416Y62591D01*
X398542Y62557D01*
X398667Y62519D01*
X398790Y62478D01*
X398913Y62433D01*
X399034Y62385D01*
X399154Y62334D01*
X399272Y62279D01*
X399388Y62221D01*
X399503Y62160D01*
X399617Y62095D01*
X399728Y62028D01*
X399837Y61957D01*
X399945Y61883D01*
X400050Y61807D01*
X396015Y58081D02*
X395932Y58132D01*
X395851Y58186D01*
X395773Y58243D01*
X395697Y58303D01*
X395623Y58366D01*
X395552Y58432D01*
X395483Y58500D01*
X395417Y58571D01*
X395353Y58644D01*
X395293Y58720D01*
X395236Y58798D01*
X395181Y58879D01*
X395130Y58961D01*
X395082Y59045D01*
X395037Y59131D01*
X394995Y59219D01*
X394957Y59308D01*
X394923Y59398D01*
X394891Y59490D01*
X394864Y59583D01*
X394840Y59677D01*
X394819Y59772D01*
X394803Y59868D01*
X394790Y59964D01*
X394780Y60060D01*
X394775Y60157D01*
X394773Y60254D01*
X399428Y56219D02*
X399511Y56168D01*
X399592Y56114D01*
X399670Y56057D01*
X399746Y55997D01*
X399820Y55934D01*
X399891Y55868D01*
X399960Y55800D01*
X400026Y55729D01*
X400090Y55656D01*
X400150Y55580D01*
X400207Y55502D01*
X400262Y55421D01*
X400313Y55339D01*
X400361Y55255D01*
X400406Y55169D01*
X400448Y55081D01*
X400486Y54992D01*
X400520Y54902D01*
X400552Y54810D01*
X400579Y54717D01*
X400603Y54623D01*
X400624Y54528D01*
X400640Y54432D01*
X400653Y54336D01*
X400663Y54240D01*
X400668Y54143D01*
X400670Y54046D01*
X399429Y56219D02*
X396014Y58081D01*
X405172Y62738D02*
X407656Y51562D01*
X410139Y59013D01*
X412623Y51562D01*
X415107Y62738D01*
X419989Y60254D02*
X423093Y62738D01*
X423093Y51562D01*
X419989Y51562D02*
X426198Y51562D01*
D12*
X225100Y89700D02*
X225097Y89458D01*
X225088Y89217D01*
X225074Y88976D01*
X225053Y88735D01*
X225027Y88495D01*
X224995Y88255D01*
X224957Y88016D01*
X224914Y87779D01*
X224864Y87542D01*
X224809Y87307D01*
X224749Y87073D01*
X224682Y86841D01*
X224611Y86610D01*
X224533Y86381D01*
X224450Y86154D01*
X224362Y85929D01*
X224268Y85706D01*
X224169Y85486D01*
X224064Y85268D01*
X223955Y85053D01*
X223840Y84840D01*
X223720Y84630D01*
X223595Y84424D01*
X223465Y84220D01*
X223330Y84019D01*
X223190Y83822D01*
X223046Y83628D01*
X222897Y83438D01*
X222743Y83252D01*
X222585Y83069D01*
X222423Y82890D01*
X222256Y82715D01*
X222085Y82544D01*
X221910Y82377D01*
X221731Y82215D01*
X221548Y82057D01*
X221362Y81903D01*
X221172Y81754D01*
X220978Y81610D01*
X220781Y81470D01*
X220580Y81335D01*
X220376Y81205D01*
X220170Y81080D01*
X219960Y80960D01*
X219747Y80845D01*
X219532Y80736D01*
X219314Y80631D01*
X219094Y80532D01*
X218871Y80438D01*
X218646Y80350D01*
X218419Y80267D01*
X218190Y80189D01*
X217959Y80118D01*
X217727Y80051D01*
X217493Y79991D01*
X217258Y79936D01*
X217021Y79886D01*
X216784Y79843D01*
X216545Y79805D01*
X216305Y79773D01*
X216065Y79747D01*
X215824Y79726D01*
X215583Y79712D01*
X215342Y79703D01*
X215100Y79700D01*
X115100Y79700D01*
X114858Y79703D01*
X114617Y79712D01*
X114376Y79726D01*
X114135Y79747D01*
X113895Y79773D01*
X113655Y79805D01*
X113416Y79843D01*
X113179Y79886D01*
X112942Y79936D01*
X112707Y79991D01*
X112473Y80051D01*
X112241Y80118D01*
X112010Y80189D01*
X111781Y80267D01*
X111554Y80350D01*
X111329Y80438D01*
X111106Y80532D01*
X110886Y80631D01*
X110668Y80736D01*
X110453Y80845D01*
X110240Y80960D01*
X110030Y81080D01*
X109824Y81205D01*
X109620Y81335D01*
X109419Y81470D01*
X109222Y81610D01*
X109028Y81754D01*
X108838Y81903D01*
X108652Y82057D01*
X108469Y82215D01*
X108290Y82377D01*
X108115Y82544D01*
X107944Y82715D01*
X107777Y82890D01*
X107615Y83069D01*
X107457Y83252D01*
X107303Y83438D01*
X107154Y83628D01*
X107010Y83822D01*
X106870Y84019D01*
X106735Y84220D01*
X106605Y84424D01*
X106480Y84630D01*
X106360Y84840D01*
X106245Y85053D01*
X106136Y85268D01*
X106031Y85486D01*
X105932Y85706D01*
X105838Y85929D01*
X105750Y86154D01*
X105667Y86381D01*
X105589Y86610D01*
X105518Y86841D01*
X105451Y87073D01*
X105391Y87307D01*
X105336Y87542D01*
X105286Y87779D01*
X105243Y88016D01*
X105205Y88255D01*
X105173Y88495D01*
X105147Y88735D01*
X105126Y88976D01*
X105112Y89217D01*
X105103Y89458D01*
X105100Y89700D01*
X105100Y189700D02*
X105103Y189942D01*
X105112Y190183D01*
X105126Y190424D01*
X105147Y190665D01*
X105173Y190905D01*
X105205Y191145D01*
X105243Y191384D01*
X105286Y191621D01*
X105336Y191858D01*
X105391Y192093D01*
X105451Y192327D01*
X105518Y192559D01*
X105589Y192790D01*
X105667Y193019D01*
X105750Y193246D01*
X105838Y193471D01*
X105932Y193694D01*
X106031Y193914D01*
X106136Y194132D01*
X106245Y194347D01*
X106360Y194560D01*
X106480Y194770D01*
X106605Y194976D01*
X106735Y195180D01*
X106870Y195381D01*
X107010Y195578D01*
X107154Y195772D01*
X107303Y195962D01*
X107457Y196148D01*
X107615Y196331D01*
X107777Y196510D01*
X107944Y196685D01*
X108115Y196856D01*
X108290Y197023D01*
X108469Y197185D01*
X108652Y197343D01*
X108838Y197497D01*
X109028Y197646D01*
X109222Y197790D01*
X109419Y197930D01*
X109620Y198065D01*
X109824Y198195D01*
X110030Y198320D01*
X110240Y198440D01*
X110453Y198555D01*
X110668Y198664D01*
X110886Y198769D01*
X111106Y198868D01*
X111329Y198962D01*
X111554Y199050D01*
X111781Y199133D01*
X112010Y199211D01*
X112241Y199282D01*
X112473Y199349D01*
X112707Y199409D01*
X112942Y199464D01*
X113179Y199514D01*
X113416Y199557D01*
X113655Y199595D01*
X113895Y199627D01*
X114135Y199653D01*
X114376Y199674D01*
X114617Y199688D01*
X114858Y199697D01*
X115100Y199700D01*
X215100Y199700D01*
X215342Y199697D01*
X215583Y199688D01*
X215824Y199674D01*
X216065Y199653D01*
X216305Y199627D01*
X216545Y199595D01*
X216784Y199557D01*
X217021Y199514D01*
X217258Y199464D01*
X217493Y199409D01*
X217727Y199349D01*
X217959Y199282D01*
X218190Y199211D01*
X218419Y199133D01*
X218646Y199050D01*
X218871Y198962D01*
X219094Y198868D01*
X219314Y198769D01*
X219532Y198664D01*
X219747Y198555D01*
X219960Y198440D01*
X220170Y198320D01*
X220376Y198195D01*
X220580Y198065D01*
X220781Y197930D01*
X220978Y197790D01*
X221172Y197646D01*
X221362Y197497D01*
X221548Y197343D01*
X221731Y197185D01*
X221910Y197023D01*
X222085Y196856D01*
X222256Y196685D01*
X222423Y196510D01*
X222585Y196331D01*
X222743Y196148D01*
X222897Y195962D01*
X223046Y195772D01*
X223190Y195578D01*
X223330Y195381D01*
X223465Y195180D01*
X223595Y194976D01*
X223720Y194770D01*
X223840Y194560D01*
X223955Y194347D01*
X224064Y194132D01*
X224169Y193914D01*
X224268Y193694D01*
X224362Y193471D01*
X224450Y193246D01*
X224533Y193019D01*
X224611Y192790D01*
X224682Y192559D01*
X224749Y192327D01*
X224809Y192093D01*
X224864Y191858D01*
X224914Y191621D01*
X224957Y191384D01*
X224995Y191145D01*
X225027Y190905D01*
X225053Y190665D01*
X225074Y190424D01*
X225088Y190183D01*
X225097Y189942D01*
X225100Y189700D01*
X129745Y139700D02*
X129756Y140568D01*
X129788Y141435D01*
X129841Y142301D01*
X129915Y143165D01*
X130011Y144028D01*
X130128Y144888D01*
X130266Y145744D01*
X130424Y146597D01*
X130604Y147446D01*
X130805Y148291D01*
X131026Y149130D01*
X131267Y149963D01*
X131529Y150790D01*
X131812Y151611D01*
X132114Y152424D01*
X132436Y153230D01*
X132778Y154027D01*
X133139Y154816D01*
X133520Y155596D01*
X133920Y156366D01*
X134338Y157126D01*
X134775Y157876D01*
X135230Y158615D01*
X135703Y159342D01*
X136194Y160058D01*
X136703Y160761D01*
X137228Y161452D01*
X137770Y162129D01*
X138329Y162793D01*
X138904Y163443D01*
X139494Y164079D01*
X140100Y164700D01*
X140721Y165306D01*
X141357Y165896D01*
X142007Y166471D01*
X142671Y167030D01*
X143348Y167572D01*
X144039Y168097D01*
X144742Y168606D01*
X145458Y169097D01*
X146185Y169570D01*
X146924Y170025D01*
X147674Y170462D01*
X148434Y170880D01*
X149204Y171280D01*
X149984Y171661D01*
X150773Y172022D01*
X151570Y172364D01*
X152376Y172686D01*
X153189Y172988D01*
X154010Y173271D01*
X154837Y173533D01*
X155670Y173774D01*
X156509Y173995D01*
X157354Y174196D01*
X158203Y174376D01*
X159056Y174534D01*
X159912Y174672D01*
X160772Y174789D01*
X161635Y174885D01*
X162499Y174959D01*
X163365Y175012D01*
X164232Y175044D01*
X165100Y175055D01*
X165968Y175044D01*
X166835Y175012D01*
X167701Y174959D01*
X168565Y174885D01*
X169428Y174789D01*
X170288Y174672D01*
X171144Y174534D01*
X171997Y174376D01*
X172846Y174196D01*
X173691Y173995D01*
X174530Y173774D01*
X175363Y173533D01*
X176190Y173271D01*
X177011Y172988D01*
X177824Y172686D01*
X178630Y172364D01*
X179427Y172022D01*
X180216Y171661D01*
X180996Y171280D01*
X181766Y170880D01*
X182526Y170462D01*
X183276Y170025D01*
X184015Y169570D01*
X184742Y169097D01*
X185458Y168606D01*
X186161Y168097D01*
X186852Y167572D01*
X187529Y167030D01*
X188193Y166471D01*
X188843Y165896D01*
X189479Y165306D01*
X190100Y164700D01*
X190706Y164079D01*
X191296Y163443D01*
X191871Y162793D01*
X192430Y162129D01*
X192972Y161452D01*
X193497Y160761D01*
X194006Y160058D01*
X194497Y159342D01*
X194970Y158615D01*
X195425Y157876D01*
X195862Y157126D01*
X196280Y156366D01*
X196680Y155596D01*
X197061Y154816D01*
X197422Y154027D01*
X197764Y153230D01*
X198086Y152424D01*
X198388Y151611D01*
X198671Y150790D01*
X198933Y149963D01*
X199174Y149130D01*
X199395Y148291D01*
X199596Y147446D01*
X199776Y146597D01*
X199934Y145744D01*
X200072Y144888D01*
X200189Y144028D01*
X200285Y143165D01*
X200359Y142301D01*
X200412Y141435D01*
X200444Y140568D01*
X200455Y139700D01*
X200444Y138832D01*
X200412Y137965D01*
X200359Y137099D01*
X200285Y136235D01*
X200189Y135372D01*
X200072Y134512D01*
X199934Y133656D01*
X199776Y132803D01*
X199596Y131954D01*
X199395Y131109D01*
X199174Y130270D01*
X198933Y129437D01*
X198671Y128610D01*
X198388Y127789D01*
X198086Y126976D01*
X197764Y126170D01*
X197422Y125373D01*
X197061Y124584D01*
X196680Y123804D01*
X196280Y123034D01*
X195862Y122274D01*
X195425Y121524D01*
X194970Y120785D01*
X194497Y120058D01*
X194006Y119342D01*
X193497Y118639D01*
X192972Y117948D01*
X192430Y117271D01*
X191871Y116607D01*
X191296Y115957D01*
X190706Y115321D01*
X190100Y114700D01*
X189479Y114094D01*
X188843Y113504D01*
X188193Y112929D01*
X187529Y112370D01*
X186852Y111828D01*
X186161Y111303D01*
X185458Y110794D01*
X184742Y110303D01*
X184015Y109830D01*
X183276Y109375D01*
X182526Y108938D01*
X181766Y108520D01*
X180996Y108120D01*
X180216Y107739D01*
X179427Y107378D01*
X178630Y107036D01*
X177824Y106714D01*
X177011Y106412D01*
X176190Y106129D01*
X175363Y105867D01*
X174530Y105626D01*
X173691Y105405D01*
X172846Y105204D01*
X171997Y105024D01*
X171144Y104866D01*
X170288Y104728D01*
X169428Y104611D01*
X168565Y104515D01*
X167701Y104441D01*
X166835Y104388D01*
X165968Y104356D01*
X165100Y104345D01*
X164232Y104356D01*
X163365Y104388D01*
X162499Y104441D01*
X161635Y104515D01*
X160772Y104611D01*
X159912Y104728D01*
X159056Y104866D01*
X158203Y105024D01*
X157354Y105204D01*
X156509Y105405D01*
X155670Y105626D01*
X154837Y105867D01*
X154010Y106129D01*
X153189Y106412D01*
X152376Y106714D01*
X151570Y107036D01*
X150773Y107378D01*
X149984Y107739D01*
X149204Y108120D01*
X148434Y108520D01*
X147674Y108938D01*
X146924Y109375D01*
X146185Y109830D01*
X145458Y110303D01*
X144742Y110794D01*
X144039Y111303D01*
X143348Y111828D01*
X142671Y112370D01*
X142007Y112929D01*
X141357Y113504D01*
X140721Y114094D01*
X140100Y114700D01*
X139494Y115321D01*
X138904Y115957D01*
X138329Y116607D01*
X137770Y117271D01*
X137228Y117948D01*
X136703Y118639D01*
X136194Y119342D01*
X135703Y120058D01*
X135230Y120785D01*
X134775Y121524D01*
X134338Y122274D01*
X133920Y123034D01*
X133520Y123804D01*
X133139Y124584D01*
X132778Y125373D01*
X132436Y126170D01*
X132114Y126976D01*
X131812Y127789D01*
X131529Y128610D01*
X131267Y129437D01*
X131026Y130270D01*
X130805Y131109D01*
X130604Y131954D01*
X130424Y132803D01*
X130266Y133656D01*
X130128Y134512D01*
X130011Y135372D01*
X129915Y136235D01*
X129841Y137099D01*
X129788Y137965D01*
X129756Y138832D01*
X129745Y139700D01*
X145100Y159700D02*
X185100Y159700D01*
X185100Y119700D01*
X145100Y119700D01*
X145100Y159700D01*
X105100Y177200D02*
X105100Y189700D01*
X105100Y152200D02*
X105100Y127200D01*
X105100Y102200D02*
X105100Y89700D01*
X225100Y177200D02*
X225100Y189700D01*
X225100Y152200D02*
X225100Y127200D01*
X225100Y102200D02*
X225100Y89700D01*
D10*
X165721Y54046D02*
X165719Y53948D01*
X165713Y53851D01*
X165704Y53754D01*
X165690Y53657D01*
X165673Y53561D01*
X165652Y53466D01*
X165628Y53372D01*
X165599Y53278D01*
X165567Y53186D01*
X165532Y53095D01*
X165493Y53006D01*
X165450Y52918D01*
X165404Y52832D01*
X165355Y52748D01*
X165302Y52666D01*
X165247Y52586D01*
X165188Y52508D01*
X165126Y52433D01*
X165061Y52360D01*
X164993Y52290D01*
X164923Y52222D01*
X164850Y52157D01*
X164775Y52095D01*
X164697Y52036D01*
X164617Y51981D01*
X164535Y51928D01*
X164451Y51879D01*
X164365Y51833D01*
X164277Y51790D01*
X164188Y51751D01*
X164097Y51716D01*
X164005Y51684D01*
X163911Y51655D01*
X163817Y51631D01*
X163722Y51610D01*
X163626Y51593D01*
X163529Y51579D01*
X163432Y51570D01*
X163334Y51564D01*
X163237Y51562D01*
X163094Y51564D01*
X162951Y51570D01*
X162809Y51579D01*
X162667Y51593D01*
X162525Y51611D01*
X162384Y51632D01*
X162243Y51657D01*
X162103Y51686D01*
X161964Y51719D01*
X161826Y51755D01*
X161689Y51796D01*
X161553Y51840D01*
X161418Y51887D01*
X161285Y51939D01*
X161153Y51994D01*
X161023Y52052D01*
X160894Y52114D01*
X160767Y52180D01*
X160642Y52249D01*
X160519Y52321D01*
X160398Y52397D01*
X160279Y52475D01*
X160162Y52558D01*
X160047Y52643D01*
X159935Y52731D01*
X159825Y52823D01*
X159718Y52917D01*
X159613Y53014D01*
X159511Y53114D01*
X159822Y60254D02*
X159824Y60352D01*
X159830Y60449D01*
X159839Y60546D01*
X159853Y60643D01*
X159870Y60739D01*
X159891Y60834D01*
X159915Y60928D01*
X159944Y61022D01*
X159976Y61114D01*
X160011Y61205D01*
X160050Y61294D01*
X160093Y61382D01*
X160139Y61468D01*
X160188Y61552D01*
X160241Y61634D01*
X160296Y61714D01*
X160355Y61792D01*
X160417Y61867D01*
X160482Y61940D01*
X160550Y62010D01*
X160620Y62078D01*
X160693Y62143D01*
X160768Y62205D01*
X160846Y62264D01*
X160926Y62319D01*
X161008Y62372D01*
X161092Y62421D01*
X161178Y62467D01*
X161266Y62510D01*
X161355Y62549D01*
X161446Y62584D01*
X161538Y62616D01*
X161632Y62645D01*
X161726Y62669D01*
X161821Y62690D01*
X161917Y62707D01*
X162014Y62721D01*
X162111Y62730D01*
X162208Y62736D01*
X162306Y62738D01*
X162436Y62736D01*
X162566Y62731D01*
X162696Y62722D01*
X162826Y62709D01*
X162955Y62693D01*
X163084Y62673D01*
X163212Y62649D01*
X163340Y62622D01*
X163466Y62591D01*
X163592Y62557D01*
X163717Y62519D01*
X163840Y62478D01*
X163963Y62433D01*
X164084Y62385D01*
X164204Y62334D01*
X164322Y62279D01*
X164438Y62221D01*
X164553Y62160D01*
X164667Y62095D01*
X164778Y62028D01*
X164887Y61957D01*
X164995Y61883D01*
X165100Y61807D01*
X161065Y58081D02*
X160982Y58132D01*
X160901Y58186D01*
X160823Y58243D01*
X160747Y58303D01*
X160673Y58366D01*
X160602Y58432D01*
X160533Y58500D01*
X160467Y58571D01*
X160403Y58644D01*
X160343Y58720D01*
X160286Y58798D01*
X160231Y58879D01*
X160180Y58961D01*
X160132Y59045D01*
X160087Y59131D01*
X160045Y59219D01*
X160007Y59308D01*
X159973Y59398D01*
X159941Y59490D01*
X159914Y59583D01*
X159890Y59677D01*
X159869Y59772D01*
X159853Y59868D01*
X159840Y59964D01*
X159830Y60060D01*
X159825Y60157D01*
X159823Y60254D01*
X164478Y56219D02*
X164561Y56168D01*
X164642Y56114D01*
X164720Y56057D01*
X164796Y55997D01*
X164870Y55934D01*
X164941Y55868D01*
X165010Y55800D01*
X165076Y55729D01*
X165140Y55656D01*
X165200Y55580D01*
X165257Y55502D01*
X165312Y55421D01*
X165363Y55339D01*
X165411Y55255D01*
X165456Y55169D01*
X165498Y55081D01*
X165536Y54992D01*
X165570Y54902D01*
X165602Y54810D01*
X165629Y54717D01*
X165653Y54623D01*
X165674Y54528D01*
X165690Y54432D01*
X165703Y54336D01*
X165713Y54240D01*
X165718Y54143D01*
X165720Y54046D01*
X164479Y56219D02*
X161064Y58081D01*
X170222Y62738D02*
X172706Y51562D01*
X175189Y59013D01*
X177673Y51562D01*
X180157Y62738D01*
X188454Y62738D02*
X188558Y62736D01*
X188663Y62730D01*
X188767Y62720D01*
X188870Y62707D01*
X188973Y62689D01*
X189076Y62668D01*
X189177Y62643D01*
X189278Y62614D01*
X189377Y62581D01*
X189475Y62545D01*
X189571Y62505D01*
X189666Y62461D01*
X189760Y62414D01*
X189851Y62364D01*
X189940Y62310D01*
X190028Y62253D01*
X190113Y62192D01*
X190196Y62128D01*
X190276Y62062D01*
X190354Y61992D01*
X190430Y61920D01*
X190502Y61844D01*
X190572Y61766D01*
X190638Y61686D01*
X190702Y61603D01*
X190763Y61518D01*
X190820Y61430D01*
X190874Y61341D01*
X190924Y61250D01*
X190971Y61156D01*
X191015Y61061D01*
X191055Y60965D01*
X191091Y60867D01*
X191124Y60768D01*
X191153Y60667D01*
X191178Y60566D01*
X191199Y60463D01*
X191217Y60360D01*
X191230Y60257D01*
X191240Y60153D01*
X191246Y60048D01*
X191248Y59944D01*
X188454Y62739D02*
X188335Y62737D01*
X188217Y62731D01*
X188098Y62721D01*
X187980Y62708D01*
X187863Y62690D01*
X187746Y62668D01*
X187630Y62643D01*
X187515Y62614D01*
X187400Y62581D01*
X187287Y62544D01*
X187176Y62504D01*
X187065Y62460D01*
X186957Y62412D01*
X186850Y62361D01*
X186744Y62306D01*
X186641Y62247D01*
X186539Y62186D01*
X186440Y62121D01*
X186342Y62052D01*
X186248Y61981D01*
X186155Y61906D01*
X186065Y61829D01*
X185978Y61748D01*
X185893Y61665D01*
X185811Y61579D01*
X185732Y61490D01*
X185656Y61399D01*
X185583Y61305D01*
X185514Y61209D01*
X185447Y61110D01*
X185384Y61010D01*
X185324Y60907D01*
X185267Y60803D01*
X185215Y60696D01*
X185165Y60588D01*
X185119Y60479D01*
X185077Y60367D01*
X185039Y60255D01*
X190317Y57771D02*
X190392Y57845D01*
X190464Y57922D01*
X190534Y58001D01*
X190601Y58083D01*
X190665Y58167D01*
X190726Y58253D01*
X190784Y58341D01*
X190839Y58432D01*
X190891Y58524D01*
X190939Y58618D01*
X190984Y58713D01*
X191026Y58811D01*
X191064Y58909D01*
X191099Y59009D01*
X191130Y59110D01*
X191157Y59212D01*
X191181Y59315D01*
X191202Y59418D01*
X191218Y59523D01*
X191231Y59628D01*
X191241Y59733D01*
X191246Y59838D01*
X191248Y59944D01*
X190317Y57771D02*
X185039Y51562D01*
X191248Y51562D01*
D11*
X292100Y83820D02*
X292100Y93980D01*
D10*
X280162Y102362D02*
X280162Y113538D01*
X283266Y113538D01*
X283377Y113536D01*
X283487Y113530D01*
X283598Y113520D01*
X283708Y113506D01*
X283817Y113489D01*
X283926Y113467D01*
X284034Y113442D01*
X284140Y113412D01*
X284246Y113379D01*
X284351Y113342D01*
X284454Y113302D01*
X284555Y113257D01*
X284655Y113210D01*
X284754Y113158D01*
X284850Y113103D01*
X284944Y113045D01*
X285036Y112984D01*
X285126Y112919D01*
X285214Y112851D01*
X285299Y112780D01*
X285381Y112706D01*
X285461Y112629D01*
X285538Y112549D01*
X285612Y112467D01*
X285683Y112382D01*
X285751Y112294D01*
X285816Y112204D01*
X285877Y112112D01*
X285935Y112018D01*
X285990Y111922D01*
X286042Y111823D01*
X286089Y111723D01*
X286134Y111622D01*
X286174Y111519D01*
X286211Y111414D01*
X286244Y111308D01*
X286274Y111202D01*
X286299Y111094D01*
X286321Y110985D01*
X286338Y110876D01*
X286352Y110766D01*
X286362Y110655D01*
X286368Y110545D01*
X286370Y110434D01*
X286368Y110323D01*
X286362Y110213D01*
X286352Y110102D01*
X286338Y109992D01*
X286321Y109883D01*
X286299Y109774D01*
X286274Y109666D01*
X286244Y109560D01*
X286211Y109454D01*
X286174Y109349D01*
X286134Y109246D01*
X286089Y109145D01*
X286042Y109045D01*
X285990Y108946D01*
X285935Y108850D01*
X285877Y108756D01*
X285816Y108664D01*
X285751Y108574D01*
X285683Y108486D01*
X285612Y108401D01*
X285538Y108319D01*
X285461Y108239D01*
X285381Y108162D01*
X285299Y108088D01*
X285214Y108017D01*
X285126Y107949D01*
X285036Y107884D01*
X284944Y107823D01*
X284850Y107765D01*
X284754Y107710D01*
X284655Y107658D01*
X284555Y107611D01*
X284454Y107566D01*
X284351Y107526D01*
X284246Y107489D01*
X284140Y107456D01*
X284034Y107426D01*
X283926Y107401D01*
X283817Y107379D01*
X283708Y107362D01*
X283598Y107348D01*
X283487Y107338D01*
X283377Y107332D01*
X283266Y107330D01*
X283266Y107329D02*
X280162Y107329D01*
X283887Y107329D02*
X286371Y102362D01*
X291500Y102362D02*
X294604Y102362D01*
X294715Y102364D01*
X294825Y102370D01*
X294936Y102380D01*
X295046Y102394D01*
X295155Y102411D01*
X295264Y102433D01*
X295372Y102458D01*
X295478Y102488D01*
X295584Y102521D01*
X295689Y102558D01*
X295792Y102598D01*
X295893Y102643D01*
X295993Y102690D01*
X296092Y102742D01*
X296188Y102797D01*
X296282Y102855D01*
X296374Y102916D01*
X296464Y102981D01*
X296552Y103049D01*
X296637Y103120D01*
X296719Y103194D01*
X296799Y103271D01*
X296876Y103351D01*
X296950Y103433D01*
X297021Y103518D01*
X297089Y103606D01*
X297154Y103696D01*
X297215Y103788D01*
X297273Y103882D01*
X297328Y103978D01*
X297380Y104077D01*
X297427Y104177D01*
X297472Y104278D01*
X297512Y104381D01*
X297549Y104486D01*
X297582Y104592D01*
X297612Y104698D01*
X297637Y104806D01*
X297659Y104915D01*
X297676Y105024D01*
X297690Y105134D01*
X297700Y105245D01*
X297706Y105355D01*
X297708Y105466D01*
X297706Y105577D01*
X297700Y105687D01*
X297690Y105798D01*
X297676Y105908D01*
X297659Y106017D01*
X297637Y106126D01*
X297612Y106234D01*
X297582Y106340D01*
X297549Y106446D01*
X297512Y106551D01*
X297472Y106654D01*
X297427Y106755D01*
X297380Y106855D01*
X297328Y106954D01*
X297273Y107050D01*
X297215Y107144D01*
X297154Y107236D01*
X297089Y107326D01*
X297021Y107414D01*
X296950Y107499D01*
X296876Y107581D01*
X296799Y107661D01*
X296719Y107738D01*
X296637Y107812D01*
X296552Y107883D01*
X296464Y107951D01*
X296374Y108016D01*
X296282Y108077D01*
X296188Y108135D01*
X296092Y108190D01*
X295993Y108242D01*
X295893Y108289D01*
X295792Y108334D01*
X295689Y108374D01*
X295584Y108411D01*
X295478Y108444D01*
X295372Y108474D01*
X295264Y108499D01*
X295155Y108521D01*
X295046Y108538D01*
X294936Y108552D01*
X294825Y108562D01*
X294715Y108568D01*
X294604Y108570D01*
X295225Y113538D02*
X291500Y113538D01*
X295225Y113538D02*
X295324Y113536D01*
X295422Y113530D01*
X295521Y113520D01*
X295618Y113507D01*
X295716Y113489D01*
X295812Y113468D01*
X295908Y113442D01*
X296002Y113413D01*
X296095Y113381D01*
X296187Y113344D01*
X296277Y113304D01*
X296366Y113260D01*
X296453Y113213D01*
X296538Y113163D01*
X296620Y113109D01*
X296701Y113052D01*
X296779Y112992D01*
X296855Y112928D01*
X296928Y112862D01*
X296999Y112793D01*
X297067Y112721D01*
X297131Y112646D01*
X297193Y112569D01*
X297252Y112490D01*
X297307Y112408D01*
X297360Y112324D01*
X297408Y112239D01*
X297454Y112151D01*
X297496Y112061D01*
X297534Y111970D01*
X297568Y111878D01*
X297599Y111784D01*
X297626Y111689D01*
X297650Y111593D01*
X297669Y111496D01*
X297685Y111399D01*
X297697Y111301D01*
X297705Y111202D01*
X297709Y111103D01*
X297709Y111005D01*
X297705Y110906D01*
X297697Y110807D01*
X297685Y110709D01*
X297669Y110612D01*
X297650Y110515D01*
X297626Y110419D01*
X297599Y110324D01*
X297568Y110230D01*
X297534Y110138D01*
X297496Y110047D01*
X297454Y109957D01*
X297408Y109869D01*
X297360Y109784D01*
X297307Y109700D01*
X297252Y109618D01*
X297193Y109539D01*
X297131Y109462D01*
X297067Y109387D01*
X296999Y109315D01*
X296928Y109246D01*
X296855Y109180D01*
X296779Y109116D01*
X296701Y109056D01*
X296620Y108999D01*
X296538Y108945D01*
X296453Y108895D01*
X296366Y108848D01*
X296277Y108804D01*
X296187Y108764D01*
X296095Y108727D01*
X296002Y108695D01*
X295908Y108666D01*
X295812Y108640D01*
X295716Y108619D01*
X295618Y108601D01*
X295521Y108588D01*
X295422Y108578D01*
X295324Y108572D01*
X295225Y108570D01*
X295225Y108571D02*
X292742Y108571D01*
D11*
X76200Y93980D02*
X76200Y83820D01*
D10*
X64262Y108712D02*
X64262Y119888D01*
X67366Y119888D01*
X67477Y119886D01*
X67587Y119880D01*
X67698Y119870D01*
X67808Y119856D01*
X67917Y119839D01*
X68026Y119817D01*
X68134Y119792D01*
X68240Y119762D01*
X68346Y119729D01*
X68451Y119692D01*
X68554Y119652D01*
X68655Y119607D01*
X68755Y119560D01*
X68854Y119508D01*
X68950Y119453D01*
X69044Y119395D01*
X69136Y119334D01*
X69226Y119269D01*
X69314Y119201D01*
X69399Y119130D01*
X69481Y119056D01*
X69561Y118979D01*
X69638Y118899D01*
X69712Y118817D01*
X69783Y118732D01*
X69851Y118644D01*
X69916Y118554D01*
X69977Y118462D01*
X70035Y118368D01*
X70090Y118272D01*
X70142Y118173D01*
X70189Y118073D01*
X70234Y117972D01*
X70274Y117869D01*
X70311Y117764D01*
X70344Y117658D01*
X70374Y117552D01*
X70399Y117444D01*
X70421Y117335D01*
X70438Y117226D01*
X70452Y117116D01*
X70462Y117005D01*
X70468Y116895D01*
X70470Y116784D01*
X70468Y116673D01*
X70462Y116563D01*
X70452Y116452D01*
X70438Y116342D01*
X70421Y116233D01*
X70399Y116124D01*
X70374Y116016D01*
X70344Y115910D01*
X70311Y115804D01*
X70274Y115699D01*
X70234Y115596D01*
X70189Y115495D01*
X70142Y115395D01*
X70090Y115296D01*
X70035Y115200D01*
X69977Y115106D01*
X69916Y115014D01*
X69851Y114924D01*
X69783Y114836D01*
X69712Y114751D01*
X69638Y114669D01*
X69561Y114589D01*
X69481Y114512D01*
X69399Y114438D01*
X69314Y114367D01*
X69226Y114299D01*
X69136Y114234D01*
X69044Y114173D01*
X68950Y114115D01*
X68854Y114060D01*
X68755Y114008D01*
X68655Y113961D01*
X68554Y113916D01*
X68451Y113876D01*
X68346Y113839D01*
X68240Y113806D01*
X68134Y113776D01*
X68026Y113751D01*
X67917Y113729D01*
X67808Y113712D01*
X67698Y113698D01*
X67587Y113688D01*
X67477Y113682D01*
X67366Y113680D01*
X67366Y113679D02*
X64262Y113679D01*
X67987Y113679D02*
X70471Y108712D01*
X75600Y111196D02*
X78084Y119888D01*
X75600Y111196D02*
X81809Y111196D01*
X79946Y113679D02*
X79946Y108712D01*
D11*
X109400Y928500D02*
X449400Y928500D01*
X449400Y468500D01*
X109400Y468500D01*
X109400Y928500D01*
X227400Y569500D02*
X331400Y569500D01*
D10*
X486410Y908558D02*
X580390Y908558D01*
X584200Y873252D02*
X584198Y873130D01*
X584192Y873008D01*
X584182Y872886D01*
X584169Y872765D01*
X584151Y872644D01*
X584130Y872524D01*
X584104Y872404D01*
X584075Y872286D01*
X584043Y872168D01*
X584006Y872051D01*
X583966Y871936D01*
X583922Y871822D01*
X583874Y871710D01*
X583823Y871599D01*
X583768Y871490D01*
X583710Y871382D01*
X583648Y871277D01*
X583583Y871174D01*
X583515Y871072D01*
X583443Y870973D01*
X583369Y870877D01*
X583291Y870782D01*
X583210Y870691D01*
X583127Y870601D01*
X583041Y870515D01*
X582951Y870432D01*
X582860Y870351D01*
X582765Y870273D01*
X582669Y870199D01*
X582570Y870127D01*
X582468Y870059D01*
X582365Y869994D01*
X582260Y869932D01*
X582152Y869874D01*
X582043Y869819D01*
X581932Y869768D01*
X581820Y869720D01*
X581706Y869676D01*
X581591Y869636D01*
X581474Y869599D01*
X581356Y869567D01*
X581238Y869538D01*
X581118Y869512D01*
X580998Y869491D01*
X580877Y869473D01*
X580756Y869460D01*
X580634Y869450D01*
X580512Y869444D01*
X580390Y869442D01*
X486410Y908558D02*
X486288Y908556D01*
X486166Y908550D01*
X486044Y908540D01*
X485923Y908527D01*
X485802Y908509D01*
X485682Y908488D01*
X485562Y908462D01*
X485444Y908433D01*
X485326Y908401D01*
X485209Y908364D01*
X485094Y908324D01*
X484980Y908280D01*
X484868Y908232D01*
X484757Y908181D01*
X484648Y908126D01*
X484540Y908068D01*
X484435Y908006D01*
X484332Y907941D01*
X484230Y907873D01*
X484131Y907801D01*
X484035Y907727D01*
X483940Y907649D01*
X483849Y907568D01*
X483759Y907485D01*
X483673Y907399D01*
X483590Y907309D01*
X483509Y907218D01*
X483431Y907123D01*
X483357Y907027D01*
X483285Y906928D01*
X483217Y906826D01*
X483152Y906723D01*
X483090Y906618D01*
X483032Y906510D01*
X482977Y906401D01*
X482926Y906290D01*
X482878Y906178D01*
X482834Y906064D01*
X482794Y905949D01*
X482757Y905832D01*
X482725Y905714D01*
X482696Y905596D01*
X482670Y905476D01*
X482649Y905356D01*
X482631Y905235D01*
X482618Y905114D01*
X482608Y904992D01*
X482602Y904870D01*
X482600Y904748D01*
X580390Y908558D02*
X580512Y908556D01*
X580634Y908550D01*
X580756Y908540D01*
X580877Y908527D01*
X580998Y908509D01*
X581118Y908488D01*
X581238Y908462D01*
X581356Y908433D01*
X581474Y908401D01*
X581591Y908364D01*
X581706Y908324D01*
X581820Y908280D01*
X581932Y908232D01*
X582043Y908181D01*
X582152Y908126D01*
X582260Y908068D01*
X582365Y908006D01*
X582468Y907941D01*
X582570Y907873D01*
X582669Y907801D01*
X582765Y907727D01*
X582860Y907649D01*
X582951Y907568D01*
X583041Y907485D01*
X583127Y907399D01*
X583210Y907309D01*
X583291Y907218D01*
X583369Y907123D01*
X583443Y907027D01*
X583515Y906928D01*
X583583Y906826D01*
X583648Y906723D01*
X583710Y906618D01*
X583768Y906510D01*
X583823Y906401D01*
X583874Y906290D01*
X583922Y906178D01*
X583966Y906064D01*
X584006Y905949D01*
X584043Y905832D01*
X584075Y905714D01*
X584104Y905596D01*
X584130Y905476D01*
X584151Y905356D01*
X584169Y905235D01*
X584182Y905114D01*
X584192Y904992D01*
X584198Y904870D01*
X584200Y904748D01*
X486410Y869442D02*
X486288Y869444D01*
X486166Y869450D01*
X486044Y869460D01*
X485923Y869473D01*
X485802Y869491D01*
X485682Y869512D01*
X485562Y869538D01*
X485444Y869567D01*
X485326Y869599D01*
X485209Y869636D01*
X485094Y869676D01*
X484980Y869720D01*
X484868Y869768D01*
X484757Y869819D01*
X484648Y869874D01*
X484540Y869932D01*
X484435Y869994D01*
X484332Y870059D01*
X484230Y870127D01*
X484131Y870199D01*
X484035Y870273D01*
X483940Y870351D01*
X483849Y870432D01*
X483759Y870515D01*
X483673Y870601D01*
X483590Y870691D01*
X483509Y870782D01*
X483431Y870877D01*
X483357Y870973D01*
X483285Y871072D01*
X483217Y871174D01*
X483152Y871277D01*
X483090Y871382D01*
X483032Y871490D01*
X482977Y871599D01*
X482926Y871710D01*
X482878Y871822D01*
X482834Y871936D01*
X482794Y872051D01*
X482757Y872168D01*
X482725Y872286D01*
X482696Y872404D01*
X482670Y872524D01*
X482649Y872644D01*
X482631Y872765D01*
X482618Y872886D01*
X482608Y873008D01*
X482602Y873130D01*
X482600Y873252D01*
X486410Y869442D02*
X580390Y869442D01*
X584200Y873252D02*
X584200Y904748D01*
X482600Y904748D02*
X482600Y894080D01*
X482600Y883920D01*
X482600Y873252D01*
X482600Y883920D02*
X482741Y883922D01*
X482882Y883928D01*
X483023Y883938D01*
X483164Y883951D01*
X483304Y883969D01*
X483443Y883991D01*
X483582Y884016D01*
X483721Y884045D01*
X483858Y884078D01*
X483994Y884115D01*
X484129Y884156D01*
X484264Y884200D01*
X484396Y884248D01*
X484528Y884300D01*
X484658Y884355D01*
X484786Y884414D01*
X484913Y884477D01*
X485037Y884543D01*
X485160Y884612D01*
X485281Y884685D01*
X485400Y884761D01*
X485517Y884841D01*
X485631Y884924D01*
X485744Y885009D01*
X485853Y885098D01*
X485961Y885190D01*
X486065Y885285D01*
X486167Y885383D01*
X486266Y885484D01*
X486363Y885587D01*
X486456Y885693D01*
X486546Y885801D01*
X486634Y885912D01*
X486718Y886025D01*
X486799Y886141D01*
X486877Y886259D01*
X486952Y886379D01*
X487023Y886501D01*
X487091Y886625D01*
X487155Y886751D01*
X487216Y886878D01*
X487273Y887007D01*
X487326Y887138D01*
X487376Y887270D01*
X487423Y887403D01*
X487465Y887538D01*
X487504Y887674D01*
X487539Y887811D01*
X487570Y887948D01*
X487597Y888087D01*
X487621Y888226D01*
X487640Y888366D01*
X487656Y888506D01*
X487668Y888647D01*
X487676Y888788D01*
X487680Y888929D01*
X487680Y889071D01*
X487676Y889212D01*
X487668Y889353D01*
X487656Y889494D01*
X487640Y889634D01*
X487621Y889774D01*
X487597Y889913D01*
X487570Y890052D01*
X487539Y890189D01*
X487504Y890326D01*
X487465Y890462D01*
X487423Y890597D01*
X487376Y890730D01*
X487326Y890862D01*
X487273Y890993D01*
X487216Y891122D01*
X487155Y891249D01*
X487091Y891375D01*
X487023Y891499D01*
X486952Y891621D01*
X486877Y891741D01*
X486799Y891859D01*
X486718Y891975D01*
X486634Y892088D01*
X486546Y892199D01*
X486456Y892307D01*
X486363Y892413D01*
X486266Y892516D01*
X486167Y892617D01*
X486065Y892715D01*
X485961Y892810D01*
X485853Y892902D01*
X485744Y892991D01*
X485631Y893076D01*
X485517Y893159D01*
X485400Y893239D01*
X485281Y893315D01*
X485160Y893388D01*
X485037Y893457D01*
X484913Y893523D01*
X484786Y893586D01*
X484658Y893645D01*
X484528Y893700D01*
X484396Y893752D01*
X484264Y893800D01*
X484129Y893844D01*
X483994Y893885D01*
X483858Y893922D01*
X483721Y893955D01*
X483582Y893984D01*
X483443Y894009D01*
X483304Y894031D01*
X483164Y894049D01*
X483023Y894062D01*
X482882Y894072D01*
X482741Y894078D01*
X482600Y894080D01*
D13*
X482600Y872998D02*
X584200Y872998D01*
D10*
X471678Y902434D02*
X460502Y902434D01*
X471678Y901192D02*
X471678Y903676D01*
X460502Y903676D02*
X460502Y901192D01*
X471678Y910915D02*
X471678Y913399D01*
X471678Y910915D02*
X471676Y910817D01*
X471670Y910720D01*
X471661Y910623D01*
X471647Y910526D01*
X471630Y910430D01*
X471609Y910335D01*
X471585Y910241D01*
X471556Y910147D01*
X471524Y910055D01*
X471489Y909964D01*
X471450Y909875D01*
X471407Y909787D01*
X471361Y909701D01*
X471312Y909617D01*
X471259Y909535D01*
X471204Y909455D01*
X471145Y909377D01*
X471083Y909302D01*
X471018Y909229D01*
X470950Y909159D01*
X470880Y909091D01*
X470807Y909026D01*
X470732Y908964D01*
X470654Y908905D01*
X470574Y908850D01*
X470492Y908797D01*
X470408Y908748D01*
X470322Y908702D01*
X470234Y908659D01*
X470145Y908620D01*
X470054Y908585D01*
X469962Y908553D01*
X469868Y908524D01*
X469774Y908500D01*
X469679Y908479D01*
X469583Y908462D01*
X469486Y908448D01*
X469389Y908439D01*
X469292Y908433D01*
X469194Y908431D01*
X469194Y908432D02*
X462986Y908432D01*
X462986Y908431D02*
X462888Y908433D01*
X462791Y908439D01*
X462694Y908448D01*
X462597Y908462D01*
X462501Y908479D01*
X462406Y908500D01*
X462312Y908524D01*
X462218Y908553D01*
X462126Y908585D01*
X462035Y908620D01*
X461946Y908659D01*
X461858Y908702D01*
X461772Y908748D01*
X461688Y908797D01*
X461606Y908850D01*
X461526Y908905D01*
X461448Y908964D01*
X461373Y909026D01*
X461300Y909091D01*
X461230Y909159D01*
X461162Y909229D01*
X461097Y909302D01*
X461035Y909377D01*
X460976Y909455D01*
X460921Y909535D01*
X460868Y909617D01*
X460819Y909701D01*
X460773Y909787D01*
X460730Y909875D01*
X460691Y909964D01*
X460656Y910055D01*
X460624Y910147D01*
X460595Y910241D01*
X460571Y910335D01*
X460550Y910430D01*
X460533Y910526D01*
X460519Y910623D01*
X460510Y910720D01*
X460504Y910817D01*
X460502Y910915D01*
X460502Y913399D01*
X462986Y917998D02*
X460502Y921103D01*
X471678Y921103D01*
X471678Y924207D02*
X471678Y917998D01*
D11*
X599900Y534400D02*
X609900Y534400D01*
X609900Y685400D01*
X469900Y685400D01*
X469900Y541400D01*
X479900Y541400D01*
X479878Y541597D01*
X479861Y541794D01*
X479848Y541991D01*
X479841Y542189D01*
X479838Y542387D01*
X479840Y542585D01*
X479847Y542782D01*
X479859Y542980D01*
X479876Y543177D01*
X479897Y543374D01*
X479923Y543570D01*
X479954Y543765D01*
X479990Y543960D01*
X480031Y544154D01*
X480076Y544346D01*
X480127Y544538D01*
X480181Y544728D01*
X480241Y544916D01*
X480305Y545104D01*
X480373Y545289D01*
X480447Y545473D01*
X480524Y545655D01*
X480606Y545835D01*
X480693Y546013D01*
X480784Y546189D01*
X480879Y546362D01*
X480978Y546533D01*
X481082Y546702D01*
X481189Y546868D01*
X481301Y547031D01*
X481417Y547192D01*
X481536Y547350D01*
X481660Y547504D01*
X481787Y547656D01*
X481918Y547804D01*
X482052Y547950D01*
X482190Y548091D01*
X482331Y548230D01*
X482476Y548365D01*
X482624Y548496D01*
X482775Y548624D01*
X482930Y548748D01*
X483087Y548868D01*
X483247Y548984D01*
X483410Y549096D01*
X483576Y549204D01*
X483744Y549308D01*
X483915Y549408D01*
X484088Y549504D01*
X484263Y549595D01*
X484441Y549682D01*
X484621Y549765D01*
X484803Y549843D01*
X484986Y549917D01*
X485172Y549986D01*
X485359Y550051D01*
X485547Y550111D01*
X485737Y550166D01*
X485928Y550217D01*
X486121Y550263D01*
X486314Y550305D01*
X486509Y550341D01*
X486704Y550373D01*
X486900Y550400D01*
X583900Y550400D01*
X584287Y550395D01*
X584673Y550381D01*
X585059Y550358D01*
X585444Y550325D01*
X585829Y550283D01*
X586212Y550232D01*
X586594Y550172D01*
X586974Y550102D01*
X587353Y550023D01*
X587729Y549935D01*
X588103Y549838D01*
X588475Y549732D01*
X588844Y549617D01*
X589211Y549493D01*
X589574Y549360D01*
X589934Y549219D01*
X590290Y549069D01*
X590642Y548910D01*
X590991Y548743D01*
X591336Y548567D01*
X591676Y548383D01*
X592011Y548192D01*
X592342Y547991D01*
X592668Y547784D01*
X592989Y547568D01*
X593305Y547344D01*
X593615Y547113D01*
X593919Y546875D01*
X594217Y546629D01*
X594510Y546376D01*
X594796Y546116D01*
X595076Y545850D01*
X595350Y545576D01*
X595616Y545296D01*
X595876Y545010D01*
X596129Y544717D01*
X596375Y544419D01*
X596613Y544115D01*
X596844Y543805D01*
X597068Y543489D01*
X597284Y543168D01*
X597491Y542842D01*
X597692Y542511D01*
X597883Y542176D01*
X598067Y541836D01*
X598243Y541491D01*
X598410Y541142D01*
X598569Y540790D01*
X598719Y540434D01*
X598860Y540074D01*
X598993Y539711D01*
X599117Y539344D01*
X599232Y538975D01*
X599338Y538603D01*
X599435Y538229D01*
X599523Y537853D01*
X599602Y537474D01*
X599672Y537094D01*
X599732Y536712D01*
X599783Y536329D01*
X599825Y535944D01*
X599858Y535559D01*
X599881Y535173D01*
X599895Y534787D01*
X599900Y534400D01*
X485900Y526800D02*
X485610Y526804D01*
X485320Y526814D01*
X485031Y526832D01*
X484742Y526856D01*
X484454Y526887D01*
X484166Y526926D01*
X483880Y526971D01*
X483594Y527024D01*
X483311Y527083D01*
X483028Y527149D01*
X482748Y527221D01*
X482469Y527301D01*
X482192Y527387D01*
X481917Y527480D01*
X481645Y527580D01*
X481375Y527686D01*
X481108Y527798D01*
X480843Y527918D01*
X480582Y528043D01*
X480323Y528175D01*
X480068Y528312D01*
X479816Y528456D01*
X479568Y528606D01*
X479324Y528762D01*
X479083Y528924D01*
X478847Y529092D01*
X478614Y529265D01*
X478386Y529444D01*
X478162Y529628D01*
X477943Y529818D01*
X477728Y530013D01*
X477518Y530213D01*
X477313Y530418D01*
X477113Y530628D01*
X476918Y530843D01*
X476728Y531062D01*
X476544Y531286D01*
X476365Y531514D01*
X476192Y531747D01*
X476024Y531983D01*
X475862Y532224D01*
X475706Y532468D01*
X475556Y532716D01*
X475412Y532968D01*
X475275Y533223D01*
X475143Y533482D01*
X475018Y533743D01*
X474898Y534008D01*
X474786Y534275D01*
X474680Y534545D01*
X474580Y534817D01*
X474487Y535092D01*
X474401Y535369D01*
X474321Y535648D01*
X474249Y535928D01*
X474183Y536211D01*
X474124Y536494D01*
X474071Y536780D01*
X474026Y537066D01*
X473987Y537354D01*
X473956Y537642D01*
X473932Y537931D01*
X473914Y538220D01*
X473904Y538510D01*
X473900Y538800D01*
X485900Y526800D02*
X577900Y526800D01*
X578190Y526779D01*
X578481Y526765D01*
X578772Y526759D01*
X579063Y526759D01*
X579354Y526767D01*
X579644Y526781D01*
X579935Y526803D01*
X580224Y526831D01*
X580513Y526867D01*
X580801Y526909D01*
X581088Y526958D01*
X581373Y527015D01*
X581657Y527078D01*
X581940Y527148D01*
X582220Y527225D01*
X582499Y527308D01*
X582776Y527399D01*
X583050Y527496D01*
X583322Y527599D01*
X583591Y527709D01*
X583858Y527826D01*
X584122Y527949D01*
X584382Y528078D01*
X584640Y528214D01*
X584894Y528356D01*
X585145Y528504D01*
X585392Y528658D01*
X585635Y528817D01*
X585874Y528983D01*
X586109Y529154D01*
X586340Y529331D01*
X586567Y529514D01*
X586789Y529702D01*
X587006Y529895D01*
X587219Y530094D01*
X587427Y530297D01*
X587630Y530506D01*
X587828Y530719D01*
X588021Y530937D01*
X588208Y531160D01*
X588390Y531387D01*
X588566Y531619D01*
X588737Y531854D01*
X588902Y532094D01*
X589061Y532338D01*
X589214Y532585D01*
X589361Y532836D01*
X589502Y533091D01*
X589637Y533349D01*
X589766Y533610D01*
X589888Y533874D01*
X590004Y534141D01*
X590113Y534410D01*
X590216Y534682D01*
X590312Y534957D01*
X590402Y535234D01*
X590485Y535513D01*
X590561Y535794D01*
X590630Y536077D01*
X590692Y536361D01*
X590748Y536646D01*
X590796Y536933D01*
X590838Y537221D01*
X590873Y537510D01*
X590900Y537800D01*
X485900Y517800D02*
X485610Y517804D01*
X485320Y517814D01*
X485031Y517832D01*
X484742Y517856D01*
X484454Y517887D01*
X484166Y517926D01*
X483880Y517971D01*
X483594Y518024D01*
X483311Y518083D01*
X483028Y518149D01*
X482748Y518221D01*
X482469Y518301D01*
X482192Y518387D01*
X481917Y518480D01*
X481645Y518580D01*
X481375Y518686D01*
X481108Y518798D01*
X480843Y518918D01*
X480582Y519043D01*
X480323Y519175D01*
X480068Y519312D01*
X479816Y519456D01*
X479568Y519606D01*
X479324Y519762D01*
X479083Y519924D01*
X478847Y520092D01*
X478614Y520265D01*
X478386Y520444D01*
X478162Y520628D01*
X477943Y520818D01*
X477728Y521013D01*
X477518Y521213D01*
X477313Y521418D01*
X477113Y521628D01*
X476918Y521843D01*
X476728Y522062D01*
X476544Y522286D01*
X476365Y522514D01*
X476192Y522747D01*
X476024Y522983D01*
X475862Y523224D01*
X475706Y523468D01*
X475556Y523716D01*
X475412Y523968D01*
X475275Y524223D01*
X475143Y524482D01*
X475018Y524743D01*
X474898Y525008D01*
X474786Y525275D01*
X474680Y525545D01*
X474580Y525817D01*
X474487Y526092D01*
X474401Y526369D01*
X474321Y526648D01*
X474249Y526928D01*
X474183Y527211D01*
X474124Y527494D01*
X474071Y527780D01*
X474026Y528066D01*
X473987Y528354D01*
X473956Y528642D01*
X473932Y528931D01*
X473914Y529220D01*
X473904Y529510D01*
X473900Y529800D01*
X485900Y517800D02*
X577900Y517800D01*
X578190Y517779D01*
X578481Y517765D01*
X578772Y517759D01*
X579063Y517759D01*
X579354Y517767D01*
X579644Y517781D01*
X579935Y517803D01*
X580224Y517831D01*
X580513Y517867D01*
X580801Y517909D01*
X581088Y517958D01*
X581373Y518015D01*
X581657Y518078D01*
X581940Y518148D01*
X582220Y518225D01*
X582499Y518308D01*
X582776Y518399D01*
X583050Y518496D01*
X583322Y518599D01*
X583591Y518709D01*
X583858Y518826D01*
X584122Y518949D01*
X584382Y519078D01*
X584640Y519214D01*
X584894Y519356D01*
X585145Y519504D01*
X585392Y519658D01*
X585635Y519817D01*
X585874Y519983D01*
X586109Y520154D01*
X586340Y520331D01*
X586567Y520514D01*
X586789Y520702D01*
X587006Y520895D01*
X587219Y521094D01*
X587427Y521297D01*
X587630Y521506D01*
X587828Y521719D01*
X588021Y521937D01*
X588208Y522160D01*
X588390Y522387D01*
X588566Y522619D01*
X588737Y522854D01*
X588902Y523094D01*
X589061Y523338D01*
X589214Y523585D01*
X589361Y523836D01*
X589502Y524091D01*
X589637Y524349D01*
X589766Y524610D01*
X589888Y524874D01*
X590004Y525141D01*
X590113Y525410D01*
X590216Y525682D01*
X590312Y525957D01*
X590402Y526234D01*
X590485Y526513D01*
X590561Y526794D01*
X590630Y527077D01*
X590692Y527361D01*
X590748Y527646D01*
X590796Y527933D01*
X590838Y528221D01*
X590873Y528510D01*
X590900Y528800D01*
X485900Y479800D02*
X485610Y479804D01*
X485320Y479814D01*
X485031Y479832D01*
X484742Y479856D01*
X484454Y479887D01*
X484166Y479926D01*
X483880Y479971D01*
X483594Y480024D01*
X483311Y480083D01*
X483028Y480149D01*
X482748Y480221D01*
X482469Y480301D01*
X482192Y480387D01*
X481917Y480480D01*
X481645Y480580D01*
X481375Y480686D01*
X481108Y480798D01*
X480843Y480918D01*
X480582Y481043D01*
X480323Y481175D01*
X480068Y481312D01*
X479816Y481456D01*
X479568Y481606D01*
X479324Y481762D01*
X479083Y481924D01*
X478847Y482092D01*
X478614Y482265D01*
X478386Y482444D01*
X478162Y482628D01*
X477943Y482818D01*
X477728Y483013D01*
X477518Y483213D01*
X477313Y483418D01*
X477113Y483628D01*
X476918Y483843D01*
X476728Y484062D01*
X476544Y484286D01*
X476365Y484514D01*
X476192Y484747D01*
X476024Y484983D01*
X475862Y485224D01*
X475706Y485468D01*
X475556Y485716D01*
X475412Y485968D01*
X475275Y486223D01*
X475143Y486482D01*
X475018Y486743D01*
X474898Y487008D01*
X474786Y487275D01*
X474680Y487545D01*
X474580Y487817D01*
X474487Y488092D01*
X474401Y488369D01*
X474321Y488648D01*
X474249Y488928D01*
X474183Y489211D01*
X474124Y489494D01*
X474071Y489780D01*
X474026Y490066D01*
X473987Y490354D01*
X473956Y490642D01*
X473932Y490931D01*
X473914Y491220D01*
X473904Y491510D01*
X473900Y491800D01*
X485900Y479800D02*
X577900Y479800D01*
X578190Y479779D01*
X578481Y479765D01*
X578772Y479759D01*
X579063Y479759D01*
X579354Y479767D01*
X579644Y479781D01*
X579935Y479803D01*
X580224Y479831D01*
X580513Y479867D01*
X580801Y479909D01*
X581088Y479958D01*
X581373Y480015D01*
X581657Y480078D01*
X581940Y480148D01*
X582220Y480225D01*
X582499Y480308D01*
X582776Y480399D01*
X583050Y480496D01*
X583322Y480599D01*
X583591Y480709D01*
X583858Y480826D01*
X584122Y480949D01*
X584382Y481078D01*
X584640Y481214D01*
X584894Y481356D01*
X585145Y481504D01*
X585392Y481658D01*
X585635Y481817D01*
X585874Y481983D01*
X586109Y482154D01*
X586340Y482331D01*
X586567Y482514D01*
X586789Y482702D01*
X587006Y482895D01*
X587219Y483094D01*
X587427Y483297D01*
X587630Y483506D01*
X587828Y483719D01*
X588021Y483937D01*
X588208Y484160D01*
X588390Y484387D01*
X588566Y484619D01*
X588737Y484854D01*
X588902Y485094D01*
X589061Y485338D01*
X589214Y485585D01*
X589361Y485836D01*
X589502Y486091D01*
X589637Y486349D01*
X589766Y486610D01*
X589888Y486874D01*
X590004Y487141D01*
X590113Y487410D01*
X590216Y487682D01*
X590312Y487957D01*
X590402Y488234D01*
X590485Y488513D01*
X590561Y488794D01*
X590630Y489077D01*
X590692Y489361D01*
X590748Y489646D01*
X590796Y489933D01*
X590838Y490221D01*
X590873Y490510D01*
X590900Y490800D01*
D10*
X469562Y713766D02*
X469562Y718734D01*
X469564Y718845D01*
X469570Y718955D01*
X469580Y719066D01*
X469594Y719176D01*
X469611Y719285D01*
X469633Y719394D01*
X469658Y719502D01*
X469688Y719608D01*
X469721Y719714D01*
X469758Y719819D01*
X469798Y719922D01*
X469843Y720023D01*
X469890Y720123D01*
X469942Y720222D01*
X469997Y720318D01*
X470055Y720412D01*
X470116Y720504D01*
X470181Y720594D01*
X470249Y720682D01*
X470320Y720767D01*
X470394Y720849D01*
X470471Y720929D01*
X470551Y721006D01*
X470633Y721080D01*
X470718Y721151D01*
X470806Y721219D01*
X470896Y721284D01*
X470988Y721345D01*
X471082Y721403D01*
X471178Y721458D01*
X471277Y721510D01*
X471377Y721557D01*
X471478Y721602D01*
X471581Y721642D01*
X471686Y721679D01*
X471792Y721712D01*
X471898Y721742D01*
X472006Y721767D01*
X472115Y721789D01*
X472224Y721806D01*
X472334Y721820D01*
X472445Y721830D01*
X472555Y721836D01*
X472666Y721838D01*
X472777Y721836D01*
X472887Y721830D01*
X472998Y721820D01*
X473108Y721806D01*
X473217Y721789D01*
X473326Y721767D01*
X473434Y721742D01*
X473540Y721712D01*
X473646Y721679D01*
X473751Y721642D01*
X473854Y721602D01*
X473955Y721557D01*
X474055Y721510D01*
X474154Y721458D01*
X474250Y721403D01*
X474344Y721345D01*
X474436Y721284D01*
X474526Y721219D01*
X474614Y721151D01*
X474699Y721080D01*
X474781Y721006D01*
X474861Y720929D01*
X474938Y720849D01*
X475012Y720767D01*
X475083Y720682D01*
X475151Y720594D01*
X475216Y720504D01*
X475277Y720412D01*
X475335Y720318D01*
X475390Y720222D01*
X475442Y720123D01*
X475489Y720023D01*
X475534Y719922D01*
X475574Y719819D01*
X475611Y719714D01*
X475644Y719608D01*
X475674Y719502D01*
X475699Y719394D01*
X475721Y719285D01*
X475738Y719176D01*
X475752Y719066D01*
X475762Y718955D01*
X475768Y718845D01*
X475770Y718734D01*
X475771Y718734D02*
X475771Y713766D01*
X475770Y713766D02*
X475768Y713655D01*
X475762Y713545D01*
X475752Y713434D01*
X475738Y713324D01*
X475721Y713215D01*
X475699Y713106D01*
X475674Y712998D01*
X475644Y712892D01*
X475611Y712786D01*
X475574Y712681D01*
X475534Y712578D01*
X475489Y712477D01*
X475442Y712377D01*
X475390Y712278D01*
X475335Y712182D01*
X475277Y712088D01*
X475216Y711996D01*
X475151Y711906D01*
X475083Y711818D01*
X475012Y711733D01*
X474938Y711651D01*
X474861Y711571D01*
X474781Y711494D01*
X474699Y711420D01*
X474614Y711349D01*
X474526Y711281D01*
X474436Y711216D01*
X474344Y711155D01*
X474250Y711097D01*
X474154Y711042D01*
X474055Y710990D01*
X473955Y710943D01*
X473854Y710898D01*
X473751Y710858D01*
X473646Y710821D01*
X473540Y710788D01*
X473434Y710758D01*
X473326Y710733D01*
X473217Y710711D01*
X473108Y710694D01*
X472998Y710680D01*
X472887Y710670D01*
X472777Y710664D01*
X472666Y710662D01*
X472555Y710664D01*
X472445Y710670D01*
X472334Y710680D01*
X472224Y710694D01*
X472115Y710711D01*
X472006Y710733D01*
X471898Y710758D01*
X471792Y710788D01*
X471686Y710821D01*
X471581Y710858D01*
X471478Y710898D01*
X471377Y710943D01*
X471277Y710990D01*
X471178Y711042D01*
X471082Y711097D01*
X470988Y711155D01*
X470896Y711216D01*
X470806Y711281D01*
X470718Y711349D01*
X470633Y711420D01*
X470551Y711494D01*
X470471Y711571D01*
X470394Y711651D01*
X470320Y711733D01*
X470249Y711818D01*
X470181Y711906D01*
X470116Y711996D01*
X470055Y712088D01*
X469997Y712182D01*
X469942Y712278D01*
X469890Y712377D01*
X469843Y712477D01*
X469798Y712578D01*
X469758Y712681D01*
X469721Y712786D01*
X469688Y712892D01*
X469658Y712998D01*
X469633Y713106D01*
X469611Y713215D01*
X469594Y713324D01*
X469580Y713434D01*
X469570Y713545D01*
X469564Y713655D01*
X469562Y713766D01*
X474529Y713146D02*
X477013Y710662D01*
X486748Y719044D02*
X486746Y719148D01*
X486740Y719253D01*
X486730Y719357D01*
X486717Y719460D01*
X486699Y719563D01*
X486678Y719666D01*
X486653Y719767D01*
X486624Y719868D01*
X486591Y719967D01*
X486555Y720065D01*
X486515Y720161D01*
X486471Y720256D01*
X486424Y720350D01*
X486374Y720441D01*
X486320Y720530D01*
X486263Y720618D01*
X486202Y720703D01*
X486138Y720786D01*
X486072Y720866D01*
X486002Y720944D01*
X485930Y721020D01*
X485854Y721092D01*
X485776Y721162D01*
X485696Y721228D01*
X485613Y721292D01*
X485528Y721353D01*
X485440Y721410D01*
X485351Y721464D01*
X485260Y721514D01*
X485166Y721561D01*
X485071Y721605D01*
X484975Y721645D01*
X484877Y721681D01*
X484778Y721714D01*
X484677Y721743D01*
X484576Y721768D01*
X484473Y721789D01*
X484370Y721807D01*
X484267Y721820D01*
X484163Y721830D01*
X484058Y721836D01*
X483954Y721838D01*
X483954Y721839D02*
X483835Y721837D01*
X483717Y721831D01*
X483598Y721821D01*
X483480Y721808D01*
X483363Y721790D01*
X483246Y721768D01*
X483130Y721743D01*
X483015Y721714D01*
X482900Y721681D01*
X482787Y721644D01*
X482676Y721604D01*
X482565Y721560D01*
X482457Y721512D01*
X482350Y721461D01*
X482244Y721406D01*
X482141Y721347D01*
X482039Y721286D01*
X481940Y721221D01*
X481842Y721152D01*
X481748Y721081D01*
X481655Y721006D01*
X481565Y720929D01*
X481478Y720848D01*
X481393Y720765D01*
X481311Y720679D01*
X481232Y720590D01*
X481156Y720499D01*
X481083Y720405D01*
X481014Y720309D01*
X480947Y720210D01*
X480884Y720110D01*
X480824Y720007D01*
X480767Y719903D01*
X480715Y719796D01*
X480665Y719688D01*
X480619Y719579D01*
X480577Y719467D01*
X480539Y719355D01*
X485817Y716871D02*
X485892Y716945D01*
X485964Y717022D01*
X486034Y717101D01*
X486101Y717183D01*
X486165Y717267D01*
X486226Y717353D01*
X486284Y717441D01*
X486339Y717532D01*
X486391Y717624D01*
X486439Y717718D01*
X486484Y717813D01*
X486526Y717911D01*
X486564Y718009D01*
X486599Y718109D01*
X486630Y718210D01*
X486657Y718312D01*
X486681Y718415D01*
X486702Y718518D01*
X486718Y718623D01*
X486731Y718728D01*
X486741Y718833D01*
X486746Y718938D01*
X486748Y719044D01*
X485817Y716871D02*
X480539Y710662D01*
X486748Y710662D01*
X547620Y766600D02*
X547620Y782800D01*
X519180Y782800D02*
X519180Y766600D01*
X528180Y782800D02*
X538620Y782800D01*
X529120Y766600D02*
X528180Y766600D01*
X537680Y766600D02*
X538620Y766600D01*
X520120Y766600D02*
X519180Y766600D01*
X546680Y766600D02*
X547620Y766600D01*
X547620Y782800D02*
X546680Y782800D01*
X520120Y782800D02*
X519180Y782800D01*
X522704Y813562D02*
X522704Y824738D01*
X521462Y813562D02*
X523946Y813562D01*
X523946Y824738D02*
X521462Y824738D01*
X531185Y813562D02*
X533669Y813562D01*
X531185Y813562D02*
X531087Y813564D01*
X530990Y813570D01*
X530893Y813579D01*
X530796Y813593D01*
X530700Y813610D01*
X530605Y813631D01*
X530511Y813655D01*
X530417Y813684D01*
X530325Y813716D01*
X530234Y813751D01*
X530145Y813790D01*
X530057Y813833D01*
X529971Y813879D01*
X529887Y813928D01*
X529805Y813981D01*
X529725Y814036D01*
X529647Y814095D01*
X529572Y814157D01*
X529499Y814222D01*
X529429Y814290D01*
X529361Y814360D01*
X529296Y814433D01*
X529234Y814508D01*
X529175Y814586D01*
X529120Y814666D01*
X529067Y814748D01*
X529018Y814832D01*
X528972Y814918D01*
X528929Y815006D01*
X528890Y815095D01*
X528855Y815186D01*
X528823Y815278D01*
X528794Y815372D01*
X528770Y815466D01*
X528749Y815561D01*
X528732Y815657D01*
X528718Y815754D01*
X528709Y815851D01*
X528703Y815948D01*
X528701Y816046D01*
X528702Y816046D02*
X528702Y822254D01*
X528701Y822254D02*
X528703Y822352D01*
X528709Y822449D01*
X528718Y822546D01*
X528732Y822643D01*
X528749Y822739D01*
X528770Y822834D01*
X528794Y822928D01*
X528823Y823022D01*
X528855Y823114D01*
X528890Y823205D01*
X528929Y823294D01*
X528972Y823382D01*
X529018Y823468D01*
X529067Y823552D01*
X529120Y823634D01*
X529175Y823714D01*
X529234Y823792D01*
X529296Y823867D01*
X529361Y823940D01*
X529429Y824010D01*
X529499Y824078D01*
X529572Y824143D01*
X529647Y824205D01*
X529725Y824264D01*
X529805Y824319D01*
X529887Y824372D01*
X529971Y824421D01*
X530057Y824467D01*
X530145Y824510D01*
X530234Y824549D01*
X530325Y824584D01*
X530417Y824616D01*
X530511Y824645D01*
X530605Y824669D01*
X530700Y824690D01*
X530796Y824707D01*
X530893Y824721D01*
X530990Y824730D01*
X531087Y824736D01*
X531185Y824738D01*
X533669Y824738D01*
X541683Y824738D02*
X541787Y824736D01*
X541892Y824730D01*
X541996Y824720D01*
X542099Y824707D01*
X542202Y824689D01*
X542305Y824668D01*
X542406Y824643D01*
X542507Y824614D01*
X542606Y824581D01*
X542704Y824545D01*
X542800Y824505D01*
X542895Y824461D01*
X542989Y824414D01*
X543080Y824364D01*
X543169Y824310D01*
X543257Y824253D01*
X543342Y824192D01*
X543425Y824128D01*
X543505Y824062D01*
X543583Y823992D01*
X543659Y823920D01*
X543731Y823844D01*
X543801Y823766D01*
X543867Y823686D01*
X543931Y823603D01*
X543992Y823518D01*
X544049Y823430D01*
X544103Y823341D01*
X544153Y823250D01*
X544200Y823156D01*
X544244Y823061D01*
X544284Y822965D01*
X544320Y822867D01*
X544353Y822768D01*
X544382Y822667D01*
X544407Y822566D01*
X544428Y822463D01*
X544446Y822360D01*
X544459Y822257D01*
X544469Y822153D01*
X544475Y822048D01*
X544477Y821944D01*
X541683Y824739D02*
X541564Y824737D01*
X541446Y824731D01*
X541327Y824721D01*
X541209Y824708D01*
X541092Y824690D01*
X540975Y824668D01*
X540859Y824643D01*
X540744Y824614D01*
X540629Y824581D01*
X540516Y824544D01*
X540405Y824504D01*
X540294Y824460D01*
X540186Y824412D01*
X540079Y824361D01*
X539973Y824306D01*
X539870Y824247D01*
X539768Y824186D01*
X539669Y824121D01*
X539571Y824052D01*
X539477Y823981D01*
X539384Y823906D01*
X539294Y823829D01*
X539207Y823748D01*
X539122Y823665D01*
X539040Y823579D01*
X538961Y823490D01*
X538885Y823399D01*
X538812Y823305D01*
X538743Y823209D01*
X538676Y823110D01*
X538613Y823010D01*
X538553Y822907D01*
X538496Y822803D01*
X538444Y822696D01*
X538394Y822588D01*
X538348Y822479D01*
X538306Y822367D01*
X538268Y822255D01*
X543546Y819771D02*
X543621Y819845D01*
X543693Y819922D01*
X543763Y820001D01*
X543830Y820083D01*
X543894Y820167D01*
X543955Y820253D01*
X544013Y820341D01*
X544068Y820432D01*
X544120Y820524D01*
X544168Y820618D01*
X544213Y820713D01*
X544255Y820811D01*
X544293Y820909D01*
X544328Y821009D01*
X544359Y821110D01*
X544386Y821212D01*
X544410Y821315D01*
X544431Y821418D01*
X544447Y821523D01*
X544460Y821628D01*
X544470Y821733D01*
X544475Y821838D01*
X544477Y821944D01*
X543546Y819771D02*
X538268Y813562D01*
X544477Y813562D01*
D14*
X705814Y673115D03*
X691082Y673115D03*
D10*
X704342Y690372D02*
X704342Y701548D01*
X707446Y701548D01*
X707557Y701546D01*
X707667Y701540D01*
X707778Y701530D01*
X707888Y701516D01*
X707997Y701499D01*
X708106Y701477D01*
X708214Y701452D01*
X708320Y701422D01*
X708426Y701389D01*
X708531Y701352D01*
X708634Y701312D01*
X708735Y701267D01*
X708835Y701220D01*
X708934Y701168D01*
X709030Y701113D01*
X709124Y701055D01*
X709216Y700994D01*
X709306Y700929D01*
X709394Y700861D01*
X709479Y700790D01*
X709561Y700716D01*
X709641Y700639D01*
X709718Y700559D01*
X709792Y700477D01*
X709863Y700392D01*
X709931Y700304D01*
X709996Y700214D01*
X710057Y700122D01*
X710115Y700028D01*
X710170Y699932D01*
X710222Y699833D01*
X710269Y699733D01*
X710314Y699632D01*
X710354Y699529D01*
X710391Y699424D01*
X710424Y699318D01*
X710454Y699212D01*
X710479Y699104D01*
X710501Y698995D01*
X710518Y698886D01*
X710532Y698776D01*
X710542Y698665D01*
X710548Y698555D01*
X710550Y698444D01*
X710548Y698333D01*
X710542Y698223D01*
X710532Y698112D01*
X710518Y698002D01*
X710501Y697893D01*
X710479Y697784D01*
X710454Y697676D01*
X710424Y697570D01*
X710391Y697464D01*
X710354Y697359D01*
X710314Y697256D01*
X710269Y697155D01*
X710222Y697055D01*
X710170Y696956D01*
X710115Y696860D01*
X710057Y696766D01*
X709996Y696674D01*
X709931Y696584D01*
X709863Y696496D01*
X709792Y696411D01*
X709718Y696329D01*
X709641Y696249D01*
X709561Y696172D01*
X709479Y696098D01*
X709394Y696027D01*
X709306Y695959D01*
X709216Y695894D01*
X709124Y695833D01*
X709030Y695775D01*
X708934Y695720D01*
X708835Y695668D01*
X708735Y695621D01*
X708634Y695576D01*
X708531Y695536D01*
X708426Y695499D01*
X708320Y695466D01*
X708214Y695436D01*
X708106Y695411D01*
X707997Y695389D01*
X707888Y695372D01*
X707778Y695358D01*
X707667Y695348D01*
X707557Y695342D01*
X707446Y695340D01*
X707446Y695339D02*
X704342Y695339D01*
X708067Y695339D02*
X710551Y690372D01*
X715680Y690372D02*
X719405Y690372D01*
X719503Y690374D01*
X719600Y690380D01*
X719697Y690389D01*
X719794Y690403D01*
X719890Y690420D01*
X719985Y690441D01*
X720079Y690465D01*
X720173Y690494D01*
X720265Y690526D01*
X720356Y690561D01*
X720445Y690600D01*
X720533Y690643D01*
X720619Y690689D01*
X720703Y690738D01*
X720785Y690791D01*
X720865Y690846D01*
X720943Y690905D01*
X721018Y690967D01*
X721091Y691032D01*
X721161Y691100D01*
X721229Y691170D01*
X721294Y691243D01*
X721356Y691318D01*
X721415Y691396D01*
X721470Y691476D01*
X721523Y691558D01*
X721572Y691642D01*
X721618Y691728D01*
X721661Y691816D01*
X721700Y691905D01*
X721735Y691996D01*
X721767Y692088D01*
X721796Y692182D01*
X721820Y692276D01*
X721841Y692371D01*
X721858Y692467D01*
X721872Y692564D01*
X721881Y692661D01*
X721887Y692758D01*
X721889Y692856D01*
X721889Y694097D01*
X721887Y694195D01*
X721881Y694292D01*
X721872Y694389D01*
X721858Y694486D01*
X721841Y694582D01*
X721820Y694677D01*
X721796Y694771D01*
X721767Y694865D01*
X721735Y694957D01*
X721700Y695048D01*
X721661Y695137D01*
X721618Y695225D01*
X721572Y695311D01*
X721523Y695395D01*
X721470Y695477D01*
X721415Y695557D01*
X721356Y695635D01*
X721294Y695710D01*
X721229Y695783D01*
X721161Y695853D01*
X721091Y695921D01*
X721018Y695986D01*
X720943Y696048D01*
X720865Y696107D01*
X720785Y696162D01*
X720703Y696215D01*
X720619Y696264D01*
X720533Y696310D01*
X720445Y696353D01*
X720356Y696392D01*
X720265Y696427D01*
X720173Y696459D01*
X720079Y696488D01*
X719985Y696512D01*
X719890Y696533D01*
X719794Y696550D01*
X719697Y696564D01*
X719600Y696573D01*
X719503Y696579D01*
X719405Y696581D01*
X715680Y696581D01*
X715680Y701548D01*
X721889Y701548D01*
X635762Y810316D02*
X635762Y815284D01*
X635764Y815395D01*
X635770Y815505D01*
X635780Y815616D01*
X635794Y815726D01*
X635811Y815835D01*
X635833Y815944D01*
X635858Y816052D01*
X635888Y816158D01*
X635921Y816264D01*
X635958Y816369D01*
X635998Y816472D01*
X636043Y816573D01*
X636090Y816673D01*
X636142Y816772D01*
X636197Y816868D01*
X636255Y816962D01*
X636316Y817054D01*
X636381Y817144D01*
X636449Y817232D01*
X636520Y817317D01*
X636594Y817399D01*
X636671Y817479D01*
X636751Y817556D01*
X636833Y817630D01*
X636918Y817701D01*
X637006Y817769D01*
X637096Y817834D01*
X637188Y817895D01*
X637282Y817953D01*
X637378Y818008D01*
X637477Y818060D01*
X637577Y818107D01*
X637678Y818152D01*
X637781Y818192D01*
X637886Y818229D01*
X637992Y818262D01*
X638098Y818292D01*
X638206Y818317D01*
X638315Y818339D01*
X638424Y818356D01*
X638534Y818370D01*
X638645Y818380D01*
X638755Y818386D01*
X638866Y818388D01*
X638977Y818386D01*
X639087Y818380D01*
X639198Y818370D01*
X639308Y818356D01*
X639417Y818339D01*
X639526Y818317D01*
X639634Y818292D01*
X639740Y818262D01*
X639846Y818229D01*
X639951Y818192D01*
X640054Y818152D01*
X640155Y818107D01*
X640255Y818060D01*
X640354Y818008D01*
X640450Y817953D01*
X640544Y817895D01*
X640636Y817834D01*
X640726Y817769D01*
X640814Y817701D01*
X640899Y817630D01*
X640981Y817556D01*
X641061Y817479D01*
X641138Y817399D01*
X641212Y817317D01*
X641283Y817232D01*
X641351Y817144D01*
X641416Y817054D01*
X641477Y816962D01*
X641535Y816868D01*
X641590Y816772D01*
X641642Y816673D01*
X641689Y816573D01*
X641734Y816472D01*
X641774Y816369D01*
X641811Y816264D01*
X641844Y816158D01*
X641874Y816052D01*
X641899Y815944D01*
X641921Y815835D01*
X641938Y815726D01*
X641952Y815616D01*
X641962Y815505D01*
X641968Y815395D01*
X641970Y815284D01*
X641971Y815284D02*
X641971Y810316D01*
X641970Y810316D02*
X641968Y810205D01*
X641962Y810095D01*
X641952Y809984D01*
X641938Y809874D01*
X641921Y809765D01*
X641899Y809656D01*
X641874Y809548D01*
X641844Y809442D01*
X641811Y809336D01*
X641774Y809231D01*
X641734Y809128D01*
X641689Y809027D01*
X641642Y808927D01*
X641590Y808828D01*
X641535Y808732D01*
X641477Y808638D01*
X641416Y808546D01*
X641351Y808456D01*
X641283Y808368D01*
X641212Y808283D01*
X641138Y808201D01*
X641061Y808121D01*
X640981Y808044D01*
X640899Y807970D01*
X640814Y807899D01*
X640726Y807831D01*
X640636Y807766D01*
X640544Y807705D01*
X640450Y807647D01*
X640354Y807592D01*
X640255Y807540D01*
X640155Y807493D01*
X640054Y807448D01*
X639951Y807408D01*
X639846Y807371D01*
X639740Y807338D01*
X639634Y807308D01*
X639526Y807283D01*
X639417Y807261D01*
X639308Y807244D01*
X639198Y807230D01*
X639087Y807220D01*
X638977Y807214D01*
X638866Y807212D01*
X638755Y807214D01*
X638645Y807220D01*
X638534Y807230D01*
X638424Y807244D01*
X638315Y807261D01*
X638206Y807283D01*
X638098Y807308D01*
X637992Y807338D01*
X637886Y807371D01*
X637781Y807408D01*
X637678Y807448D01*
X637577Y807493D01*
X637477Y807540D01*
X637378Y807592D01*
X637282Y807647D01*
X637188Y807705D01*
X637096Y807766D01*
X637006Y807831D01*
X636918Y807899D01*
X636833Y807970D01*
X636751Y808044D01*
X636671Y808121D01*
X636594Y808201D01*
X636520Y808283D01*
X636449Y808368D01*
X636381Y808456D01*
X636316Y808546D01*
X636255Y808638D01*
X636197Y808732D01*
X636142Y808828D01*
X636090Y808927D01*
X636043Y809027D01*
X635998Y809128D01*
X635958Y809231D01*
X635921Y809336D01*
X635888Y809442D01*
X635858Y809548D01*
X635833Y809656D01*
X635811Y809765D01*
X635794Y809874D01*
X635780Y809984D01*
X635770Y810095D01*
X635764Y810205D01*
X635762Y810316D01*
X640729Y809696D02*
X643213Y807212D01*
X646739Y815904D02*
X649844Y818388D01*
X649844Y807212D01*
X652948Y807212D02*
X646739Y807212D01*
D14*
X782014Y673115D03*
X767282Y673115D03*
D10*
X767842Y696722D02*
X767842Y707898D01*
X770946Y707898D01*
X771057Y707896D01*
X771167Y707890D01*
X771278Y707880D01*
X771388Y707866D01*
X771497Y707849D01*
X771606Y707827D01*
X771714Y707802D01*
X771820Y707772D01*
X771926Y707739D01*
X772031Y707702D01*
X772134Y707662D01*
X772235Y707617D01*
X772335Y707570D01*
X772434Y707518D01*
X772530Y707463D01*
X772624Y707405D01*
X772716Y707344D01*
X772806Y707279D01*
X772894Y707211D01*
X772979Y707140D01*
X773061Y707066D01*
X773141Y706989D01*
X773218Y706909D01*
X773292Y706827D01*
X773363Y706742D01*
X773431Y706654D01*
X773496Y706564D01*
X773557Y706472D01*
X773615Y706378D01*
X773670Y706282D01*
X773722Y706183D01*
X773769Y706083D01*
X773814Y705982D01*
X773854Y705879D01*
X773891Y705774D01*
X773924Y705668D01*
X773954Y705562D01*
X773979Y705454D01*
X774001Y705345D01*
X774018Y705236D01*
X774032Y705126D01*
X774042Y705015D01*
X774048Y704905D01*
X774050Y704794D01*
X774048Y704683D01*
X774042Y704573D01*
X774032Y704462D01*
X774018Y704352D01*
X774001Y704243D01*
X773979Y704134D01*
X773954Y704026D01*
X773924Y703920D01*
X773891Y703814D01*
X773854Y703709D01*
X773814Y703606D01*
X773769Y703505D01*
X773722Y703405D01*
X773670Y703306D01*
X773615Y703210D01*
X773557Y703116D01*
X773496Y703024D01*
X773431Y702934D01*
X773363Y702846D01*
X773292Y702761D01*
X773218Y702679D01*
X773141Y702599D01*
X773061Y702522D01*
X772979Y702448D01*
X772894Y702377D01*
X772806Y702309D01*
X772716Y702244D01*
X772624Y702183D01*
X772530Y702125D01*
X772434Y702070D01*
X772335Y702018D01*
X772235Y701971D01*
X772134Y701926D01*
X772031Y701886D01*
X771926Y701849D01*
X771820Y701816D01*
X771714Y701786D01*
X771606Y701761D01*
X771497Y701739D01*
X771388Y701722D01*
X771278Y701708D01*
X771167Y701698D01*
X771057Y701692D01*
X770946Y701690D01*
X770946Y701689D02*
X767842Y701689D01*
X771567Y701689D02*
X774051Y696722D01*
X779180Y702931D02*
X782905Y702931D01*
X783003Y702929D01*
X783100Y702923D01*
X783197Y702914D01*
X783294Y702900D01*
X783390Y702883D01*
X783485Y702862D01*
X783579Y702838D01*
X783673Y702809D01*
X783765Y702777D01*
X783856Y702742D01*
X783945Y702703D01*
X784033Y702660D01*
X784119Y702614D01*
X784203Y702565D01*
X784285Y702512D01*
X784365Y702457D01*
X784443Y702398D01*
X784518Y702336D01*
X784591Y702271D01*
X784661Y702203D01*
X784729Y702133D01*
X784794Y702060D01*
X784856Y701985D01*
X784915Y701907D01*
X784970Y701827D01*
X785023Y701745D01*
X785072Y701661D01*
X785118Y701575D01*
X785161Y701487D01*
X785200Y701398D01*
X785235Y701307D01*
X785267Y701215D01*
X785296Y701121D01*
X785320Y701027D01*
X785341Y700932D01*
X785358Y700836D01*
X785372Y700739D01*
X785381Y700642D01*
X785387Y700545D01*
X785389Y700447D01*
X785389Y699826D01*
X785388Y699826D02*
X785386Y699715D01*
X785380Y699605D01*
X785370Y699494D01*
X785356Y699384D01*
X785339Y699275D01*
X785317Y699166D01*
X785292Y699058D01*
X785262Y698952D01*
X785229Y698846D01*
X785192Y698741D01*
X785152Y698638D01*
X785107Y698537D01*
X785060Y698437D01*
X785008Y698338D01*
X784953Y698242D01*
X784895Y698148D01*
X784834Y698056D01*
X784769Y697966D01*
X784701Y697878D01*
X784630Y697793D01*
X784556Y697711D01*
X784479Y697631D01*
X784399Y697554D01*
X784317Y697480D01*
X784232Y697409D01*
X784144Y697341D01*
X784054Y697276D01*
X783962Y697215D01*
X783868Y697157D01*
X783772Y697102D01*
X783673Y697050D01*
X783573Y697003D01*
X783472Y696958D01*
X783369Y696918D01*
X783264Y696881D01*
X783158Y696848D01*
X783052Y696818D01*
X782944Y696793D01*
X782835Y696771D01*
X782726Y696754D01*
X782616Y696740D01*
X782505Y696730D01*
X782395Y696724D01*
X782284Y696722D01*
X782173Y696724D01*
X782063Y696730D01*
X781952Y696740D01*
X781842Y696754D01*
X781733Y696771D01*
X781624Y696793D01*
X781516Y696818D01*
X781410Y696848D01*
X781304Y696881D01*
X781199Y696918D01*
X781096Y696958D01*
X780995Y697003D01*
X780895Y697050D01*
X780796Y697102D01*
X780700Y697157D01*
X780606Y697215D01*
X780514Y697276D01*
X780424Y697341D01*
X780336Y697409D01*
X780251Y697480D01*
X780169Y697554D01*
X780089Y697631D01*
X780012Y697711D01*
X779938Y697793D01*
X779867Y697878D01*
X779799Y697966D01*
X779734Y698056D01*
X779673Y698148D01*
X779615Y698242D01*
X779560Y698338D01*
X779508Y698437D01*
X779461Y698537D01*
X779416Y698638D01*
X779376Y698741D01*
X779339Y698846D01*
X779306Y698952D01*
X779276Y699058D01*
X779251Y699166D01*
X779229Y699275D01*
X779212Y699384D01*
X779198Y699494D01*
X779188Y699605D01*
X779182Y699715D01*
X779180Y699826D01*
X779180Y702931D01*
X779182Y703070D01*
X779188Y703210D01*
X779198Y703348D01*
X779211Y703487D01*
X779229Y703625D01*
X779250Y703763D01*
X779275Y703900D01*
X779305Y704036D01*
X779337Y704172D01*
X779374Y704306D01*
X779415Y704439D01*
X779459Y704571D01*
X779507Y704702D01*
X779558Y704832D01*
X779613Y704960D01*
X779672Y705086D01*
X779734Y705211D01*
X779800Y705334D01*
X779869Y705455D01*
X779941Y705574D01*
X780017Y705691D01*
X780096Y705805D01*
X780178Y705918D01*
X780264Y706028D01*
X780352Y706136D01*
X780443Y706241D01*
X780538Y706343D01*
X780635Y706443D01*
X780735Y706540D01*
X780837Y706635D01*
X780942Y706726D01*
X781050Y706814D01*
X781160Y706900D01*
X781273Y706982D01*
X781387Y707061D01*
X781504Y707137D01*
X781623Y707209D01*
X781744Y707278D01*
X781867Y707344D01*
X781992Y707406D01*
X782118Y707465D01*
X782246Y707520D01*
X782376Y707571D01*
X782506Y707619D01*
X782639Y707663D01*
X782772Y707704D01*
X782906Y707741D01*
X783042Y707773D01*
X783178Y707803D01*
X783315Y707828D01*
X783453Y707849D01*
X783591Y707867D01*
X783729Y707880D01*
X783868Y707890D01*
X784008Y707896D01*
X784147Y707898D01*
X173529Y428612D02*
X171046Y428612D01*
X170948Y428614D01*
X170851Y428620D01*
X170754Y428629D01*
X170657Y428643D01*
X170561Y428660D01*
X170466Y428681D01*
X170372Y428705D01*
X170278Y428734D01*
X170186Y428766D01*
X170095Y428801D01*
X170006Y428840D01*
X169918Y428883D01*
X169832Y428929D01*
X169748Y428978D01*
X169666Y429031D01*
X169586Y429086D01*
X169508Y429145D01*
X169433Y429207D01*
X169360Y429272D01*
X169290Y429340D01*
X169222Y429410D01*
X169157Y429483D01*
X169095Y429558D01*
X169036Y429636D01*
X168981Y429716D01*
X168928Y429798D01*
X168879Y429882D01*
X168833Y429968D01*
X168790Y430056D01*
X168751Y430145D01*
X168716Y430236D01*
X168684Y430328D01*
X168655Y430422D01*
X168631Y430516D01*
X168610Y430611D01*
X168593Y430707D01*
X168579Y430804D01*
X168570Y430901D01*
X168564Y430998D01*
X168562Y431096D01*
X168562Y437304D01*
X168564Y437402D01*
X168570Y437499D01*
X168579Y437596D01*
X168593Y437693D01*
X168610Y437789D01*
X168631Y437884D01*
X168655Y437978D01*
X168684Y438072D01*
X168716Y438164D01*
X168751Y438255D01*
X168790Y438344D01*
X168833Y438432D01*
X168879Y438518D01*
X168928Y438602D01*
X168981Y438684D01*
X169036Y438764D01*
X169095Y438842D01*
X169157Y438917D01*
X169222Y438990D01*
X169290Y439060D01*
X169360Y439128D01*
X169433Y439193D01*
X169508Y439255D01*
X169586Y439314D01*
X169666Y439369D01*
X169748Y439422D01*
X169832Y439471D01*
X169918Y439517D01*
X170006Y439560D01*
X170095Y439599D01*
X170186Y439634D01*
X170278Y439666D01*
X170372Y439695D01*
X170466Y439719D01*
X170561Y439740D01*
X170657Y439757D01*
X170754Y439771D01*
X170851Y439780D01*
X170948Y439786D01*
X171046Y439788D01*
X173529Y439788D01*
X178129Y437304D02*
X181233Y439788D01*
X181233Y428612D01*
X178129Y428612D02*
X184337Y428612D01*
X291696Y390512D02*
X294179Y390512D01*
X291696Y390512D02*
X291598Y390514D01*
X291501Y390520D01*
X291404Y390529D01*
X291307Y390543D01*
X291211Y390560D01*
X291116Y390581D01*
X291022Y390605D01*
X290928Y390634D01*
X290836Y390666D01*
X290745Y390701D01*
X290656Y390740D01*
X290568Y390783D01*
X290482Y390829D01*
X290398Y390878D01*
X290316Y390931D01*
X290236Y390986D01*
X290158Y391045D01*
X290083Y391107D01*
X290010Y391172D01*
X289940Y391240D01*
X289872Y391310D01*
X289807Y391383D01*
X289745Y391458D01*
X289686Y391536D01*
X289631Y391616D01*
X289578Y391698D01*
X289529Y391782D01*
X289483Y391868D01*
X289440Y391956D01*
X289401Y392045D01*
X289366Y392136D01*
X289334Y392228D01*
X289305Y392322D01*
X289281Y392416D01*
X289260Y392511D01*
X289243Y392607D01*
X289229Y392704D01*
X289220Y392801D01*
X289214Y392898D01*
X289212Y392996D01*
X289212Y399204D01*
X289214Y399302D01*
X289220Y399399D01*
X289229Y399496D01*
X289243Y399593D01*
X289260Y399689D01*
X289281Y399784D01*
X289305Y399878D01*
X289334Y399972D01*
X289366Y400064D01*
X289401Y400155D01*
X289440Y400244D01*
X289483Y400332D01*
X289529Y400418D01*
X289578Y400502D01*
X289631Y400584D01*
X289686Y400664D01*
X289745Y400742D01*
X289807Y400817D01*
X289872Y400890D01*
X289940Y400960D01*
X290010Y401028D01*
X290083Y401093D01*
X290158Y401155D01*
X290236Y401214D01*
X290316Y401269D01*
X290398Y401322D01*
X290482Y401371D01*
X290568Y401417D01*
X290656Y401460D01*
X290745Y401499D01*
X290836Y401534D01*
X290928Y401566D01*
X291022Y401595D01*
X291116Y401619D01*
X291211Y401640D01*
X291307Y401657D01*
X291404Y401671D01*
X291501Y401680D01*
X291598Y401686D01*
X291696Y401688D01*
X294179Y401688D01*
X302193Y401688D02*
X302297Y401686D01*
X302402Y401680D01*
X302506Y401670D01*
X302609Y401657D01*
X302712Y401639D01*
X302815Y401618D01*
X302916Y401593D01*
X303017Y401564D01*
X303116Y401531D01*
X303214Y401495D01*
X303310Y401455D01*
X303405Y401411D01*
X303499Y401364D01*
X303590Y401314D01*
X303679Y401260D01*
X303767Y401203D01*
X303852Y401142D01*
X303935Y401078D01*
X304015Y401012D01*
X304093Y400942D01*
X304169Y400870D01*
X304241Y400794D01*
X304311Y400716D01*
X304377Y400636D01*
X304441Y400553D01*
X304502Y400468D01*
X304559Y400380D01*
X304613Y400291D01*
X304663Y400200D01*
X304710Y400106D01*
X304754Y400011D01*
X304794Y399915D01*
X304830Y399817D01*
X304863Y399718D01*
X304892Y399617D01*
X304917Y399516D01*
X304938Y399413D01*
X304956Y399310D01*
X304969Y399207D01*
X304979Y399103D01*
X304985Y398998D01*
X304987Y398894D01*
X302193Y401689D02*
X302074Y401687D01*
X301956Y401681D01*
X301837Y401671D01*
X301719Y401658D01*
X301602Y401640D01*
X301485Y401618D01*
X301369Y401593D01*
X301254Y401564D01*
X301139Y401531D01*
X301026Y401494D01*
X300915Y401454D01*
X300804Y401410D01*
X300696Y401362D01*
X300589Y401311D01*
X300483Y401256D01*
X300380Y401197D01*
X300278Y401136D01*
X300179Y401071D01*
X300081Y401002D01*
X299987Y400931D01*
X299894Y400856D01*
X299804Y400779D01*
X299717Y400698D01*
X299632Y400615D01*
X299550Y400529D01*
X299471Y400440D01*
X299395Y400349D01*
X299322Y400255D01*
X299253Y400159D01*
X299186Y400060D01*
X299123Y399960D01*
X299063Y399857D01*
X299006Y399753D01*
X298954Y399646D01*
X298904Y399538D01*
X298858Y399429D01*
X298816Y399317D01*
X298778Y399205D01*
X304056Y396721D02*
X304131Y396795D01*
X304203Y396872D01*
X304273Y396951D01*
X304340Y397033D01*
X304404Y397117D01*
X304465Y397203D01*
X304523Y397291D01*
X304578Y397382D01*
X304630Y397474D01*
X304678Y397568D01*
X304723Y397663D01*
X304765Y397761D01*
X304803Y397859D01*
X304838Y397959D01*
X304869Y398060D01*
X304896Y398162D01*
X304920Y398265D01*
X304941Y398368D01*
X304957Y398473D01*
X304970Y398578D01*
X304980Y398683D01*
X304985Y398788D01*
X304987Y398894D01*
X304056Y396721D02*
X298779Y390512D01*
X304987Y390512D01*
X812396Y695312D02*
X814879Y695312D01*
X812396Y695312D02*
X812298Y695314D01*
X812201Y695320D01*
X812104Y695329D01*
X812007Y695343D01*
X811911Y695360D01*
X811816Y695381D01*
X811722Y695405D01*
X811628Y695434D01*
X811536Y695466D01*
X811445Y695501D01*
X811356Y695540D01*
X811268Y695583D01*
X811182Y695629D01*
X811098Y695678D01*
X811016Y695731D01*
X810936Y695786D01*
X810858Y695845D01*
X810783Y695907D01*
X810710Y695972D01*
X810640Y696040D01*
X810572Y696110D01*
X810507Y696183D01*
X810445Y696258D01*
X810386Y696336D01*
X810331Y696416D01*
X810278Y696498D01*
X810229Y696582D01*
X810183Y696668D01*
X810140Y696756D01*
X810101Y696845D01*
X810066Y696936D01*
X810034Y697028D01*
X810005Y697122D01*
X809981Y697216D01*
X809960Y697311D01*
X809943Y697407D01*
X809929Y697504D01*
X809920Y697601D01*
X809914Y697698D01*
X809912Y697796D01*
X809912Y704004D01*
X809914Y704102D01*
X809920Y704199D01*
X809929Y704296D01*
X809943Y704393D01*
X809960Y704489D01*
X809981Y704584D01*
X810005Y704678D01*
X810034Y704772D01*
X810066Y704864D01*
X810101Y704955D01*
X810140Y705044D01*
X810183Y705132D01*
X810229Y705218D01*
X810278Y705302D01*
X810331Y705384D01*
X810386Y705464D01*
X810445Y705542D01*
X810507Y705617D01*
X810572Y705690D01*
X810640Y705760D01*
X810710Y705828D01*
X810783Y705893D01*
X810858Y705955D01*
X810936Y706014D01*
X811016Y706069D01*
X811098Y706122D01*
X811182Y706171D01*
X811268Y706217D01*
X811356Y706260D01*
X811445Y706299D01*
X811536Y706334D01*
X811628Y706366D01*
X811722Y706395D01*
X811816Y706419D01*
X811911Y706440D01*
X812007Y706457D01*
X812104Y706471D01*
X812201Y706480D01*
X812298Y706486D01*
X812396Y706488D01*
X814879Y706488D01*
X819479Y695312D02*
X822583Y695312D01*
X822694Y695314D01*
X822804Y695320D01*
X822915Y695330D01*
X823025Y695344D01*
X823134Y695361D01*
X823243Y695383D01*
X823351Y695408D01*
X823457Y695438D01*
X823563Y695471D01*
X823668Y695508D01*
X823771Y695548D01*
X823872Y695593D01*
X823972Y695640D01*
X824071Y695692D01*
X824167Y695747D01*
X824261Y695805D01*
X824353Y695866D01*
X824443Y695931D01*
X824531Y695999D01*
X824616Y696070D01*
X824698Y696144D01*
X824778Y696221D01*
X824855Y696301D01*
X824929Y696383D01*
X825000Y696468D01*
X825068Y696556D01*
X825133Y696646D01*
X825194Y696738D01*
X825252Y696832D01*
X825307Y696928D01*
X825359Y697027D01*
X825406Y697127D01*
X825451Y697228D01*
X825491Y697331D01*
X825528Y697436D01*
X825561Y697542D01*
X825591Y697648D01*
X825616Y697756D01*
X825638Y697865D01*
X825655Y697974D01*
X825669Y698084D01*
X825679Y698195D01*
X825685Y698305D01*
X825687Y698416D01*
X825685Y698527D01*
X825679Y698637D01*
X825669Y698748D01*
X825655Y698858D01*
X825638Y698967D01*
X825616Y699076D01*
X825591Y699184D01*
X825561Y699290D01*
X825528Y699396D01*
X825491Y699501D01*
X825451Y699604D01*
X825406Y699705D01*
X825359Y699805D01*
X825307Y699904D01*
X825252Y700000D01*
X825194Y700094D01*
X825133Y700186D01*
X825068Y700276D01*
X825000Y700364D01*
X824929Y700449D01*
X824855Y700531D01*
X824778Y700611D01*
X824698Y700688D01*
X824616Y700762D01*
X824531Y700833D01*
X824443Y700901D01*
X824353Y700966D01*
X824261Y701027D01*
X824167Y701085D01*
X824071Y701140D01*
X823972Y701192D01*
X823872Y701239D01*
X823771Y701284D01*
X823668Y701324D01*
X823563Y701361D01*
X823457Y701394D01*
X823351Y701424D01*
X823243Y701449D01*
X823134Y701471D01*
X823025Y701488D01*
X822915Y701502D01*
X822804Y701512D01*
X822694Y701518D01*
X822583Y701520D01*
X823204Y706488D02*
X819479Y706488D01*
X823204Y706488D02*
X823303Y706486D01*
X823401Y706480D01*
X823500Y706470D01*
X823597Y706457D01*
X823695Y706439D01*
X823791Y706418D01*
X823887Y706392D01*
X823981Y706363D01*
X824074Y706331D01*
X824166Y706294D01*
X824256Y706254D01*
X824345Y706210D01*
X824432Y706163D01*
X824517Y706113D01*
X824599Y706059D01*
X824680Y706002D01*
X824758Y705942D01*
X824834Y705878D01*
X824907Y705812D01*
X824978Y705743D01*
X825046Y705671D01*
X825110Y705596D01*
X825172Y705519D01*
X825231Y705440D01*
X825286Y705358D01*
X825339Y705274D01*
X825387Y705189D01*
X825433Y705101D01*
X825475Y705011D01*
X825513Y704920D01*
X825547Y704828D01*
X825578Y704734D01*
X825605Y704639D01*
X825629Y704543D01*
X825648Y704446D01*
X825664Y704349D01*
X825676Y704251D01*
X825684Y704152D01*
X825688Y704053D01*
X825688Y703955D01*
X825684Y703856D01*
X825676Y703757D01*
X825664Y703659D01*
X825648Y703562D01*
X825629Y703465D01*
X825605Y703369D01*
X825578Y703274D01*
X825547Y703180D01*
X825513Y703088D01*
X825475Y702997D01*
X825433Y702907D01*
X825387Y702819D01*
X825339Y702734D01*
X825286Y702650D01*
X825231Y702568D01*
X825172Y702489D01*
X825110Y702412D01*
X825046Y702337D01*
X824978Y702265D01*
X824907Y702196D01*
X824834Y702130D01*
X824758Y702066D01*
X824680Y702006D01*
X824599Y701949D01*
X824517Y701895D01*
X824432Y701845D01*
X824345Y701798D01*
X824256Y701754D01*
X824166Y701714D01*
X824074Y701677D01*
X823981Y701645D01*
X823887Y701616D01*
X823791Y701590D01*
X823695Y701569D01*
X823597Y701551D01*
X823500Y701538D01*
X823401Y701528D01*
X823303Y701522D01*
X823204Y701520D01*
X823204Y701521D02*
X820720Y701521D01*
X863196Y695312D02*
X865679Y695312D01*
X863196Y695312D02*
X863098Y695314D01*
X863001Y695320D01*
X862904Y695329D01*
X862807Y695343D01*
X862711Y695360D01*
X862616Y695381D01*
X862522Y695405D01*
X862428Y695434D01*
X862336Y695466D01*
X862245Y695501D01*
X862156Y695540D01*
X862068Y695583D01*
X861982Y695629D01*
X861898Y695678D01*
X861816Y695731D01*
X861736Y695786D01*
X861658Y695845D01*
X861583Y695907D01*
X861510Y695972D01*
X861440Y696040D01*
X861372Y696110D01*
X861307Y696183D01*
X861245Y696258D01*
X861186Y696336D01*
X861131Y696416D01*
X861078Y696498D01*
X861029Y696582D01*
X860983Y696668D01*
X860940Y696756D01*
X860901Y696845D01*
X860866Y696936D01*
X860834Y697028D01*
X860805Y697122D01*
X860781Y697216D01*
X860760Y697311D01*
X860743Y697407D01*
X860729Y697504D01*
X860720Y697601D01*
X860714Y697698D01*
X860712Y697796D01*
X860712Y704004D01*
X860714Y704102D01*
X860720Y704199D01*
X860729Y704296D01*
X860743Y704393D01*
X860760Y704489D01*
X860781Y704584D01*
X860805Y704678D01*
X860834Y704772D01*
X860866Y704864D01*
X860901Y704955D01*
X860940Y705044D01*
X860983Y705132D01*
X861029Y705218D01*
X861078Y705302D01*
X861131Y705384D01*
X861186Y705464D01*
X861245Y705542D01*
X861307Y705617D01*
X861372Y705690D01*
X861440Y705760D01*
X861510Y705828D01*
X861583Y705893D01*
X861658Y705955D01*
X861736Y706014D01*
X861816Y706069D01*
X861898Y706122D01*
X861982Y706171D01*
X862068Y706217D01*
X862156Y706260D01*
X862245Y706299D01*
X862336Y706334D01*
X862428Y706366D01*
X862522Y706395D01*
X862616Y706419D01*
X862711Y706440D01*
X862807Y706457D01*
X862904Y706471D01*
X863001Y706480D01*
X863098Y706486D01*
X863196Y706488D01*
X865679Y706488D01*
X872762Y706488D02*
X870279Y697796D01*
X876487Y697796D01*
X874625Y700279D02*
X874625Y695312D01*
D11*
X927100Y901700D02*
X673100Y901700D01*
X927100Y901700D02*
X927100Y876300D01*
X673100Y876300D01*
X673100Y901700D01*
D10*
X800100Y855726D02*
X800100Y847654D01*
X800102Y847543D01*
X800108Y847433D01*
X800118Y847322D01*
X800132Y847212D01*
X800149Y847103D01*
X800171Y846994D01*
X800196Y846886D01*
X800226Y846780D01*
X800259Y846674D01*
X800296Y846569D01*
X800336Y846466D01*
X800381Y846365D01*
X800428Y846265D01*
X800480Y846166D01*
X800535Y846070D01*
X800593Y845976D01*
X800654Y845884D01*
X800719Y845794D01*
X800787Y845706D01*
X800858Y845621D01*
X800932Y845539D01*
X801009Y845459D01*
X801089Y845382D01*
X801171Y845308D01*
X801256Y845237D01*
X801344Y845169D01*
X801434Y845104D01*
X801526Y845043D01*
X801620Y844985D01*
X801716Y844930D01*
X801815Y844878D01*
X801915Y844831D01*
X802016Y844786D01*
X802119Y844746D01*
X802224Y844709D01*
X802330Y844676D01*
X802436Y844646D01*
X802544Y844621D01*
X802653Y844599D01*
X802762Y844582D01*
X802872Y844568D01*
X802983Y844558D01*
X803093Y844552D01*
X803204Y844550D01*
X803315Y844552D01*
X803425Y844558D01*
X803536Y844568D01*
X803646Y844582D01*
X803755Y844599D01*
X803864Y844621D01*
X803972Y844646D01*
X804078Y844676D01*
X804184Y844709D01*
X804289Y844746D01*
X804392Y844786D01*
X804493Y844831D01*
X804593Y844878D01*
X804692Y844930D01*
X804788Y844985D01*
X804882Y845043D01*
X804974Y845104D01*
X805064Y845169D01*
X805152Y845237D01*
X805237Y845308D01*
X805319Y845382D01*
X805399Y845459D01*
X805476Y845539D01*
X805550Y845621D01*
X805621Y845706D01*
X805689Y845794D01*
X805754Y845884D01*
X805815Y845976D01*
X805873Y846070D01*
X805928Y846166D01*
X805980Y846265D01*
X806027Y846365D01*
X806072Y846466D01*
X806112Y846569D01*
X806149Y846674D01*
X806182Y846780D01*
X806212Y846886D01*
X806237Y846994D01*
X806259Y847103D01*
X806276Y847212D01*
X806290Y847322D01*
X806300Y847433D01*
X806306Y847543D01*
X806308Y847654D01*
X806309Y847654D02*
X806309Y855726D01*
X814253Y855726D02*
X814253Y844550D01*
X814253Y850138D02*
X812701Y851069D01*
X812629Y851115D01*
X812560Y851163D01*
X812492Y851215D01*
X812428Y851269D01*
X812365Y851327D01*
X812306Y851387D01*
X812249Y851450D01*
X812195Y851515D01*
X812145Y851583D01*
X812097Y851653D01*
X812053Y851725D01*
X812012Y851800D01*
X811974Y851875D01*
X811940Y851953D01*
X811910Y852032D01*
X811883Y852112D01*
X811860Y852194D01*
X811840Y852276D01*
X811824Y852360D01*
X811813Y852443D01*
X811805Y852528D01*
X811801Y852612D01*
X811800Y852697D01*
X811804Y852782D01*
X811811Y852866D01*
X811823Y852950D01*
X811838Y853033D01*
X811857Y853116D01*
X811880Y853198D01*
X811906Y853278D01*
X811936Y853357D01*
X811970Y853435D01*
X812007Y853511D01*
X812047Y853586D01*
X812091Y853658D01*
X812139Y853728D01*
X812189Y853796D01*
X812242Y853862D01*
X812299Y853925D01*
X812358Y853986D01*
X812420Y854044D01*
X812484Y854099D01*
X812551Y854151D01*
X812620Y854200D01*
X812692Y854245D01*
X812765Y854288D01*
X812840Y854327D01*
X812917Y854362D01*
X812996Y854394D01*
X813076Y854422D01*
X813157Y854447D01*
X813239Y854468D01*
X813322Y854485D01*
X813322Y854484D02*
X813457Y854507D01*
X813592Y854525D01*
X813727Y854541D01*
X813863Y854552D01*
X813999Y854560D01*
X814136Y854563D01*
X814272Y854564D01*
X814409Y854560D01*
X814545Y854552D01*
X814681Y854541D01*
X814816Y854526D01*
X814951Y854507D01*
X815086Y854485D01*
X815220Y854458D01*
X815353Y854428D01*
X815485Y854395D01*
X815616Y854357D01*
X815746Y854317D01*
X815875Y854272D01*
X816003Y854224D01*
X816129Y854172D01*
X816254Y854117D01*
X816377Y854059D01*
X816499Y853997D01*
X816619Y853932D01*
X816737Y853863D01*
X814253Y850138D02*
X815806Y849207D01*
X815805Y849207D02*
X815877Y849161D01*
X815946Y849113D01*
X816014Y849061D01*
X816078Y849007D01*
X816141Y848949D01*
X816200Y848889D01*
X816257Y848826D01*
X816311Y848761D01*
X816361Y848693D01*
X816409Y848623D01*
X816453Y848551D01*
X816494Y848476D01*
X816532Y848401D01*
X816566Y848323D01*
X816596Y848244D01*
X816623Y848164D01*
X816646Y848082D01*
X816666Y848000D01*
X816682Y847916D01*
X816693Y847833D01*
X816701Y847748D01*
X816705Y847664D01*
X816706Y847579D01*
X816702Y847494D01*
X816695Y847410D01*
X816683Y847326D01*
X816668Y847243D01*
X816649Y847160D01*
X816626Y847078D01*
X816600Y846998D01*
X816570Y846919D01*
X816536Y846841D01*
X816499Y846765D01*
X816459Y846690D01*
X816415Y846618D01*
X816368Y846548D01*
X816317Y846480D01*
X816264Y846414D01*
X816207Y846351D01*
X816148Y846290D01*
X816086Y846232D01*
X816022Y846177D01*
X815955Y846125D01*
X815886Y846076D01*
X815814Y846031D01*
X815741Y845988D01*
X815666Y845950D01*
X815589Y845914D01*
X815510Y845882D01*
X815431Y845854D01*
X815349Y845829D01*
X815267Y845808D01*
X815184Y845791D01*
X815185Y845791D02*
X815051Y845768D01*
X814916Y845750D01*
X814780Y845734D01*
X814644Y845723D01*
X814508Y845715D01*
X814371Y845712D01*
X814235Y845711D01*
X814099Y845715D01*
X813962Y845723D01*
X813826Y845734D01*
X813691Y845749D01*
X813556Y845768D01*
X813421Y845790D01*
X813287Y845817D01*
X813154Y845847D01*
X813022Y845880D01*
X812891Y845918D01*
X812760Y845958D01*
X812631Y846003D01*
X812504Y846051D01*
X812377Y846103D01*
X812253Y846158D01*
X812129Y846216D01*
X812008Y846278D01*
X811888Y846343D01*
X811770Y846412D01*
X825232Y855726D02*
X825336Y855724D01*
X825441Y855718D01*
X825545Y855708D01*
X825648Y855695D01*
X825751Y855677D01*
X825854Y855656D01*
X825955Y855631D01*
X826056Y855602D01*
X826155Y855569D01*
X826253Y855533D01*
X826349Y855493D01*
X826444Y855449D01*
X826538Y855402D01*
X826629Y855352D01*
X826718Y855298D01*
X826806Y855241D01*
X826891Y855180D01*
X826974Y855116D01*
X827054Y855050D01*
X827132Y854980D01*
X827208Y854908D01*
X827280Y854832D01*
X827350Y854754D01*
X827416Y854674D01*
X827480Y854591D01*
X827541Y854506D01*
X827598Y854418D01*
X827652Y854329D01*
X827702Y854238D01*
X827749Y854144D01*
X827793Y854049D01*
X827833Y853953D01*
X827869Y853855D01*
X827902Y853756D01*
X827931Y853655D01*
X827956Y853554D01*
X827977Y853451D01*
X827995Y853348D01*
X828008Y853245D01*
X828018Y853141D01*
X828024Y853036D01*
X828026Y852932D01*
X825232Y855727D02*
X825113Y855725D01*
X824995Y855719D01*
X824876Y855709D01*
X824758Y855696D01*
X824641Y855678D01*
X824524Y855656D01*
X824408Y855631D01*
X824293Y855602D01*
X824178Y855569D01*
X824065Y855532D01*
X823954Y855492D01*
X823843Y855448D01*
X823735Y855400D01*
X823628Y855349D01*
X823522Y855294D01*
X823419Y855235D01*
X823317Y855174D01*
X823218Y855109D01*
X823120Y855040D01*
X823026Y854969D01*
X822933Y854894D01*
X822843Y854817D01*
X822756Y854736D01*
X822671Y854653D01*
X822589Y854567D01*
X822510Y854478D01*
X822434Y854387D01*
X822361Y854293D01*
X822292Y854197D01*
X822225Y854098D01*
X822162Y853998D01*
X822102Y853895D01*
X822045Y853791D01*
X821993Y853684D01*
X821943Y853576D01*
X821897Y853467D01*
X821855Y853355D01*
X821817Y853243D01*
X827095Y850759D02*
X827170Y850833D01*
X827242Y850910D01*
X827312Y850989D01*
X827379Y851071D01*
X827443Y851155D01*
X827504Y851241D01*
X827562Y851329D01*
X827617Y851420D01*
X827669Y851512D01*
X827717Y851606D01*
X827762Y851701D01*
X827804Y851799D01*
X827842Y851897D01*
X827877Y851997D01*
X827908Y852098D01*
X827935Y852200D01*
X827959Y852303D01*
X827980Y852406D01*
X827996Y852511D01*
X828009Y852616D01*
X828019Y852721D01*
X828024Y852826D01*
X828026Y852932D01*
X827095Y850759D02*
X821817Y844550D01*
X828026Y844550D01*
D11*
X76200Y424180D02*
X76200Y414020D01*
D10*
X64262Y432562D02*
X64262Y443738D01*
X67366Y443738D01*
X67477Y443736D01*
X67587Y443730D01*
X67698Y443720D01*
X67808Y443706D01*
X67917Y443689D01*
X68026Y443667D01*
X68134Y443642D01*
X68240Y443612D01*
X68346Y443579D01*
X68451Y443542D01*
X68554Y443502D01*
X68655Y443457D01*
X68755Y443410D01*
X68854Y443358D01*
X68950Y443303D01*
X69044Y443245D01*
X69136Y443184D01*
X69226Y443119D01*
X69314Y443051D01*
X69399Y442980D01*
X69481Y442906D01*
X69561Y442829D01*
X69638Y442749D01*
X69712Y442667D01*
X69783Y442582D01*
X69851Y442494D01*
X69916Y442404D01*
X69977Y442312D01*
X70035Y442218D01*
X70090Y442122D01*
X70142Y442023D01*
X70189Y441923D01*
X70234Y441822D01*
X70274Y441719D01*
X70311Y441614D01*
X70344Y441508D01*
X70374Y441402D01*
X70399Y441294D01*
X70421Y441185D01*
X70438Y441076D01*
X70452Y440966D01*
X70462Y440855D01*
X70468Y440745D01*
X70470Y440634D01*
X70468Y440523D01*
X70462Y440413D01*
X70452Y440302D01*
X70438Y440192D01*
X70421Y440083D01*
X70399Y439974D01*
X70374Y439866D01*
X70344Y439760D01*
X70311Y439654D01*
X70274Y439549D01*
X70234Y439446D01*
X70189Y439345D01*
X70142Y439245D01*
X70090Y439146D01*
X70035Y439050D01*
X69977Y438956D01*
X69916Y438864D01*
X69851Y438774D01*
X69783Y438686D01*
X69712Y438601D01*
X69638Y438519D01*
X69561Y438439D01*
X69481Y438362D01*
X69399Y438288D01*
X69314Y438217D01*
X69226Y438149D01*
X69136Y438084D01*
X69044Y438023D01*
X68950Y437965D01*
X68854Y437910D01*
X68755Y437858D01*
X68655Y437811D01*
X68554Y437766D01*
X68451Y437726D01*
X68346Y437689D01*
X68240Y437656D01*
X68134Y437626D01*
X68026Y437601D01*
X67917Y437579D01*
X67808Y437562D01*
X67698Y437548D01*
X67587Y437538D01*
X67477Y437532D01*
X67366Y437530D01*
X67366Y437529D02*
X64262Y437529D01*
X67987Y437529D02*
X70471Y432562D01*
X75600Y442496D02*
X75600Y443738D01*
X81809Y443738D01*
X78704Y432562D01*
M02*
