G04 EAGLE Gerber RS-274X export*
G75*
%MOMM*%
%FSLAX34Y34*%
%LPD*%
%INSoldermask Top*%
%IPPOS*%
%AMOC8*
5,1,8,0,0,1.08239X$1,22.5*%
G01*
%ADD10R,1.676400X1.676400*%
%ADD11P,1.814519X8X202.500000*%
%ADD12R,0.952400X0.952400*%
%ADD13C,1.552400*%
%ADD14C,2.652400*%
%ADD15C,2.112400*%
%ADD16R,1.102359X1.183641*%
%ADD17C,3.652400*%
%ADD18C,1.252400*%
%ADD19R,0.652400X2.152400*%
%ADD20C,0.752400*%
%ADD21R,0.812800X2.184400*%
%ADD22R,1.552400X2.052400*%
%ADD23R,1.952400X1.552400*%
%ADD24R,0.852400X1.652400*%
%ADD25R,0.702400X1.352400*%
%ADD26R,1.252400X1.552400*%
%ADD27R,1.152400X1.552400*%
%ADD28R,1.452400X1.752400*%
%ADD29P,2.089446X8X112.500000*%
%ADD30C,0.609600*%
%ADD31C,1.168400*%
%ADD32C,4.597400*%


D10*
X1426800Y403600D03*
D11*
X1426800Y429000D03*
X1401400Y403600D03*
X1401400Y429000D03*
X1376000Y403600D03*
X1376000Y429000D03*
X1350600Y403600D03*
X1350600Y429000D03*
X1325200Y403600D03*
X1325200Y429000D03*
X1299800Y403600D03*
X1299800Y429000D03*
X1274400Y403600D03*
X1274400Y429000D03*
X1249000Y403600D03*
X1249000Y429000D03*
X1223600Y403600D03*
X1223600Y429000D03*
X1198200Y403600D03*
X1198200Y429000D03*
X1172800Y403600D03*
X1172800Y429000D03*
X1147400Y403600D03*
X1147400Y429000D03*
X1122000Y403600D03*
X1122000Y429000D03*
X1096600Y403600D03*
X1096600Y429000D03*
X1071200Y403600D03*
X1071200Y429000D03*
X1045800Y403600D03*
X1045800Y429000D03*
X1020400Y403600D03*
X1020400Y429000D03*
X995000Y403600D03*
X995000Y429000D03*
D10*
X1426800Y657600D03*
D11*
X1426800Y683000D03*
X1401400Y657600D03*
X1401400Y683000D03*
X1376000Y657600D03*
X1376000Y683000D03*
X1350600Y657600D03*
X1350600Y683000D03*
X1325200Y657600D03*
X1325200Y683000D03*
X1299800Y657600D03*
X1299800Y683000D03*
X1274400Y657600D03*
X1274400Y683000D03*
X1249000Y657600D03*
X1249000Y683000D03*
X1223600Y657600D03*
X1223600Y683000D03*
X1198200Y657600D03*
X1198200Y683000D03*
X1172800Y657600D03*
X1172800Y683000D03*
X1147400Y657600D03*
X1147400Y683000D03*
X1122000Y657600D03*
X1122000Y683000D03*
X1096600Y657600D03*
X1096600Y683000D03*
X1071200Y657600D03*
X1071200Y683000D03*
X1045800Y657600D03*
X1045800Y683000D03*
X1020400Y657600D03*
X1020400Y683000D03*
X995000Y657600D03*
X995000Y683000D03*
D12*
X1338700Y889000D03*
X1353700Y889000D03*
X1338700Y838200D03*
X1353700Y838200D03*
X1338700Y787400D03*
X1353700Y787400D03*
D13*
X368700Y254000D03*
X393700Y254000D03*
X418700Y254000D03*
D14*
X343700Y324000D03*
X443700Y324000D03*
D13*
X140100Y254000D03*
X165100Y254000D03*
X190100Y254000D03*
D14*
X115100Y324000D03*
X215100Y324000D03*
D15*
X456200Y164700D03*
X456200Y114700D03*
X331200Y114700D03*
X331200Y164700D03*
X227600Y164700D03*
X227600Y114700D03*
X102600Y114700D03*
X102600Y164700D03*
D16*
X284099Y88900D03*
X300101Y88900D03*
X68199Y88900D03*
X84201Y88900D03*
D17*
X857100Y292100D03*
X743100Y292100D03*
D18*
X822600Y292100D03*
X777600Y292100D03*
D19*
X235400Y567500D03*
X243400Y567500D03*
X251400Y567500D03*
X259400Y567500D03*
X267400Y567500D03*
X275400Y567500D03*
X283400Y567500D03*
X291400Y567500D03*
X299400Y567500D03*
X307400Y567500D03*
X315400Y567500D03*
X323400Y567500D03*
X331400Y567500D03*
X227400Y567500D03*
D20*
X151400Y529500D03*
X355900Y529500D03*
D21*
X488950Y858266D03*
X488950Y919734D03*
X501650Y858266D03*
X514350Y858266D03*
X501650Y919734D03*
X514350Y919734D03*
X527050Y858266D03*
X527050Y919734D03*
X539750Y858266D03*
X539750Y919734D03*
X552450Y858266D03*
X565150Y858266D03*
X552450Y919734D03*
X565150Y919734D03*
X577850Y858266D03*
X577850Y919734D03*
D22*
X473900Y550400D03*
X605900Y541400D03*
D23*
X489900Y681400D03*
X549900Y681400D03*
D24*
X482900Y579400D03*
X493900Y579400D03*
X504900Y575400D03*
X515900Y579400D03*
X526900Y575400D03*
X537900Y579400D03*
X548900Y583400D03*
X559900Y579400D03*
D25*
X523900Y761700D03*
X533400Y761700D03*
X542900Y761700D03*
X542900Y787700D03*
X523900Y787700D03*
D26*
X688500Y673100D03*
X708500Y673100D03*
D27*
X647700Y785700D03*
X657200Y763700D03*
X638200Y763700D03*
D26*
X764700Y673100D03*
X784700Y673100D03*
D28*
X167800Y419100D03*
X187800Y419100D03*
X282100Y419100D03*
X302100Y419100D03*
X802800Y673100D03*
X822800Y673100D03*
X853600Y673100D03*
X873600Y673100D03*
D29*
X685800Y889000D03*
X711200Y889000D03*
X736600Y889000D03*
X762000Y889000D03*
X787400Y889000D03*
X812800Y889000D03*
X838200Y889000D03*
X863600Y889000D03*
X889000Y889000D03*
X914400Y889000D03*
D30*
X1452880Y139700D02*
X1452882Y139887D01*
X1452889Y140074D01*
X1452901Y140261D01*
X1452917Y140447D01*
X1452937Y140633D01*
X1452962Y140818D01*
X1452992Y141003D01*
X1453026Y141187D01*
X1453065Y141370D01*
X1453108Y141552D01*
X1453156Y141732D01*
X1453208Y141912D01*
X1453265Y142090D01*
X1453325Y142267D01*
X1453391Y142442D01*
X1453460Y142616D01*
X1453534Y142788D01*
X1453612Y142958D01*
X1453694Y143126D01*
X1453780Y143292D01*
X1453870Y143456D01*
X1453964Y143617D01*
X1454062Y143777D01*
X1454164Y143933D01*
X1454270Y144088D01*
X1454380Y144239D01*
X1454493Y144388D01*
X1454610Y144534D01*
X1454730Y144677D01*
X1454854Y144817D01*
X1454981Y144954D01*
X1455112Y145088D01*
X1455246Y145219D01*
X1455383Y145346D01*
X1455523Y145470D01*
X1455666Y145590D01*
X1455812Y145707D01*
X1455961Y145820D01*
X1456112Y145930D01*
X1456267Y146036D01*
X1456423Y146138D01*
X1456583Y146236D01*
X1456744Y146330D01*
X1456908Y146420D01*
X1457074Y146506D01*
X1457242Y146588D01*
X1457412Y146666D01*
X1457584Y146740D01*
X1457758Y146809D01*
X1457933Y146875D01*
X1458110Y146935D01*
X1458288Y146992D01*
X1458468Y147044D01*
X1458648Y147092D01*
X1458830Y147135D01*
X1459013Y147174D01*
X1459197Y147208D01*
X1459382Y147238D01*
X1459567Y147263D01*
X1459753Y147283D01*
X1459939Y147299D01*
X1460126Y147311D01*
X1460313Y147318D01*
X1460500Y147320D01*
X1460687Y147318D01*
X1460874Y147311D01*
X1461061Y147299D01*
X1461247Y147283D01*
X1461433Y147263D01*
X1461618Y147238D01*
X1461803Y147208D01*
X1461987Y147174D01*
X1462170Y147135D01*
X1462352Y147092D01*
X1462532Y147044D01*
X1462712Y146992D01*
X1462890Y146935D01*
X1463067Y146875D01*
X1463242Y146809D01*
X1463416Y146740D01*
X1463588Y146666D01*
X1463758Y146588D01*
X1463926Y146506D01*
X1464092Y146420D01*
X1464256Y146330D01*
X1464417Y146236D01*
X1464577Y146138D01*
X1464733Y146036D01*
X1464888Y145930D01*
X1465039Y145820D01*
X1465188Y145707D01*
X1465334Y145590D01*
X1465477Y145470D01*
X1465617Y145346D01*
X1465754Y145219D01*
X1465888Y145088D01*
X1466019Y144954D01*
X1466146Y144817D01*
X1466270Y144677D01*
X1466390Y144534D01*
X1466507Y144388D01*
X1466620Y144239D01*
X1466730Y144088D01*
X1466836Y143933D01*
X1466938Y143777D01*
X1467036Y143617D01*
X1467130Y143456D01*
X1467220Y143292D01*
X1467306Y143126D01*
X1467388Y142958D01*
X1467466Y142788D01*
X1467540Y142616D01*
X1467609Y142442D01*
X1467675Y142267D01*
X1467735Y142090D01*
X1467792Y141912D01*
X1467844Y141732D01*
X1467892Y141552D01*
X1467935Y141370D01*
X1467974Y141187D01*
X1468008Y141003D01*
X1468038Y140818D01*
X1468063Y140633D01*
X1468083Y140447D01*
X1468099Y140261D01*
X1468111Y140074D01*
X1468118Y139887D01*
X1468120Y139700D01*
X1468118Y139513D01*
X1468111Y139326D01*
X1468099Y139139D01*
X1468083Y138953D01*
X1468063Y138767D01*
X1468038Y138582D01*
X1468008Y138397D01*
X1467974Y138213D01*
X1467935Y138030D01*
X1467892Y137848D01*
X1467844Y137668D01*
X1467792Y137488D01*
X1467735Y137310D01*
X1467675Y137133D01*
X1467609Y136958D01*
X1467540Y136784D01*
X1467466Y136612D01*
X1467388Y136442D01*
X1467306Y136274D01*
X1467220Y136108D01*
X1467130Y135944D01*
X1467036Y135783D01*
X1466938Y135623D01*
X1466836Y135467D01*
X1466730Y135312D01*
X1466620Y135161D01*
X1466507Y135012D01*
X1466390Y134866D01*
X1466270Y134723D01*
X1466146Y134583D01*
X1466019Y134446D01*
X1465888Y134312D01*
X1465754Y134181D01*
X1465617Y134054D01*
X1465477Y133930D01*
X1465334Y133810D01*
X1465188Y133693D01*
X1465039Y133580D01*
X1464888Y133470D01*
X1464733Y133364D01*
X1464577Y133262D01*
X1464417Y133164D01*
X1464256Y133070D01*
X1464092Y132980D01*
X1463926Y132894D01*
X1463758Y132812D01*
X1463588Y132734D01*
X1463416Y132660D01*
X1463242Y132591D01*
X1463067Y132525D01*
X1462890Y132465D01*
X1462712Y132408D01*
X1462532Y132356D01*
X1462352Y132308D01*
X1462170Y132265D01*
X1461987Y132226D01*
X1461803Y132192D01*
X1461618Y132162D01*
X1461433Y132137D01*
X1461247Y132117D01*
X1461061Y132101D01*
X1460874Y132089D01*
X1460687Y132082D01*
X1460500Y132080D01*
X1460313Y132082D01*
X1460126Y132089D01*
X1459939Y132101D01*
X1459753Y132117D01*
X1459567Y132137D01*
X1459382Y132162D01*
X1459197Y132192D01*
X1459013Y132226D01*
X1458830Y132265D01*
X1458648Y132308D01*
X1458468Y132356D01*
X1458288Y132408D01*
X1458110Y132465D01*
X1457933Y132525D01*
X1457758Y132591D01*
X1457584Y132660D01*
X1457412Y132734D01*
X1457242Y132812D01*
X1457074Y132894D01*
X1456908Y132980D01*
X1456744Y133070D01*
X1456583Y133164D01*
X1456423Y133262D01*
X1456267Y133364D01*
X1456112Y133470D01*
X1455961Y133580D01*
X1455812Y133693D01*
X1455666Y133810D01*
X1455523Y133930D01*
X1455383Y134054D01*
X1455246Y134181D01*
X1455112Y134312D01*
X1454981Y134446D01*
X1454854Y134583D01*
X1454730Y134723D01*
X1454610Y134866D01*
X1454493Y135012D01*
X1454380Y135161D01*
X1454270Y135312D01*
X1454164Y135467D01*
X1454062Y135623D01*
X1453964Y135783D01*
X1453870Y135944D01*
X1453780Y136108D01*
X1453694Y136274D01*
X1453612Y136442D01*
X1453534Y136612D01*
X1453460Y136784D01*
X1453391Y136958D01*
X1453325Y137133D01*
X1453265Y137310D01*
X1453208Y137488D01*
X1453156Y137668D01*
X1453108Y137848D01*
X1453065Y138030D01*
X1453026Y138213D01*
X1452992Y138397D01*
X1452962Y138582D01*
X1452937Y138767D01*
X1452917Y138953D01*
X1452901Y139139D01*
X1452889Y139326D01*
X1452882Y139513D01*
X1452880Y139700D01*
D31*
X1460500Y139700D03*
D30*
X1452880Y863600D02*
X1452882Y863787D01*
X1452889Y863974D01*
X1452901Y864161D01*
X1452917Y864347D01*
X1452937Y864533D01*
X1452962Y864718D01*
X1452992Y864903D01*
X1453026Y865087D01*
X1453065Y865270D01*
X1453108Y865452D01*
X1453156Y865632D01*
X1453208Y865812D01*
X1453265Y865990D01*
X1453325Y866167D01*
X1453391Y866342D01*
X1453460Y866516D01*
X1453534Y866688D01*
X1453612Y866858D01*
X1453694Y867026D01*
X1453780Y867192D01*
X1453870Y867356D01*
X1453964Y867517D01*
X1454062Y867677D01*
X1454164Y867833D01*
X1454270Y867988D01*
X1454380Y868139D01*
X1454493Y868288D01*
X1454610Y868434D01*
X1454730Y868577D01*
X1454854Y868717D01*
X1454981Y868854D01*
X1455112Y868988D01*
X1455246Y869119D01*
X1455383Y869246D01*
X1455523Y869370D01*
X1455666Y869490D01*
X1455812Y869607D01*
X1455961Y869720D01*
X1456112Y869830D01*
X1456267Y869936D01*
X1456423Y870038D01*
X1456583Y870136D01*
X1456744Y870230D01*
X1456908Y870320D01*
X1457074Y870406D01*
X1457242Y870488D01*
X1457412Y870566D01*
X1457584Y870640D01*
X1457758Y870709D01*
X1457933Y870775D01*
X1458110Y870835D01*
X1458288Y870892D01*
X1458468Y870944D01*
X1458648Y870992D01*
X1458830Y871035D01*
X1459013Y871074D01*
X1459197Y871108D01*
X1459382Y871138D01*
X1459567Y871163D01*
X1459753Y871183D01*
X1459939Y871199D01*
X1460126Y871211D01*
X1460313Y871218D01*
X1460500Y871220D01*
X1460687Y871218D01*
X1460874Y871211D01*
X1461061Y871199D01*
X1461247Y871183D01*
X1461433Y871163D01*
X1461618Y871138D01*
X1461803Y871108D01*
X1461987Y871074D01*
X1462170Y871035D01*
X1462352Y870992D01*
X1462532Y870944D01*
X1462712Y870892D01*
X1462890Y870835D01*
X1463067Y870775D01*
X1463242Y870709D01*
X1463416Y870640D01*
X1463588Y870566D01*
X1463758Y870488D01*
X1463926Y870406D01*
X1464092Y870320D01*
X1464256Y870230D01*
X1464417Y870136D01*
X1464577Y870038D01*
X1464733Y869936D01*
X1464888Y869830D01*
X1465039Y869720D01*
X1465188Y869607D01*
X1465334Y869490D01*
X1465477Y869370D01*
X1465617Y869246D01*
X1465754Y869119D01*
X1465888Y868988D01*
X1466019Y868854D01*
X1466146Y868717D01*
X1466270Y868577D01*
X1466390Y868434D01*
X1466507Y868288D01*
X1466620Y868139D01*
X1466730Y867988D01*
X1466836Y867833D01*
X1466938Y867677D01*
X1467036Y867517D01*
X1467130Y867356D01*
X1467220Y867192D01*
X1467306Y867026D01*
X1467388Y866858D01*
X1467466Y866688D01*
X1467540Y866516D01*
X1467609Y866342D01*
X1467675Y866167D01*
X1467735Y865990D01*
X1467792Y865812D01*
X1467844Y865632D01*
X1467892Y865452D01*
X1467935Y865270D01*
X1467974Y865087D01*
X1468008Y864903D01*
X1468038Y864718D01*
X1468063Y864533D01*
X1468083Y864347D01*
X1468099Y864161D01*
X1468111Y863974D01*
X1468118Y863787D01*
X1468120Y863600D01*
X1468118Y863413D01*
X1468111Y863226D01*
X1468099Y863039D01*
X1468083Y862853D01*
X1468063Y862667D01*
X1468038Y862482D01*
X1468008Y862297D01*
X1467974Y862113D01*
X1467935Y861930D01*
X1467892Y861748D01*
X1467844Y861568D01*
X1467792Y861388D01*
X1467735Y861210D01*
X1467675Y861033D01*
X1467609Y860858D01*
X1467540Y860684D01*
X1467466Y860512D01*
X1467388Y860342D01*
X1467306Y860174D01*
X1467220Y860008D01*
X1467130Y859844D01*
X1467036Y859683D01*
X1466938Y859523D01*
X1466836Y859367D01*
X1466730Y859212D01*
X1466620Y859061D01*
X1466507Y858912D01*
X1466390Y858766D01*
X1466270Y858623D01*
X1466146Y858483D01*
X1466019Y858346D01*
X1465888Y858212D01*
X1465754Y858081D01*
X1465617Y857954D01*
X1465477Y857830D01*
X1465334Y857710D01*
X1465188Y857593D01*
X1465039Y857480D01*
X1464888Y857370D01*
X1464733Y857264D01*
X1464577Y857162D01*
X1464417Y857064D01*
X1464256Y856970D01*
X1464092Y856880D01*
X1463926Y856794D01*
X1463758Y856712D01*
X1463588Y856634D01*
X1463416Y856560D01*
X1463242Y856491D01*
X1463067Y856425D01*
X1462890Y856365D01*
X1462712Y856308D01*
X1462532Y856256D01*
X1462352Y856208D01*
X1462170Y856165D01*
X1461987Y856126D01*
X1461803Y856092D01*
X1461618Y856062D01*
X1461433Y856037D01*
X1461247Y856017D01*
X1461061Y856001D01*
X1460874Y855989D01*
X1460687Y855982D01*
X1460500Y855980D01*
X1460313Y855982D01*
X1460126Y855989D01*
X1459939Y856001D01*
X1459753Y856017D01*
X1459567Y856037D01*
X1459382Y856062D01*
X1459197Y856092D01*
X1459013Y856126D01*
X1458830Y856165D01*
X1458648Y856208D01*
X1458468Y856256D01*
X1458288Y856308D01*
X1458110Y856365D01*
X1457933Y856425D01*
X1457758Y856491D01*
X1457584Y856560D01*
X1457412Y856634D01*
X1457242Y856712D01*
X1457074Y856794D01*
X1456908Y856880D01*
X1456744Y856970D01*
X1456583Y857064D01*
X1456423Y857162D01*
X1456267Y857264D01*
X1456112Y857370D01*
X1455961Y857480D01*
X1455812Y857593D01*
X1455666Y857710D01*
X1455523Y857830D01*
X1455383Y857954D01*
X1455246Y858081D01*
X1455112Y858212D01*
X1454981Y858346D01*
X1454854Y858483D01*
X1454730Y858623D01*
X1454610Y858766D01*
X1454493Y858912D01*
X1454380Y859061D01*
X1454270Y859212D01*
X1454164Y859367D01*
X1454062Y859523D01*
X1453964Y859683D01*
X1453870Y859844D01*
X1453780Y860008D01*
X1453694Y860174D01*
X1453612Y860342D01*
X1453534Y860512D01*
X1453460Y860684D01*
X1453391Y860858D01*
X1453325Y861033D01*
X1453265Y861210D01*
X1453208Y861388D01*
X1453156Y861568D01*
X1453108Y861748D01*
X1453065Y861930D01*
X1453026Y862113D01*
X1452992Y862297D01*
X1452962Y862482D01*
X1452937Y862667D01*
X1452917Y862853D01*
X1452901Y863039D01*
X1452889Y863226D01*
X1452882Y863413D01*
X1452880Y863600D01*
D31*
X1460500Y863600D03*
D30*
X55880Y139700D02*
X55882Y139887D01*
X55889Y140074D01*
X55901Y140261D01*
X55917Y140447D01*
X55937Y140633D01*
X55962Y140818D01*
X55992Y141003D01*
X56026Y141187D01*
X56065Y141370D01*
X56108Y141552D01*
X56156Y141732D01*
X56208Y141912D01*
X56265Y142090D01*
X56325Y142267D01*
X56391Y142442D01*
X56460Y142616D01*
X56534Y142788D01*
X56612Y142958D01*
X56694Y143126D01*
X56780Y143292D01*
X56870Y143456D01*
X56964Y143617D01*
X57062Y143777D01*
X57164Y143933D01*
X57270Y144088D01*
X57380Y144239D01*
X57493Y144388D01*
X57610Y144534D01*
X57730Y144677D01*
X57854Y144817D01*
X57981Y144954D01*
X58112Y145088D01*
X58246Y145219D01*
X58383Y145346D01*
X58523Y145470D01*
X58666Y145590D01*
X58812Y145707D01*
X58961Y145820D01*
X59112Y145930D01*
X59267Y146036D01*
X59423Y146138D01*
X59583Y146236D01*
X59744Y146330D01*
X59908Y146420D01*
X60074Y146506D01*
X60242Y146588D01*
X60412Y146666D01*
X60584Y146740D01*
X60758Y146809D01*
X60933Y146875D01*
X61110Y146935D01*
X61288Y146992D01*
X61468Y147044D01*
X61648Y147092D01*
X61830Y147135D01*
X62013Y147174D01*
X62197Y147208D01*
X62382Y147238D01*
X62567Y147263D01*
X62753Y147283D01*
X62939Y147299D01*
X63126Y147311D01*
X63313Y147318D01*
X63500Y147320D01*
X63687Y147318D01*
X63874Y147311D01*
X64061Y147299D01*
X64247Y147283D01*
X64433Y147263D01*
X64618Y147238D01*
X64803Y147208D01*
X64987Y147174D01*
X65170Y147135D01*
X65352Y147092D01*
X65532Y147044D01*
X65712Y146992D01*
X65890Y146935D01*
X66067Y146875D01*
X66242Y146809D01*
X66416Y146740D01*
X66588Y146666D01*
X66758Y146588D01*
X66926Y146506D01*
X67092Y146420D01*
X67256Y146330D01*
X67417Y146236D01*
X67577Y146138D01*
X67733Y146036D01*
X67888Y145930D01*
X68039Y145820D01*
X68188Y145707D01*
X68334Y145590D01*
X68477Y145470D01*
X68617Y145346D01*
X68754Y145219D01*
X68888Y145088D01*
X69019Y144954D01*
X69146Y144817D01*
X69270Y144677D01*
X69390Y144534D01*
X69507Y144388D01*
X69620Y144239D01*
X69730Y144088D01*
X69836Y143933D01*
X69938Y143777D01*
X70036Y143617D01*
X70130Y143456D01*
X70220Y143292D01*
X70306Y143126D01*
X70388Y142958D01*
X70466Y142788D01*
X70540Y142616D01*
X70609Y142442D01*
X70675Y142267D01*
X70735Y142090D01*
X70792Y141912D01*
X70844Y141732D01*
X70892Y141552D01*
X70935Y141370D01*
X70974Y141187D01*
X71008Y141003D01*
X71038Y140818D01*
X71063Y140633D01*
X71083Y140447D01*
X71099Y140261D01*
X71111Y140074D01*
X71118Y139887D01*
X71120Y139700D01*
X71118Y139513D01*
X71111Y139326D01*
X71099Y139139D01*
X71083Y138953D01*
X71063Y138767D01*
X71038Y138582D01*
X71008Y138397D01*
X70974Y138213D01*
X70935Y138030D01*
X70892Y137848D01*
X70844Y137668D01*
X70792Y137488D01*
X70735Y137310D01*
X70675Y137133D01*
X70609Y136958D01*
X70540Y136784D01*
X70466Y136612D01*
X70388Y136442D01*
X70306Y136274D01*
X70220Y136108D01*
X70130Y135944D01*
X70036Y135783D01*
X69938Y135623D01*
X69836Y135467D01*
X69730Y135312D01*
X69620Y135161D01*
X69507Y135012D01*
X69390Y134866D01*
X69270Y134723D01*
X69146Y134583D01*
X69019Y134446D01*
X68888Y134312D01*
X68754Y134181D01*
X68617Y134054D01*
X68477Y133930D01*
X68334Y133810D01*
X68188Y133693D01*
X68039Y133580D01*
X67888Y133470D01*
X67733Y133364D01*
X67577Y133262D01*
X67417Y133164D01*
X67256Y133070D01*
X67092Y132980D01*
X66926Y132894D01*
X66758Y132812D01*
X66588Y132734D01*
X66416Y132660D01*
X66242Y132591D01*
X66067Y132525D01*
X65890Y132465D01*
X65712Y132408D01*
X65532Y132356D01*
X65352Y132308D01*
X65170Y132265D01*
X64987Y132226D01*
X64803Y132192D01*
X64618Y132162D01*
X64433Y132137D01*
X64247Y132117D01*
X64061Y132101D01*
X63874Y132089D01*
X63687Y132082D01*
X63500Y132080D01*
X63313Y132082D01*
X63126Y132089D01*
X62939Y132101D01*
X62753Y132117D01*
X62567Y132137D01*
X62382Y132162D01*
X62197Y132192D01*
X62013Y132226D01*
X61830Y132265D01*
X61648Y132308D01*
X61468Y132356D01*
X61288Y132408D01*
X61110Y132465D01*
X60933Y132525D01*
X60758Y132591D01*
X60584Y132660D01*
X60412Y132734D01*
X60242Y132812D01*
X60074Y132894D01*
X59908Y132980D01*
X59744Y133070D01*
X59583Y133164D01*
X59423Y133262D01*
X59267Y133364D01*
X59112Y133470D01*
X58961Y133580D01*
X58812Y133693D01*
X58666Y133810D01*
X58523Y133930D01*
X58383Y134054D01*
X58246Y134181D01*
X58112Y134312D01*
X57981Y134446D01*
X57854Y134583D01*
X57730Y134723D01*
X57610Y134866D01*
X57493Y135012D01*
X57380Y135161D01*
X57270Y135312D01*
X57164Y135467D01*
X57062Y135623D01*
X56964Y135783D01*
X56870Y135944D01*
X56780Y136108D01*
X56694Y136274D01*
X56612Y136442D01*
X56534Y136612D01*
X56460Y136784D01*
X56391Y136958D01*
X56325Y137133D01*
X56265Y137310D01*
X56208Y137488D01*
X56156Y137668D01*
X56108Y137848D01*
X56065Y138030D01*
X56026Y138213D01*
X55992Y138397D01*
X55962Y138582D01*
X55937Y138767D01*
X55917Y138953D01*
X55901Y139139D01*
X55889Y139326D01*
X55882Y139513D01*
X55880Y139700D01*
D31*
X63500Y139700D03*
D16*
X68199Y419100D03*
X84201Y419100D03*
D32*
X38100Y50800D03*
X1562100Y50800D03*
X1562100Y952500D03*
X38100Y952500D03*
M02*
