M48
;GenerationSoftware,Autodesk,EAGLE,9.6.2*%
;CreationDate,2023-12-09T07:14:24Z*%
FMAT,2
ICI,OFF
METRIC,TZ,000.000
T9C0.305
T8C0.600
T7C0.889
T6C1.000
T5C1.016
T4C1.100
T3C1.400
T2C2.500
T1C3.175
%
G90
M71
T1
X3810Y95250
X156210Y95250
X156210Y5080
X3810Y5080
T2
X34370Y32400
X44370Y32400
X11510Y32400
X21510Y32400
X74310Y29210
X85710Y29210
T3
X22760Y11470
X10260Y16470
X10260Y11470
X22760Y16470
X33120Y16470
X33120Y11470
X45620Y11470
X45620Y16470
T4
X82260Y29210
X77760Y29210
T5
X83820Y88900
X81280Y88900
X91440Y88900
X88900Y88900
X86360Y88900
X78740Y88900
X76200Y88900
X73660Y88900
X71120Y88900
X68580Y88900
T6
X41870Y25400
X39370Y25400
X36870Y25400
X19010Y25400
X16510Y25400
X14010Y25400
T7
X109660Y65760
X109660Y68300
X107120Y65760
X104580Y65760
X104580Y68300
X102040Y65760
X102040Y68300
X99500Y65760
X99500Y68300
X107120Y68300
X142680Y40360
X142680Y42900
X140140Y40360
X140140Y42900
X137600Y40360
X137600Y42900
X135060Y40360
X135060Y42900
X132520Y40360
X132520Y42900
X129980Y40360
X129980Y42900
X127440Y40360
X127440Y42900
X124900Y40360
X124900Y42900
X122360Y40360
X122360Y42900
X119820Y40360
X119820Y42900
X117280Y40360
X117280Y42900
X114740Y40360
X114740Y42900
X112200Y40360
X112200Y42900
X109660Y40360
X109660Y42900
X107120Y40360
X107120Y42900
X104580Y40360
X104580Y42900
X102040Y40360
X102040Y42900
X99500Y40360
X99500Y42900
X142680Y65760
X142680Y68300
X140140Y65760
X140140Y68300
X137600Y65760
X137600Y68300
X135060Y65760
X135060Y68300
X132520Y65760
X132520Y68300
X129980Y65760
X129980Y68300
X127440Y65760
X127440Y68300
X124900Y65760
X124900Y68300
X122360Y65760
X122360Y68300
X119820Y65760
X119820Y68300
X117280Y65760
X117280Y68300
X114740Y65760
X114740Y68300
X112200Y65760
X112200Y68300
T8
X35590Y52950
X15140Y52950
T9
X31750Y41910
X87630Y64770
X82550Y64770
X67310Y76200
X53340Y74930
X137160Y88900
X137160Y83820
X5080Y41910
X135382Y79883
X31750Y8890
X5080Y8890
X119888Y57150
X116078Y56769
X56007Y83058
X53848Y59309
X29083Y50673
X53848Y66548
X53340Y87376
X20320Y41910
X68580Y64770
X27686Y58801
X51562Y84201
X51562Y72136
X76200Y64770
X54229Y77343
X52705Y77343
X15240Y41910
X49149Y90297
X29210Y70358
X38100Y54610
X52832Y65532
X30734Y47244
X85090Y64770
X80010Y64770
X25400Y41910
X10160Y8890
X26670Y8890
X24384Y58420
M30